%
M48
M72
T01C0.02165
T02C0.02362
T03C0.03346
T04C0.03937
T05C0.05118
%
T01
X55545Y141400
X102595Y32400
T02
X86095Y50775
X80245Y53525
X95095Y77400
X104696Y87400
X107595Y80900
X115095Y68400
X106595Y107900
X103595Y134900
X105995Y145900
X102595Y156062
X104114Y161224
X82745Y124775
X90095Y108400
X69845Y121400
X68595Y127650
X72820Y153550
X72595Y170900
X82595Y180900
X98595Y210900
X95095Y215900
X95595Y232400
X73095Y222900
X52595Y223400
X48095Y232400
X45095Y221585
X44095Y196400
X44095Y191238
X44095Y176400
X42595Y158900
X60095Y180900
X66495Y86650
T03
X38357Y78380
X38357Y63420
T04
X26095Y96400
X26095Y106400
X26095Y116400
X26095Y126400
X26095Y136400
X26095Y146400
X26095Y156400
X26095Y166400
X26095Y176400
X26095Y186400
X26095Y196400
X26095Y206400
X26095Y216400
X26095Y226400
X26095Y236400
X116095Y236400
X116095Y226400
X116095Y216400
X116095Y206400
X116095Y196400
X116095Y186400
X116095Y176400
X116095Y166400
X116095Y156400
X116095Y146400
X116095Y136400
X116095Y126400
X116095Y116400
X116095Y106400
X116095Y96400
T05
X36198Y33400
X47221Y14502
X59032Y33400
M30
