G75*
%MOIN*%
%OFA0B0*%
%FSLAX25Y25*%
%IPPOS*%
%LPD*%
%AMOC8*
5,1,8,0,0,1.08239X$1,22.5*
%
%ADD10C,0.00300*%
%ADD11C,0.00800*%
%ADD12C,0.00700*%
%ADD13C,0.00787*%
D10*
X0024503Y0022618D02*
X0025020Y0022618D01*
X0026054Y0021584D01*
X0026054Y0020550D02*
X0026054Y0022618D01*
X0027116Y0022101D02*
X0027116Y0021584D01*
X0029185Y0021584D01*
X0029185Y0021067D02*
X0029185Y0022101D01*
X0028668Y0022618D01*
X0027633Y0022618D01*
X0027116Y0022101D01*
X0027633Y0020550D02*
X0028668Y0020550D01*
X0029185Y0021067D01*
X0030247Y0021067D02*
X0030247Y0022618D01*
X0030247Y0021067D02*
X0030764Y0020550D01*
X0031281Y0021067D01*
X0031798Y0020550D01*
X0032315Y0021067D01*
X0032315Y0022618D01*
X0033378Y0022101D02*
X0033895Y0022618D01*
X0034929Y0022618D01*
X0035446Y0022101D01*
X0035446Y0021067D01*
X0034929Y0020550D01*
X0033895Y0020550D01*
X0033378Y0021067D01*
X0033378Y0022101D01*
X0036508Y0022101D02*
X0037025Y0021584D01*
X0038577Y0021584D01*
X0038577Y0020550D02*
X0038577Y0023653D01*
X0037025Y0023653D01*
X0036508Y0023136D01*
X0036508Y0022101D01*
X0041204Y0026167D02*
X0041721Y0025650D01*
X0042756Y0025650D01*
X0043273Y0026167D01*
X0043273Y0028236D01*
X0042756Y0028753D01*
X0041721Y0028753D01*
X0041204Y0028236D01*
X0044335Y0028236D02*
X0044852Y0028753D01*
X0046403Y0028753D01*
X0046403Y0025650D01*
X0044852Y0025650D01*
X0044335Y0026167D01*
X0044335Y0028236D01*
X0044321Y0022618D02*
X0043804Y0022101D01*
X0043287Y0022618D01*
X0042770Y0022101D01*
X0042770Y0020550D01*
X0043804Y0020550D02*
X0043804Y0022101D01*
X0044321Y0022618D02*
X0044838Y0022618D01*
X0044838Y0020550D01*
X0045900Y0020550D02*
X0045900Y0022101D01*
X0046417Y0022618D01*
X0046935Y0022101D01*
X0046935Y0020550D01*
X0047969Y0020550D02*
X0047969Y0022618D01*
X0047452Y0022618D01*
X0046935Y0022101D01*
X0049031Y0020550D02*
X0051099Y0020550D01*
X0050065Y0020550D02*
X0050065Y0023653D01*
X0051099Y0022618D01*
X0052148Y0021067D02*
X0052148Y0020550D01*
X0052665Y0020550D01*
X0052665Y0021067D01*
X0052148Y0021067D01*
X0053727Y0020550D02*
X0055795Y0020550D01*
X0053727Y0022618D01*
X0053727Y0023136D01*
X0054244Y0023653D01*
X0055278Y0023653D01*
X0055795Y0023136D01*
X0055278Y0025650D02*
X0055795Y0026167D01*
X0055278Y0025650D02*
X0054244Y0025650D01*
X0053727Y0026167D01*
X0053727Y0027201D01*
X0054244Y0027718D01*
X0054761Y0027718D01*
X0055795Y0027201D01*
X0055795Y0028753D01*
X0053727Y0028753D01*
X0052665Y0028753D02*
X0052665Y0026684D01*
X0051631Y0025650D01*
X0050596Y0026684D01*
X0050596Y0028753D01*
X0034756Y0091854D02*
X0032687Y0091854D01*
X0032170Y0092371D01*
X0032170Y0093405D01*
X0032687Y0093922D01*
X0033721Y0093922D01*
X0033721Y0092888D01*
X0034756Y0091854D02*
X0035273Y0092371D01*
X0035273Y0093405D01*
X0034756Y0093922D01*
X0035273Y0094985D02*
X0032170Y0097053D01*
X0035273Y0097053D01*
X0035273Y0098115D02*
X0035273Y0099667D01*
X0034756Y0100184D01*
X0032687Y0100184D01*
X0032170Y0099667D01*
X0032170Y0098115D01*
X0035273Y0098115D01*
X0035273Y0094985D02*
X0032170Y0094985D01*
X0032687Y0103419D02*
X0032170Y0103936D01*
X0032170Y0104971D01*
X0032687Y0105488D01*
X0033721Y0105488D01*
X0034239Y0104971D01*
X0034239Y0104454D01*
X0033721Y0103419D01*
X0035273Y0103419D01*
X0035273Y0105488D01*
X0035273Y0106550D02*
X0033204Y0106550D01*
X0032170Y0107584D01*
X0033204Y0108618D01*
X0035273Y0108618D01*
X0032114Y0113419D02*
X0033148Y0114454D01*
X0030045Y0114454D01*
X0030045Y0115488D02*
X0030045Y0113419D01*
X0030562Y0116550D02*
X0030045Y0117067D01*
X0030045Y0118101D01*
X0030562Y0118618D01*
X0031079Y0118618D01*
X0031596Y0118101D01*
X0031596Y0117584D01*
X0031596Y0118101D02*
X0032114Y0118618D01*
X0032631Y0118618D01*
X0033148Y0118101D01*
X0033148Y0117067D01*
X0032631Y0116550D01*
X0032114Y0123419D02*
X0033148Y0124454D01*
X0030045Y0124454D01*
X0030045Y0125488D02*
X0030045Y0123419D01*
X0030045Y0126550D02*
X0032114Y0128618D01*
X0032631Y0128618D01*
X0033148Y0128101D01*
X0033148Y0127067D01*
X0032631Y0126550D01*
X0030045Y0126550D02*
X0030045Y0128618D01*
X0030045Y0133419D02*
X0030045Y0135488D01*
X0030045Y0134454D02*
X0033148Y0134454D01*
X0032114Y0133419D01*
X0031596Y0136550D02*
X0031596Y0138618D01*
X0030045Y0138101D02*
X0033148Y0138101D01*
X0031596Y0136550D01*
X0032631Y0143419D02*
X0033148Y0143936D01*
X0033148Y0144971D01*
X0032631Y0145488D01*
X0032114Y0145488D01*
X0030045Y0143419D01*
X0030045Y0145488D01*
X0030045Y0146550D02*
X0030562Y0146550D01*
X0032631Y0148618D01*
X0033148Y0148618D01*
X0033148Y0146550D01*
X0032631Y0153419D02*
X0033148Y0153936D01*
X0033148Y0154971D01*
X0032631Y0155488D01*
X0032114Y0155488D01*
X0031596Y0154971D01*
X0031079Y0155488D01*
X0030562Y0155488D01*
X0030045Y0154971D01*
X0030045Y0153936D01*
X0030562Y0153419D01*
X0031596Y0154454D02*
X0031596Y0154971D01*
X0030562Y0156550D02*
X0030045Y0157067D01*
X0030045Y0158101D01*
X0030562Y0158618D01*
X0031079Y0158618D01*
X0031596Y0158101D01*
X0031596Y0157584D01*
X0031596Y0158101D02*
X0032114Y0158618D01*
X0032631Y0158618D01*
X0033148Y0158101D01*
X0033148Y0157067D01*
X0032631Y0156550D01*
X0032631Y0163419D02*
X0033148Y0163936D01*
X0033148Y0164971D01*
X0032631Y0165488D01*
X0032114Y0165488D01*
X0031596Y0164971D01*
X0031079Y0165488D01*
X0030562Y0165488D01*
X0030045Y0164971D01*
X0030045Y0163936D01*
X0030562Y0163419D01*
X0031596Y0164454D02*
X0031596Y0164971D01*
X0032631Y0166550D02*
X0033148Y0167067D01*
X0033148Y0168101D01*
X0032631Y0168618D01*
X0032114Y0168618D01*
X0030045Y0166550D01*
X0030045Y0168618D01*
X0030045Y0173419D02*
X0032114Y0173419D01*
X0033148Y0174454D01*
X0032114Y0175488D01*
X0030045Y0175488D01*
X0030562Y0176550D02*
X0032631Y0178618D01*
X0030562Y0178618D01*
X0030045Y0178101D01*
X0030045Y0177067D01*
X0030562Y0176550D01*
X0032631Y0176550D01*
X0033148Y0177067D01*
X0033148Y0178101D01*
X0032631Y0178618D01*
X0031596Y0175488D02*
X0031596Y0173419D01*
X0031596Y0183419D02*
X0031596Y0185488D01*
X0032114Y0185488D02*
X0030045Y0185488D01*
X0030045Y0186550D02*
X0030045Y0188618D01*
X0030045Y0187584D02*
X0033148Y0187584D01*
X0032114Y0186550D01*
X0032114Y0185488D02*
X0033148Y0184454D01*
X0032114Y0183419D01*
X0030045Y0183419D01*
X0030045Y0193419D02*
X0032114Y0193419D01*
X0033148Y0194454D01*
X0032114Y0195488D01*
X0030045Y0195488D01*
X0030045Y0196550D02*
X0032114Y0198618D01*
X0032631Y0198618D01*
X0033148Y0198101D01*
X0033148Y0197067D01*
X0032631Y0196550D01*
X0031596Y0195488D02*
X0031596Y0193419D01*
X0030045Y0196550D02*
X0030045Y0198618D01*
X0030045Y0203419D02*
X0032114Y0203419D01*
X0033148Y0204454D01*
X0032114Y0205488D01*
X0030045Y0205488D01*
X0030562Y0206550D02*
X0030045Y0207067D01*
X0030045Y0208101D01*
X0030562Y0208618D01*
X0031079Y0208618D01*
X0031596Y0208101D01*
X0031596Y0207584D01*
X0031596Y0208101D02*
X0032114Y0208618D01*
X0032631Y0208618D01*
X0033148Y0208101D01*
X0033148Y0207067D01*
X0032631Y0206550D01*
X0031596Y0205488D02*
X0031596Y0203419D01*
X0031596Y0213419D02*
X0031596Y0215488D01*
X0032114Y0215488D02*
X0030045Y0215488D01*
X0031596Y0216550D02*
X0031596Y0218618D01*
X0030045Y0218101D02*
X0033148Y0218101D01*
X0031596Y0216550D01*
X0032114Y0215488D02*
X0033148Y0214454D01*
X0032114Y0213419D01*
X0030045Y0213419D01*
X0030045Y0221854D02*
X0033148Y0221854D01*
X0033148Y0223405D01*
X0032631Y0223922D01*
X0031596Y0223922D01*
X0031079Y0223405D01*
X0031079Y0221854D01*
X0031079Y0222888D02*
X0030045Y0223922D01*
X0030562Y0224985D02*
X0030045Y0225502D01*
X0030045Y0226536D01*
X0030562Y0227053D01*
X0031079Y0227053D01*
X0031596Y0226536D01*
X0031596Y0225502D01*
X0032114Y0224985D01*
X0032631Y0224985D01*
X0033148Y0225502D01*
X0033148Y0226536D01*
X0032631Y0227053D01*
X0033148Y0228115D02*
X0033148Y0230184D01*
X0032631Y0231071D02*
X0033148Y0231588D01*
X0033148Y0232623D01*
X0032631Y0233140D01*
X0032114Y0233140D01*
X0031596Y0232623D01*
X0031079Y0233140D01*
X0030562Y0233140D01*
X0030045Y0232623D01*
X0030045Y0231588D01*
X0030562Y0231071D01*
X0031596Y0232106D02*
X0031596Y0232623D01*
X0030562Y0234202D02*
X0030562Y0234719D01*
X0030045Y0234719D01*
X0030045Y0234202D01*
X0030562Y0234202D01*
X0030562Y0235767D02*
X0030045Y0236284D01*
X0030045Y0237319D01*
X0030562Y0237836D01*
X0031079Y0237836D01*
X0031596Y0237319D01*
X0031596Y0236802D01*
X0031596Y0237319D02*
X0032114Y0237836D01*
X0032631Y0237836D01*
X0033148Y0237319D01*
X0033148Y0236284D01*
X0032631Y0235767D01*
X0033148Y0238898D02*
X0031079Y0238898D01*
X0030045Y0239932D01*
X0031079Y0240966D01*
X0033148Y0240966D01*
X0032636Y0243800D02*
X0031986Y0244451D01*
X0031986Y0245752D01*
X0032636Y0246402D01*
X0033937Y0246402D01*
X0034588Y0245752D01*
X0034588Y0244451D01*
X0033937Y0243800D01*
X0032636Y0243800D01*
X0030721Y0243800D02*
X0030721Y0246402D01*
X0030070Y0246402D01*
X0029420Y0245752D01*
X0028769Y0246402D01*
X0028118Y0245752D01*
X0028118Y0243800D01*
X0029420Y0243800D02*
X0029420Y0245752D01*
X0035853Y0246402D02*
X0037805Y0246402D01*
X0038455Y0245752D01*
X0038455Y0244451D01*
X0037805Y0243800D01*
X0035853Y0243800D01*
X0039738Y0243800D02*
X0040389Y0243800D01*
X0040389Y0244451D01*
X0039738Y0244451D01*
X0039738Y0243800D01*
X0041660Y0246402D02*
X0042311Y0246402D01*
X0043612Y0245101D01*
X0044877Y0245101D02*
X0047479Y0245101D01*
X0047479Y0244451D02*
X0047479Y0245752D01*
X0046828Y0246402D01*
X0045527Y0246402D01*
X0044877Y0245752D01*
X0044877Y0245101D01*
X0045527Y0243800D02*
X0046828Y0243800D01*
X0047479Y0244451D01*
X0048750Y0243800D02*
X0050702Y0245101D01*
X0048750Y0246402D01*
X0050702Y0247703D02*
X0050702Y0243800D01*
X0051967Y0243800D02*
X0051967Y0245752D01*
X0052617Y0246402D01*
X0053918Y0246402D01*
X0053918Y0245101D02*
X0051967Y0245101D01*
X0051967Y0243800D02*
X0053918Y0243800D01*
X0054569Y0244451D01*
X0053918Y0245101D01*
X0055834Y0245752D02*
X0055834Y0243800D01*
X0057135Y0243800D02*
X0057135Y0245752D01*
X0056485Y0246402D01*
X0055834Y0245752D01*
X0057135Y0245752D02*
X0057786Y0246402D01*
X0058436Y0246402D01*
X0058436Y0243800D01*
X0059701Y0243800D02*
X0061653Y0243800D01*
X0062304Y0244451D01*
X0062304Y0245752D01*
X0061653Y0246402D01*
X0059701Y0246402D01*
X0059701Y0247703D02*
X0059701Y0243800D01*
X0063569Y0245101D02*
X0066171Y0245101D01*
X0066171Y0244451D02*
X0066171Y0245752D01*
X0065520Y0246402D01*
X0064219Y0246402D01*
X0063569Y0245752D01*
X0063569Y0245101D01*
X0064219Y0243800D02*
X0065520Y0243800D01*
X0066171Y0244451D01*
X0067448Y0243800D02*
X0068098Y0244451D01*
X0068098Y0247053D01*
X0067448Y0246402D02*
X0068749Y0246402D01*
X0070014Y0246402D02*
X0071966Y0246402D01*
X0072616Y0245752D01*
X0072616Y0244451D01*
X0071966Y0243800D01*
X0070014Y0243800D01*
X0073881Y0245101D02*
X0076484Y0245101D01*
X0076484Y0244451D02*
X0076484Y0245752D01*
X0075833Y0246402D01*
X0074532Y0246402D01*
X0073881Y0245752D01*
X0073881Y0245101D01*
X0074532Y0243800D02*
X0075833Y0243800D01*
X0076484Y0244451D01*
X0077749Y0244451D02*
X0078399Y0243800D01*
X0080351Y0243800D01*
X0081616Y0243800D02*
X0084218Y0246402D01*
X0085483Y0245752D02*
X0085483Y0245101D01*
X0088086Y0245101D01*
X0088086Y0244451D02*
X0088086Y0245752D01*
X0087435Y0246402D01*
X0086134Y0246402D01*
X0085483Y0245752D01*
X0086134Y0243800D02*
X0087435Y0243800D01*
X0088086Y0244451D01*
X0089351Y0243800D02*
X0089351Y0245752D01*
X0090001Y0246402D01*
X0091953Y0246402D01*
X0091953Y0243800D01*
X0093218Y0243800D02*
X0093218Y0246402D01*
X0093218Y0243800D02*
X0095170Y0243800D01*
X0095820Y0244451D01*
X0095820Y0246402D01*
X0095820Y0250100D02*
X0095820Y0252702D01*
X0095820Y0251401D02*
X0094519Y0252702D01*
X0093868Y0252702D01*
X0092597Y0252052D02*
X0091947Y0252702D01*
X0090646Y0252702D01*
X0089995Y0252052D01*
X0089995Y0251401D01*
X0092597Y0251401D01*
X0092597Y0250751D02*
X0092597Y0252052D01*
X0092597Y0250751D02*
X0091947Y0250100D01*
X0090646Y0250100D01*
X0087429Y0250100D02*
X0088730Y0252702D01*
X0086128Y0252702D02*
X0087429Y0250100D01*
X0088086Y0256400D02*
X0088086Y0260303D01*
X0086134Y0260303D01*
X0085483Y0259653D01*
X0085483Y0258352D01*
X0086134Y0257701D01*
X0088086Y0257701D01*
X0089351Y0257701D02*
X0089351Y0257051D01*
X0090001Y0256400D01*
X0091302Y0256400D01*
X0091953Y0257051D01*
X0093218Y0256400D02*
X0095820Y0256400D01*
X0095820Y0260303D01*
X0093218Y0260303D01*
X0091953Y0259653D02*
X0091953Y0259002D01*
X0091302Y0258352D01*
X0090001Y0258352D01*
X0089351Y0257701D01*
X0089351Y0259653D02*
X0090001Y0260303D01*
X0091302Y0260303D01*
X0091953Y0259653D01*
X0094519Y0258352D02*
X0095820Y0258352D01*
X0098826Y0252600D02*
X0102002Y0252922D01*
X0102343Y0253989D01*
X0102857Y0254986D01*
X0100839Y0257460D01*
X0102535Y0259156D01*
X0105009Y0257139D01*
X0106006Y0257652D01*
X0107073Y0257993D01*
X0107396Y0261169D01*
X0109795Y0261169D01*
X0110117Y0257993D01*
X0111185Y0257652D01*
X0112181Y0257139D01*
X0114655Y0259156D01*
X0116351Y0257460D01*
X0114334Y0254986D01*
X0114847Y0253989D01*
X0115188Y0252922D01*
X0118364Y0252600D01*
X0118364Y0250200D01*
X0115188Y0249878D01*
X0114847Y0248811D01*
X0114334Y0247814D01*
X0116351Y0245340D01*
X0114655Y0243644D01*
X0112181Y0245661D01*
X0111185Y0245148D01*
X0109772Y0248558D01*
X0110304Y0248842D01*
X0110770Y0249225D01*
X0111153Y0249691D01*
X0111437Y0250223D01*
X0111612Y0250800D01*
X0111671Y0251400D01*
X0111606Y0252028D01*
X0111414Y0252630D01*
X0111104Y0253180D01*
X0110687Y0253655D01*
X0110183Y0254035D01*
X0109611Y0254303D01*
X0108997Y0254450D01*
X0108365Y0254467D01*
X0107744Y0254356D01*
X0107158Y0254120D01*
X0106633Y0253769D01*
X0106190Y0253318D01*
X0105849Y0252786D01*
X0105624Y0252196D01*
X0105524Y0251573D01*
X0105554Y0250942D01*
X0105711Y0250330D01*
X0105991Y0249764D01*
X0106380Y0249266D01*
X0106862Y0248859D01*
X0107418Y0248558D01*
X0106005Y0245148D01*
X0105009Y0245661D01*
X0102535Y0243644D01*
X0100839Y0245340D01*
X0102857Y0247814D01*
X0102343Y0248811D01*
X0102002Y0249878D01*
X0098826Y0250200D01*
X0098826Y0252600D01*
X0098826Y0252485D02*
X0105734Y0252485D01*
X0105623Y0252187D02*
X0098826Y0252187D01*
X0098826Y0251888D02*
X0105575Y0251888D01*
X0105527Y0251590D02*
X0098826Y0251590D01*
X0098826Y0251291D02*
X0105537Y0251291D01*
X0105551Y0250993D02*
X0098826Y0250993D01*
X0098826Y0250694D02*
X0105617Y0250694D01*
X0105694Y0250396D02*
X0098826Y0250396D01*
X0099843Y0250097D02*
X0105826Y0250097D01*
X0105973Y0249799D02*
X0102027Y0249799D01*
X0102123Y0249500D02*
X0106197Y0249500D01*
X0106456Y0249202D02*
X0102218Y0249202D01*
X0102314Y0248903D02*
X0106810Y0248903D01*
X0107332Y0248605D02*
X0102450Y0248605D01*
X0102603Y0248306D02*
X0107314Y0248306D01*
X0107190Y0248008D02*
X0102757Y0248008D01*
X0102771Y0247709D02*
X0107066Y0247709D01*
X0106943Y0247411D02*
X0102527Y0247411D01*
X0102284Y0247112D02*
X0106819Y0247112D01*
X0106695Y0246814D02*
X0102041Y0246814D01*
X0101797Y0246515D02*
X0106572Y0246515D01*
X0106448Y0246216D02*
X0101554Y0246216D01*
X0101310Y0245918D02*
X0106324Y0245918D01*
X0106201Y0245619D02*
X0105091Y0245619D01*
X0104958Y0245619D02*
X0101067Y0245619D01*
X0100858Y0245321D02*
X0104592Y0245321D01*
X0104226Y0245022D02*
X0101157Y0245022D01*
X0101455Y0244724D02*
X0103860Y0244724D01*
X0103494Y0244425D02*
X0101754Y0244425D01*
X0102052Y0244127D02*
X0103127Y0244127D01*
X0102761Y0243828D02*
X0102351Y0243828D01*
X0105670Y0245321D02*
X0106077Y0245321D01*
X0110371Y0247112D02*
X0114906Y0247112D01*
X0114663Y0247411D02*
X0110248Y0247411D01*
X0110124Y0247709D02*
X0114419Y0247709D01*
X0114433Y0248008D02*
X0110000Y0248008D01*
X0109877Y0248306D02*
X0114587Y0248306D01*
X0114741Y0248605D02*
X0109859Y0248605D01*
X0110378Y0248903D02*
X0114876Y0248903D01*
X0114972Y0249202D02*
X0110742Y0249202D01*
X0110996Y0249500D02*
X0115068Y0249500D01*
X0115163Y0249799D02*
X0111210Y0249799D01*
X0111370Y0250097D02*
X0117347Y0250097D01*
X0118364Y0250396D02*
X0111489Y0250396D01*
X0111580Y0250694D02*
X0118364Y0250694D01*
X0118364Y0250993D02*
X0111631Y0250993D01*
X0111660Y0251291D02*
X0118364Y0251291D01*
X0118364Y0251590D02*
X0111652Y0251590D01*
X0111621Y0251888D02*
X0118364Y0251888D01*
X0118364Y0252187D02*
X0111556Y0252187D01*
X0111461Y0252485D02*
X0118364Y0252485D01*
X0116551Y0252784D02*
X0111328Y0252784D01*
X0111159Y0253082D02*
X0115137Y0253082D01*
X0115042Y0253381D02*
X0110928Y0253381D01*
X0110655Y0253679D02*
X0114946Y0253679D01*
X0114851Y0253978D02*
X0110258Y0253978D01*
X0109669Y0254276D02*
X0114699Y0254276D01*
X0114545Y0254575D02*
X0102645Y0254575D01*
X0102799Y0254873D02*
X0114392Y0254873D01*
X0114485Y0255172D02*
X0102705Y0255172D01*
X0102461Y0255470D02*
X0114729Y0255470D01*
X0114972Y0255769D02*
X0102218Y0255769D01*
X0101975Y0256067D02*
X0115216Y0256067D01*
X0115459Y0256366D02*
X0101731Y0256366D01*
X0101488Y0256664D02*
X0115702Y0256664D01*
X0115946Y0256963D02*
X0101244Y0256963D01*
X0101001Y0257261D02*
X0104859Y0257261D01*
X0105248Y0257261D02*
X0111942Y0257261D01*
X0112332Y0257261D02*
X0116189Y0257261D01*
X0116251Y0257560D02*
X0112698Y0257560D01*
X0113064Y0257858D02*
X0115952Y0257858D01*
X0115654Y0258157D02*
X0113430Y0258157D01*
X0113796Y0258455D02*
X0115355Y0258455D01*
X0115057Y0258754D02*
X0114162Y0258754D01*
X0114528Y0259052D02*
X0114758Y0259052D01*
X0111363Y0257560D02*
X0105827Y0257560D01*
X0106652Y0257858D02*
X0110539Y0257858D01*
X0110101Y0258157D02*
X0107090Y0258157D01*
X0107120Y0258455D02*
X0110070Y0258455D01*
X0110040Y0258754D02*
X0107150Y0258754D01*
X0107181Y0259052D02*
X0110010Y0259052D01*
X0109979Y0259351D02*
X0107211Y0259351D01*
X0107241Y0259650D02*
X0109949Y0259650D01*
X0109919Y0259948D02*
X0107272Y0259948D01*
X0107302Y0260247D02*
X0109888Y0260247D01*
X0109858Y0260545D02*
X0107332Y0260545D01*
X0107362Y0260844D02*
X0109828Y0260844D01*
X0109798Y0261142D02*
X0107393Y0261142D01*
X0104493Y0257560D02*
X0100939Y0257560D01*
X0101238Y0257858D02*
X0104126Y0257858D01*
X0103760Y0258157D02*
X0101536Y0258157D01*
X0101835Y0258455D02*
X0103394Y0258455D01*
X0103028Y0258754D02*
X0102133Y0258754D01*
X0102432Y0259052D02*
X0102662Y0259052D01*
X0102491Y0254276D02*
X0107547Y0254276D01*
X0106946Y0253978D02*
X0102340Y0253978D01*
X0102244Y0253679D02*
X0106545Y0253679D01*
X0106252Y0253381D02*
X0102149Y0253381D01*
X0102053Y0253082D02*
X0106039Y0253082D01*
X0105848Y0252784D02*
X0100640Y0252784D01*
X0100536Y0238078D02*
X0101053Y0237561D01*
X0101053Y0237043D01*
X0100536Y0236526D01*
X0099502Y0236526D01*
X0098985Y0236009D01*
X0098985Y0235492D01*
X0099502Y0234975D01*
X0100536Y0234975D01*
X0101053Y0235492D01*
X0100536Y0238078D02*
X0099502Y0238078D01*
X0098985Y0237561D01*
X0097922Y0238078D02*
X0097922Y0234975D01*
X0096371Y0234975D01*
X0095854Y0235492D01*
X0095854Y0237561D01*
X0096371Y0238078D01*
X0097922Y0238078D01*
X0094792Y0237043D02*
X0094792Y0234975D01*
X0094792Y0236526D02*
X0092723Y0236526D01*
X0092723Y0237043D02*
X0092723Y0234975D01*
X0092723Y0237043D02*
X0093758Y0238078D01*
X0094792Y0237043D01*
X0094667Y0228078D02*
X0094667Y0224975D01*
X0092598Y0224975D01*
X0095729Y0225492D02*
X0096246Y0224975D01*
X0097280Y0224975D01*
X0097797Y0225492D01*
X0097797Y0227561D01*
X0097280Y0228078D01*
X0096246Y0228078D01*
X0095729Y0227561D01*
X0098860Y0227561D02*
X0099377Y0228078D01*
X0100411Y0228078D01*
X0100928Y0227561D01*
X0100928Y0227043D01*
X0100411Y0226526D01*
X0099377Y0226526D01*
X0098860Y0226009D01*
X0098860Y0225492D01*
X0099377Y0224975D01*
X0100411Y0224975D01*
X0100928Y0225492D01*
X0105121Y0224975D02*
X0107189Y0224975D01*
X0105121Y0227043D01*
X0105121Y0227561D01*
X0105638Y0228078D01*
X0106672Y0228078D01*
X0107189Y0227561D01*
X0108252Y0227561D02*
X0108769Y0228078D01*
X0109803Y0228078D01*
X0110320Y0227561D01*
X0108252Y0227561D02*
X0108252Y0227043D01*
X0110320Y0224975D01*
X0108252Y0224975D01*
X0109045Y0218618D02*
X0109045Y0216550D01*
X0109045Y0217584D02*
X0112148Y0217584D01*
X0111114Y0216550D01*
X0111114Y0215488D02*
X0111631Y0215488D01*
X0112148Y0214971D01*
X0112148Y0213936D01*
X0111631Y0213419D01*
X0111114Y0215488D02*
X0109045Y0213419D01*
X0109045Y0215488D01*
X0109286Y0208078D02*
X0109286Y0204975D01*
X0110320Y0204975D02*
X0108252Y0204975D01*
X0107189Y0205492D02*
X0106672Y0204975D01*
X0105638Y0204975D01*
X0105121Y0205492D01*
X0105121Y0207561D01*
X0105638Y0208078D01*
X0106672Y0208078D01*
X0107189Y0207561D01*
X0107189Y0207043D01*
X0106672Y0206526D01*
X0105121Y0206526D01*
X0109286Y0208078D02*
X0110320Y0207043D01*
X0109286Y0198078D02*
X0109286Y0194975D01*
X0110320Y0194975D02*
X0108252Y0194975D01*
X0107189Y0195492D02*
X0107189Y0196009D01*
X0106672Y0196526D01*
X0105638Y0196526D01*
X0105121Y0196009D01*
X0105121Y0195492D01*
X0105638Y0194975D01*
X0106672Y0194975D01*
X0107189Y0195492D01*
X0106672Y0196526D02*
X0107189Y0197043D01*
X0107189Y0197561D01*
X0106672Y0198078D01*
X0105638Y0198078D01*
X0105121Y0197561D01*
X0105121Y0197043D01*
X0105638Y0196526D01*
X0109286Y0198078D02*
X0110320Y0197043D01*
X0110320Y0188078D02*
X0108252Y0188078D01*
X0108769Y0187043D02*
X0108252Y0186526D01*
X0108252Y0185492D01*
X0108769Y0184975D01*
X0109803Y0184975D01*
X0110320Y0185492D01*
X0110320Y0186526D02*
X0109286Y0187043D01*
X0108769Y0187043D01*
X0110320Y0186526D02*
X0110320Y0188078D01*
X0111631Y0178618D02*
X0109562Y0176550D01*
X0109045Y0176550D01*
X0109045Y0175488D02*
X0109045Y0173419D01*
X0109045Y0174454D02*
X0112148Y0174454D01*
X0111114Y0173419D01*
X0112148Y0176550D02*
X0112148Y0178618D01*
X0111631Y0178618D01*
X0112148Y0168618D02*
X0111631Y0167584D01*
X0110596Y0166550D01*
X0109562Y0166550D01*
X0109045Y0167067D01*
X0109045Y0168101D01*
X0109562Y0168618D01*
X0110079Y0168618D01*
X0110596Y0168101D01*
X0110596Y0166550D01*
X0109045Y0165488D02*
X0109045Y0163419D01*
X0109045Y0164454D02*
X0112148Y0164454D01*
X0111114Y0163419D01*
X0110596Y0158618D02*
X0109562Y0158618D01*
X0109045Y0158101D01*
X0109045Y0157067D01*
X0109562Y0156550D01*
X0110596Y0156550D02*
X0111114Y0157584D01*
X0111114Y0158101D01*
X0110596Y0158618D01*
X0110596Y0156550D02*
X0112148Y0156550D01*
X0112148Y0158618D01*
X0111114Y0155488D02*
X0109045Y0155488D01*
X0109045Y0153419D02*
X0111114Y0153419D01*
X0112148Y0154454D01*
X0111114Y0155488D01*
X0110596Y0155488D02*
X0110596Y0153419D01*
X0111114Y0147053D02*
X0111631Y0147053D01*
X0112148Y0146536D01*
X0112148Y0145502D01*
X0111631Y0144985D01*
X0111114Y0147053D02*
X0109045Y0144985D01*
X0109045Y0147053D01*
X0109562Y0138618D02*
X0109045Y0138101D01*
X0109045Y0137067D01*
X0109562Y0136550D01*
X0110596Y0136550D02*
X0111114Y0137584D01*
X0111114Y0138101D01*
X0110596Y0138618D01*
X0109562Y0138618D01*
X0110596Y0136550D02*
X0112148Y0136550D01*
X0112148Y0138618D01*
X0112148Y0134454D02*
X0111114Y0133419D01*
X0112148Y0134454D02*
X0109045Y0134454D01*
X0109045Y0135488D02*
X0109045Y0133419D01*
X0108510Y0127953D02*
X0106442Y0124850D01*
X0106442Y0127953D01*
X0105380Y0127953D02*
X0105380Y0124850D01*
X0103828Y0124850D01*
X0103311Y0125367D01*
X0103311Y0127436D01*
X0103828Y0127953D01*
X0105380Y0127953D01*
X0108510Y0127953D02*
X0108510Y0124850D01*
X0109573Y0125367D02*
X0109573Y0126401D01*
X0110607Y0126401D01*
X0111641Y0125367D02*
X0111641Y0127436D01*
X0111124Y0127953D01*
X0110090Y0127953D01*
X0109573Y0127436D01*
X0109573Y0125367D02*
X0110090Y0124850D01*
X0111124Y0124850D01*
X0111641Y0125367D01*
X0112148Y0120966D02*
X0110079Y0120966D01*
X0109045Y0119932D01*
X0110079Y0118898D01*
X0112148Y0118898D01*
X0111631Y0117836D02*
X0112148Y0117319D01*
X0112148Y0116284D01*
X0111631Y0115767D01*
X0110596Y0116802D02*
X0110596Y0117319D01*
X0110079Y0117836D01*
X0109562Y0117836D01*
X0109045Y0117319D01*
X0109045Y0116284D01*
X0109562Y0115767D01*
X0109562Y0114719D02*
X0109045Y0114719D01*
X0109045Y0114202D01*
X0109562Y0114202D01*
X0109562Y0114719D01*
X0109562Y0113140D02*
X0109045Y0112623D01*
X0109045Y0111588D01*
X0109562Y0111071D01*
X0110596Y0112106D02*
X0110596Y0112623D01*
X0110079Y0113140D01*
X0109562Y0113140D01*
X0110596Y0112623D02*
X0111114Y0113140D01*
X0111631Y0113140D01*
X0112148Y0112623D01*
X0112148Y0111588D01*
X0111631Y0111071D01*
X0112148Y0108618D02*
X0109045Y0106550D01*
X0109045Y0108618D02*
X0112148Y0106550D01*
X0112148Y0105488D02*
X0112148Y0103419D01*
X0112148Y0104454D02*
X0109045Y0104454D01*
X0109045Y0098618D02*
X0112148Y0096550D01*
X0111631Y0095488D02*
X0112148Y0094971D01*
X0112148Y0093419D01*
X0109045Y0093419D01*
X0110079Y0093419D02*
X0110079Y0094971D01*
X0110596Y0095488D01*
X0111631Y0095488D01*
X0110079Y0094454D02*
X0109045Y0095488D01*
X0109045Y0096550D02*
X0112148Y0098618D01*
X0110596Y0117319D02*
X0111114Y0117836D01*
X0111631Y0117836D01*
X0103542Y0184975D02*
X0104059Y0185492D01*
X0103542Y0184975D02*
X0102507Y0184975D01*
X0101990Y0185492D01*
X0101990Y0186009D01*
X0102507Y0186526D01*
X0103542Y0186526D01*
X0104059Y0187043D01*
X0104059Y0187561D01*
X0103542Y0188078D01*
X0102507Y0188078D01*
X0101990Y0187561D01*
X0100928Y0187561D02*
X0100928Y0185492D01*
X0100411Y0184975D01*
X0099377Y0184975D01*
X0098860Y0185492D01*
X0097797Y0184975D02*
X0097797Y0188078D01*
X0098860Y0187561D02*
X0099377Y0188078D01*
X0100411Y0188078D01*
X0100928Y0187561D01*
X0100928Y0194975D02*
X0100928Y0198078D01*
X0099894Y0197043D01*
X0098860Y0198078D01*
X0098860Y0194975D01*
X0097797Y0195492D02*
X0097280Y0194975D01*
X0096246Y0194975D01*
X0095729Y0195492D01*
X0095729Y0197561D01*
X0096246Y0198078D01*
X0097280Y0198078D01*
X0097797Y0197561D01*
X0097797Y0195492D01*
X0094667Y0195492D02*
X0094150Y0194975D01*
X0093115Y0194975D01*
X0092598Y0195492D01*
X0092598Y0196009D01*
X0093115Y0196526D01*
X0094150Y0196526D01*
X0094667Y0197043D01*
X0094667Y0197561D01*
X0094150Y0198078D01*
X0093115Y0198078D01*
X0092598Y0197561D01*
X0091536Y0198078D02*
X0090502Y0198078D01*
X0091019Y0198078D02*
X0091019Y0194975D01*
X0091536Y0194975D02*
X0090502Y0194975D01*
X0095729Y0188078D02*
X0097797Y0186009D01*
X0097280Y0186526D02*
X0095729Y0184975D01*
X0095193Y0204975D02*
X0095710Y0205492D01*
X0095193Y0204975D02*
X0094159Y0204975D01*
X0093642Y0205492D01*
X0093642Y0206009D01*
X0094159Y0206526D01*
X0095193Y0206526D01*
X0095710Y0207043D01*
X0095710Y0207561D01*
X0095193Y0208078D01*
X0094159Y0208078D01*
X0093642Y0207561D01*
X0092580Y0207561D02*
X0092580Y0205492D01*
X0092063Y0204975D01*
X0091028Y0204975D01*
X0090511Y0205492D01*
X0090511Y0207561D01*
X0091028Y0208078D01*
X0092063Y0208078D01*
X0092580Y0207561D01*
X0096763Y0208078D02*
X0097797Y0208078D01*
X0097280Y0208078D02*
X0097280Y0204975D01*
X0097797Y0204975D02*
X0096763Y0204975D01*
X0098860Y0204975D02*
X0098860Y0208078D01*
X0099894Y0207043D01*
X0100928Y0208078D01*
X0100928Y0204975D01*
X0105763Y0234975D02*
X0106797Y0234975D01*
X0107314Y0235492D01*
X0108377Y0234975D02*
X0110445Y0234975D01*
X0108377Y0237043D01*
X0108377Y0237561D01*
X0108894Y0238078D01*
X0109928Y0238078D01*
X0110445Y0237561D01*
X0107314Y0237561D02*
X0106797Y0238078D01*
X0105763Y0238078D01*
X0105246Y0237561D01*
X0105246Y0237043D01*
X0105763Y0236526D01*
X0105246Y0236009D01*
X0105246Y0235492D01*
X0105763Y0234975D01*
X0105763Y0236526D02*
X0106280Y0236526D01*
X0110495Y0246814D02*
X0115150Y0246814D01*
X0115393Y0246515D02*
X0110619Y0246515D01*
X0110742Y0246216D02*
X0115636Y0246216D01*
X0115880Y0245918D02*
X0110866Y0245918D01*
X0110990Y0245619D02*
X0112100Y0245619D01*
X0112232Y0245619D02*
X0116123Y0245619D01*
X0116332Y0245321D02*
X0112598Y0245321D01*
X0112965Y0245022D02*
X0116033Y0245022D01*
X0115735Y0244724D02*
X0113331Y0244724D01*
X0113697Y0244425D02*
X0115436Y0244425D01*
X0115138Y0244127D02*
X0114063Y0244127D01*
X0114429Y0243828D02*
X0114839Y0243828D01*
X0111520Y0245321D02*
X0111113Y0245321D01*
X0084218Y0243800D02*
X0081616Y0246402D01*
X0080351Y0246402D02*
X0080351Y0242499D01*
X0080351Y0246402D02*
X0078399Y0246402D01*
X0077749Y0245752D01*
X0077749Y0244451D01*
X0078393Y0250100D02*
X0080995Y0250100D01*
X0078393Y0252702D01*
X0078393Y0253353D01*
X0079044Y0254003D01*
X0080345Y0254003D01*
X0080995Y0253353D01*
X0080351Y0256400D02*
X0077749Y0259002D01*
X0077749Y0259653D01*
X0078399Y0260303D01*
X0079700Y0260303D01*
X0080351Y0259653D01*
X0081616Y0259653D02*
X0081616Y0259002D01*
X0082267Y0258352D01*
X0081616Y0257701D01*
X0081616Y0257051D01*
X0082267Y0256400D01*
X0083568Y0256400D01*
X0084218Y0257051D01*
X0082917Y0258352D02*
X0082267Y0258352D01*
X0081616Y0259653D02*
X0082267Y0260303D01*
X0083568Y0260303D01*
X0084218Y0259653D01*
X0080351Y0256400D02*
X0077749Y0256400D01*
X0076478Y0254003D02*
X0075177Y0254003D01*
X0074526Y0253353D01*
X0077128Y0250751D01*
X0076478Y0250100D01*
X0075177Y0250100D01*
X0074526Y0250751D01*
X0074526Y0253353D01*
X0073261Y0252702D02*
X0071960Y0254003D01*
X0071960Y0250100D01*
X0073261Y0250100D02*
X0070659Y0250100D01*
X0069394Y0250751D02*
X0069394Y0251401D01*
X0068743Y0252052D01*
X0067442Y0252052D01*
X0066791Y0251401D01*
X0066791Y0250751D01*
X0067442Y0250100D01*
X0068743Y0250100D01*
X0069394Y0250751D01*
X0068743Y0252052D02*
X0069394Y0252702D01*
X0069394Y0253353D01*
X0068743Y0254003D01*
X0067442Y0254003D01*
X0066791Y0253353D01*
X0066791Y0252702D01*
X0067442Y0252052D01*
X0065526Y0252052D02*
X0062924Y0252052D01*
X0061659Y0252052D02*
X0059057Y0252052D01*
X0059707Y0254003D02*
X0059707Y0250100D01*
X0061659Y0252052D02*
X0059707Y0254003D01*
X0057147Y0256400D02*
X0057147Y0260303D01*
X0055195Y0260303D01*
X0054545Y0259653D01*
X0054545Y0259002D01*
X0055195Y0258352D01*
X0057147Y0258352D01*
X0055195Y0258352D02*
X0054545Y0257701D01*
X0054545Y0257051D01*
X0055195Y0256400D01*
X0057147Y0256400D01*
X0053280Y0257051D02*
X0052629Y0256400D01*
X0051328Y0256400D01*
X0050678Y0257051D01*
X0050678Y0258352D01*
X0051328Y0259002D01*
X0052629Y0259002D01*
X0053280Y0258352D01*
X0053280Y0257051D01*
X0049413Y0257051D02*
X0048762Y0257701D01*
X0046810Y0257701D01*
X0046810Y0258352D02*
X0046810Y0256400D01*
X0048762Y0256400D01*
X0049413Y0257051D01*
X0048762Y0259002D02*
X0047461Y0259002D01*
X0046810Y0258352D01*
X0045545Y0259002D02*
X0045545Y0256400D01*
X0045545Y0257701D02*
X0044244Y0259002D01*
X0043594Y0259002D01*
X0042323Y0258352D02*
X0041672Y0259002D01*
X0039720Y0259002D01*
X0039720Y0260303D02*
X0039720Y0256400D01*
X0041672Y0256400D01*
X0042323Y0257051D01*
X0042323Y0258352D01*
X0043612Y0246402D02*
X0043612Y0243800D01*
X0033745Y0231096D02*
X0033745Y0221704D01*
X0033148Y0229150D02*
X0030045Y0229150D01*
X0063581Y0256400D02*
X0062280Y0259002D01*
X0064882Y0259002D02*
X0063581Y0256400D01*
X0066147Y0257701D02*
X0068749Y0257701D01*
X0068749Y0257051D02*
X0068749Y0258352D01*
X0068098Y0259002D01*
X0066797Y0259002D01*
X0066147Y0258352D01*
X0066147Y0257701D01*
X0066797Y0256400D02*
X0068098Y0256400D01*
X0068749Y0257051D01*
X0070014Y0257051D02*
X0070014Y0259653D01*
X0070665Y0260303D01*
X0072616Y0260303D01*
X0072616Y0256400D01*
X0070665Y0256400D01*
X0070014Y0257051D01*
X0076478Y0254003D02*
X0077128Y0253353D01*
X0077128Y0250751D01*
D11*
X0031095Y0111525D02*
X0026095Y0111525D01*
X0031095Y0111525D02*
X0031095Y0091275D01*
X0026095Y0091275D01*
D12*
X0026977Y0049182D02*
X0029579Y0049182D01*
X0030880Y0047881D01*
X0030880Y0042676D01*
X0029579Y0041375D01*
X0026977Y0041375D01*
X0025676Y0042676D01*
X0025676Y0047881D02*
X0026977Y0049182D01*
X0033502Y0047881D02*
X0033502Y0042676D01*
X0034803Y0041375D01*
X0038707Y0041375D01*
X0038707Y0049182D01*
X0034803Y0049182D01*
X0033502Y0047881D01*
X0049156Y0049182D02*
X0049156Y0043977D01*
X0051758Y0041375D01*
X0054360Y0043977D01*
X0054360Y0049182D01*
X0056982Y0049182D02*
X0062187Y0049182D01*
X0062187Y0045278D01*
X0059585Y0046579D01*
X0058284Y0046579D01*
X0056982Y0045278D01*
X0056982Y0042676D01*
X0058284Y0041375D01*
X0060886Y0041375D01*
X0062187Y0042676D01*
X0080968Y0085716D02*
X0079163Y0087521D01*
X0081570Y0089927D01*
X0080199Y0091297D02*
X0078395Y0093102D01*
X0077192Y0093102D01*
X0075387Y0091297D01*
X0074618Y0093269D02*
X0073415Y0093269D01*
X0072212Y0094472D01*
X0072814Y0096277D02*
X0075220Y0093870D01*
X0074618Y0093269D02*
X0075822Y0094472D01*
X0075822Y0095675D01*
X0074618Y0096878D01*
X0073415Y0096878D01*
X0072814Y0096277D01*
X0072647Y0098850D02*
X0067834Y0098850D01*
X0066464Y0100220D02*
X0064660Y0102025D01*
X0064660Y0103228D01*
X0065863Y0104431D01*
X0067066Y0104431D01*
X0068870Y0102626D01*
X0065261Y0099017D01*
X0063289Y0104598D02*
X0062086Y0104598D01*
X0060883Y0105801D01*
X0061485Y0107606D02*
X0063891Y0105199D01*
X0063289Y0104598D02*
X0064493Y0105801D01*
X0064493Y0107004D01*
X0063289Y0108207D01*
X0062086Y0108207D01*
X0061485Y0107606D01*
X0060716Y0109577D02*
X0059513Y0108374D01*
X0058310Y0108374D01*
X0056505Y0110179D01*
X0055135Y0112752D02*
X0053932Y0112752D01*
X0055135Y0112752D02*
X0057541Y0115158D01*
X0057541Y0113955D02*
X0056338Y0115158D01*
X0057758Y0119836D02*
X0061367Y0123445D01*
X0059562Y0122844D02*
X0058359Y0124047D01*
X0057156Y0124047D01*
X0055351Y0122242D01*
X0053981Y0123612D02*
X0052778Y0124815D01*
X0053380Y0124214D02*
X0055786Y0126620D01*
X0056387Y0126018D01*
X0056989Y0127823D02*
X0057591Y0128425D01*
X0059562Y0122844D02*
X0059562Y0121641D01*
X0061478Y0120928D02*
X0062681Y0119725D01*
X0062681Y0120928D02*
X0060275Y0118521D01*
X0059072Y0118521D01*
X0062848Y0117151D02*
X0065255Y0114745D01*
X0064653Y0114144D02*
X0065856Y0115347D01*
X0065856Y0116550D01*
X0064653Y0117753D01*
X0063450Y0117753D01*
X0062848Y0117151D01*
X0062247Y0115347D02*
X0063450Y0114144D01*
X0064653Y0114144D01*
X0065422Y0112172D02*
X0067226Y0113977D01*
X0068429Y0113977D01*
X0068429Y0112773D01*
X0066625Y0110969D01*
X0067828Y0109766D02*
X0070234Y0112172D01*
X0069633Y0112773D01*
X0068429Y0112773D01*
X0071003Y0110200D02*
X0069800Y0108997D01*
X0069800Y0107794D01*
X0071003Y0106591D01*
X0072206Y0106591D01*
X0073409Y0107794D01*
X0073409Y0108997D01*
X0072206Y0110200D01*
X0071003Y0110200D01*
X0073576Y0105221D02*
X0074779Y0105221D01*
X0075982Y0104018D01*
X0077185Y0104018D01*
X0077185Y0105221D01*
X0075381Y0107025D01*
X0073576Y0105221D02*
X0073576Y0104018D01*
X0075381Y0102213D01*
X0070241Y0101256D02*
X0070241Y0096444D01*
X0077793Y0088891D02*
X0080199Y0091297D01*
X0082332Y0095262D02*
X0081129Y0096465D01*
X0082332Y0095262D02*
X0083535Y0095262D01*
X0084738Y0096465D01*
X0084738Y0097668D01*
X0083535Y0098871D01*
X0082332Y0098871D01*
X0081730Y0098270D01*
X0084136Y0095863D01*
X0084276Y0093318D02*
X0087283Y0092716D01*
X0086682Y0095724D01*
X0089689Y0095123D02*
X0086080Y0091513D01*
X0087450Y0090143D02*
X0089255Y0088339D01*
X0090458Y0088339D01*
X0090458Y0089542D01*
X0088653Y0091346D01*
X0089255Y0091948D02*
X0087450Y0090143D01*
X0089255Y0091948D02*
X0090458Y0091948D01*
X0091661Y0090745D01*
X0093031Y0088172D02*
X0091227Y0086367D01*
X0092430Y0085164D02*
X0094234Y0086968D01*
X0094234Y0088172D01*
X0093031Y0088172D01*
X0094234Y0086968D02*
X0095437Y0086968D01*
X0096039Y0086367D01*
X0093633Y0083961D01*
X0083976Y0087521D02*
X0082171Y0085716D01*
X0080968Y0085716D01*
X0060716Y0109577D02*
X0060716Y0110780D01*
X0058912Y0112585D01*
X0054422Y0115871D02*
X0053219Y0114668D01*
X0052016Y0114668D01*
X0050813Y0115871D01*
X0051415Y0117676D02*
X0053821Y0115270D01*
X0054422Y0115871D02*
X0054422Y0117074D01*
X0053219Y0118277D01*
X0052016Y0118277D01*
X0051415Y0117676D01*
X0049443Y0118445D02*
X0050646Y0119648D01*
X0050646Y0120851D01*
X0048841Y0122655D01*
X0050044Y0123859D02*
X0046435Y0120249D01*
X0048240Y0118445D01*
X0049443Y0118445D01*
X0051464Y0126130D02*
X0053870Y0128536D01*
X0052065Y0130341D01*
X0050862Y0130341D01*
X0049057Y0128536D01*
X0048289Y0130508D02*
X0047086Y0130508D01*
X0045281Y0132312D01*
X0044680Y0131711D02*
X0047687Y0134719D01*
X0049492Y0132914D01*
X0049492Y0131711D01*
X0048289Y0130508D01*
X0045281Y0129906D02*
X0044680Y0130508D01*
X0044680Y0131711D01*
D13*
X0067624Y0182691D02*
X0071045Y0183706D01*
X0071709Y0185459D01*
X0071709Y0185490D01*
X0071747Y0185493D01*
X0071905Y0185512D01*
X0072047Y0185535D01*
X0072078Y0185539D01*
X0072915Y0184672D01*
X0072337Y0182746D01*
X0075394Y0184604D01*
X0075603Y0186468D01*
X0075597Y0186486D01*
X0075635Y0186502D01*
X0076009Y0186660D01*
X0076046Y0186677D01*
X0077067Y0186062D01*
X0077012Y0184050D01*
X0079473Y0186647D01*
X0079183Y0188504D01*
X0079177Y0188516D01*
X0079203Y0188535D01*
X0079458Y0188737D01*
X0079485Y0188756D01*
X0080611Y0188431D01*
X0081072Y0186468D01*
X0082782Y0189605D01*
X0082038Y0191303D01*
X0082065Y0191337D01*
X0082331Y0191686D01*
X0082357Y0191722D01*
X0083508Y0191703D01*
X0084467Y0189931D01*
X0085298Y0193413D01*
X0084141Y0194840D01*
X0084153Y0194868D01*
X0084266Y0195141D01*
X0084277Y0195167D01*
X0085359Y0195431D01*
X0086737Y0193961D01*
X0086663Y0197541D01*
X0085212Y0198617D01*
X0085219Y0198667D01*
X0085281Y0199153D01*
X0085286Y0199202D01*
X0086239Y0199731D01*
X0087949Y0198673D01*
X0086934Y0202105D01*
X0085273Y0202745D01*
X0085268Y0202787D01*
X0085213Y0203196D01*
X0085206Y0203237D01*
X0085968Y0203963D01*
X0087894Y0203385D01*
X0086036Y0206448D01*
X0084301Y0206651D01*
X0084281Y0206701D01*
X0084077Y0207197D01*
X0084055Y0207248D01*
X0084578Y0208122D01*
X0086590Y0208066D01*
X0083987Y0210533D01*
X0082284Y0210275D01*
X0082256Y0210312D01*
X0081974Y0210670D01*
X0081945Y0210705D01*
X0082222Y0211659D01*
X0084178Y0212126D01*
X0081041Y0213837D01*
X0079473Y0213160D01*
X0079428Y0213195D01*
X0078965Y0213544D01*
X0078919Y0213578D01*
X0078931Y0214550D01*
X0080696Y0215516D01*
X0077209Y0216346D01*
X0075898Y0215288D01*
X0075858Y0215305D01*
X0075464Y0215464D01*
X0075425Y0215479D01*
X0075203Y0216402D01*
X0076674Y0217780D01*
X0073093Y0217706D01*
X0072091Y0216359D01*
X0072030Y0216366D01*
X0071437Y0216445D01*
X0071377Y0216451D01*
X0070922Y0217281D01*
X0071974Y0218991D01*
X0068541Y0217976D01*
X0067926Y0216414D01*
X0067876Y0216408D01*
X0067384Y0216340D01*
X0067335Y0216334D01*
X0066683Y0217017D01*
X0067262Y0218942D01*
X0064198Y0217078D01*
X0064001Y0215411D01*
X0063946Y0215388D01*
X0063397Y0215155D01*
X0063343Y0215128D01*
X0062525Y0215621D01*
X0062580Y0217632D01*
X0060113Y0215030D01*
X0060372Y0213344D01*
X0060333Y0213315D01*
X0059960Y0213023D01*
X0059923Y0212994D01*
X0058988Y0213264D01*
X0058520Y0215227D01*
X0056804Y0212083D01*
X0057487Y0210502D01*
X0057453Y0210458D01*
X0057119Y0210013D01*
X0057087Y0209967D01*
X0056090Y0209979D01*
X0055118Y0211745D01*
X0054288Y0208257D01*
X0055383Y0206891D01*
X0055369Y0206858D01*
X0055235Y0206519D01*
X0055223Y0206485D01*
X0054226Y0206245D01*
X0052848Y0207716D01*
X0052922Y0204135D01*
X0054349Y0203071D01*
X0054342Y0203022D01*
X0054280Y0202524D01*
X0054275Y0202474D01*
X0053359Y0201958D01*
X0051649Y0203003D01*
X0052664Y0199565D01*
X0054349Y0198900D01*
X0054354Y0198864D01*
X0054405Y0198505D01*
X0054411Y0198470D01*
X0053623Y0197707D01*
X0051698Y0198291D01*
X0053556Y0195234D01*
X0055377Y0195031D01*
X0055395Y0194988D01*
X0055578Y0194562D01*
X0055598Y0194521D01*
X0055020Y0193561D01*
X0053002Y0193616D01*
X0055598Y0191155D01*
X0057443Y0191445D01*
X0057463Y0191419D01*
X0057674Y0191151D01*
X0057696Y0191125D01*
X0057376Y0190017D01*
X0055413Y0189556D01*
X0058551Y0187846D01*
X0060267Y0188603D01*
X0060273Y0188609D01*
X0060307Y0188584D01*
X0060639Y0188332D01*
X0060673Y0188308D01*
X0060655Y0187132D01*
X0058883Y0186173D01*
X0062365Y0185342D01*
X0063823Y0186530D01*
X0063835Y0186542D01*
X0063858Y0186533D01*
X0064083Y0186441D01*
X0064106Y0186431D01*
X0064389Y0185275D01*
X0062918Y0183897D01*
X0066499Y0183971D01*
X0067612Y0185484D01*
X0067624Y0185515D01*
X0067664Y0185509D01*
X0068064Y0185458D01*
X0068104Y0185453D01*
X0068683Y0184401D01*
X0067624Y0182691D01*
X0069580Y0196538D02*
X0068915Y0196628D01*
X0068089Y0196885D01*
X0067340Y0197291D01*
X0066688Y0197829D01*
X0066150Y0198481D01*
X0065744Y0199229D01*
X0065487Y0200056D01*
X0065398Y0200721D01*
X0065398Y0201165D01*
X0065487Y0201830D01*
X0065744Y0202656D01*
X0066150Y0203404D01*
X0066688Y0204056D01*
X0067340Y0204594D01*
X0068089Y0205001D01*
X0068915Y0205258D01*
X0069580Y0205347D01*
X0070024Y0205347D01*
X0070689Y0205258D01*
X0071515Y0205002D01*
X0072263Y0204596D01*
X0072915Y0204059D01*
X0073454Y0203407D01*
X0073860Y0202659D01*
X0074117Y0201831D01*
X0074206Y0201165D01*
X0074206Y0200721D01*
X0074117Y0200056D01*
X0073860Y0199229D01*
X0073454Y0198481D01*
X0072915Y0197829D01*
X0072263Y0197291D01*
X0071515Y0196885D01*
X0070689Y0196628D01*
X0070024Y0196538D01*
X0069580Y0196538D01*
M02*
