G75*
%MOIN*%
%OFA0B0*%
%FSLAX25Y25*%
%IPPOS*%
%LPD*%
%AMOC8*
5,1,8,0,0,1.08239X$1,22.5*
%
%ADD10R,0.05682X0.06706*%
%ADD11R,0.02965X0.05524*%
%ADD12R,0.05524X0.05524*%
%ADD13R,0.06706X0.05682*%
%ADD14R,0.06706X0.04343*%
%ADD15R,0.04343X0.06706*%
%ADD16R,0.24422X0.24422*%
%ADD17R,0.05524X0.05918*%
%ADD18R,0.04737X0.04737*%
%ADD19R,0.06312X0.06312*%
%ADD20C,0.07400*%
%ADD21R,0.03398X0.01981*%
%ADD22C,0.08477*%
%ADD23R,0.07887X0.07099*%
%ADD24R,0.06509X0.02375*%
%ADD25C,0.04146*%
%ADD26R,0.06693X0.07874*%
%ADD27R,0.06693X0.10630*%
%ADD28R,0.03300X0.06800*%
D10*
X0051230Y0092900D03*
X0051230Y0101400D03*
X0051230Y0110400D03*
X0058710Y0110400D03*
X0058710Y0101400D03*
X0058710Y0092900D03*
X0068955Y0110400D03*
X0076435Y0110400D03*
X0079255Y0083209D03*
X0079255Y0075192D03*
X0079255Y0067400D03*
X0086735Y0067400D03*
X0086735Y0075192D03*
X0086735Y0083209D03*
X0094855Y0095400D03*
X0102335Y0095400D03*
X0102335Y0115400D03*
X0094855Y0115400D03*
X0061585Y0125650D03*
X0054105Y0125650D03*
D11*
X0068955Y0102119D03*
X0072695Y0102119D03*
X0076435Y0102119D03*
X0076435Y0091881D03*
X0068955Y0091881D03*
D12*
X0078861Y0060275D03*
X0087129Y0060275D03*
X0038795Y0133616D03*
X0038795Y0141884D03*
D13*
X0045895Y0141540D03*
X0045895Y0134060D03*
X0069045Y0138660D03*
X0069045Y0146140D03*
X0094345Y0146140D03*
X0094345Y0138660D03*
X0115345Y0082390D03*
X0115345Y0074910D03*
X0115595Y0060890D03*
X0115595Y0053410D03*
X0068795Y0043890D03*
X0068795Y0036410D03*
X0068595Y0021390D03*
X0068595Y0013910D03*
X0028595Y0243660D03*
X0028595Y0251140D03*
D14*
X0037237Y0231585D03*
X0037237Y0226585D03*
X0037237Y0221585D03*
X0037237Y0216585D03*
X0037237Y0211585D03*
X0037237Y0206585D03*
X0037237Y0201585D03*
X0037237Y0196585D03*
X0037237Y0191585D03*
X0037237Y0186585D03*
X0037237Y0181585D03*
X0037237Y0176585D03*
X0037237Y0171585D03*
X0037237Y0166585D03*
X0104953Y0166585D03*
X0104953Y0171585D03*
X0104953Y0176585D03*
X0104953Y0181585D03*
X0104953Y0186585D03*
X0104953Y0191585D03*
X0104953Y0196585D03*
X0104953Y0201585D03*
X0104953Y0206585D03*
X0104953Y0211585D03*
X0104953Y0216585D03*
X0104953Y0221585D03*
X0104953Y0226585D03*
X0104953Y0231585D03*
D15*
X0093654Y0161113D03*
X0088654Y0161113D03*
X0083654Y0161113D03*
X0078654Y0161113D03*
X0073654Y0161113D03*
X0068654Y0161113D03*
X0063654Y0161113D03*
X0058654Y0161113D03*
X0053654Y0161113D03*
X0048654Y0161113D03*
D16*
X0072434Y0201270D03*
D17*
X0078870Y0051950D03*
X0086870Y0051950D03*
D18*
X0086495Y0133026D03*
X0080196Y0133026D03*
X0080196Y0148774D03*
X0086495Y0148774D03*
X0061195Y0149024D03*
X0054896Y0149024D03*
X0054896Y0133276D03*
X0061195Y0133276D03*
D19*
X0060445Y0083183D03*
X0060445Y0068617D03*
X0051570Y0068617D03*
X0051570Y0083183D03*
D20*
X0026095Y0096400D03*
X0026095Y0106400D03*
X0026095Y0116400D03*
X0026095Y0126400D03*
X0026095Y0136400D03*
X0026095Y0146400D03*
X0026095Y0156400D03*
X0026095Y0166400D03*
X0026095Y0176400D03*
X0026095Y0186400D03*
X0026095Y0196400D03*
X0026095Y0206400D03*
X0026095Y0216400D03*
X0026095Y0226400D03*
X0026095Y0236400D03*
X0116095Y0236400D03*
X0116095Y0226400D03*
X0116095Y0216400D03*
X0116095Y0206400D03*
X0116095Y0196400D03*
X0116095Y0186400D03*
X0116095Y0176400D03*
X0116095Y0166400D03*
X0116095Y0156400D03*
X0116095Y0146400D03*
X0116095Y0136400D03*
X0116095Y0126400D03*
X0116095Y0116400D03*
X0116095Y0106400D03*
X0116095Y0096400D03*
D21*
X0102217Y0102841D03*
X0102217Y0105400D03*
X0102217Y0107959D03*
X0094973Y0107959D03*
X0094973Y0105400D03*
X0094973Y0102841D03*
D22*
X0059032Y0033400D03*
X0047221Y0014502D03*
X0036198Y0033400D03*
D23*
X0041395Y0106288D03*
X0041395Y0117312D03*
D24*
X0040423Y0076018D03*
X0040423Y0073459D03*
X0040423Y0070900D03*
X0040423Y0068341D03*
X0040423Y0065782D03*
D25*
X0038357Y0063420D03*
X0038357Y0078380D03*
D26*
X0029695Y0056396D03*
X0029695Y0085404D03*
D27*
X0029695Y0070900D03*
D28*
X0076095Y0039510D03*
X0081095Y0039510D03*
X0086095Y0039510D03*
X0091095Y0039510D03*
X0096095Y0039510D03*
X0101095Y0039510D03*
X0106095Y0039510D03*
X0111095Y0039510D03*
X0111095Y0018290D03*
X0106095Y0018290D03*
X0101095Y0018290D03*
X0096095Y0018290D03*
X0091095Y0018290D03*
X0086095Y0018290D03*
X0081095Y0018290D03*
X0076095Y0018290D03*
M02*
