G75*
%MOIN*%
%OFA0B0*%
%FSLAX25Y25*%
%IPPOS*%
%LPD*%
%AMOC8*
5,1,8,0,0,1.08239X$1,22.5*
%
%ADD10C,0.00400*%
%ADD11C,0.00600*%
%ADD12C,0.00800*%
%ADD13C,0.00500*%
%ADD14C,0.00700*%
%ADD15C,0.00300*%
%ADD16C,0.01200*%
%ADD17R,0.03500X0.00750*%
%ADD18C,0.00200*%
%ADD19R,0.00750X0.03500*%
%ADD20R,0.03937X0.00787*%
%ADD21C,0.02000*%
D10*
X0032660Y0092180D02*
X0032193Y0092647D01*
X0032193Y0093581D01*
X0032660Y0094048D01*
X0033594Y0094048D02*
X0033594Y0093114D01*
X0033594Y0094048D02*
X0034528Y0094048D01*
X0034995Y0093581D01*
X0034995Y0092647D01*
X0034528Y0092180D01*
X0032660Y0092180D01*
X0032193Y0095127D02*
X0034995Y0096995D01*
X0032193Y0096995D01*
X0032193Y0098073D02*
X0032193Y0099474D01*
X0032660Y0099942D01*
X0034528Y0099942D01*
X0034995Y0099474D01*
X0034995Y0098073D01*
X0032193Y0098073D01*
X0032193Y0095127D02*
X0034995Y0095127D01*
X0034661Y0103285D02*
X0035195Y0103819D01*
X0035195Y0104887D01*
X0034661Y0105420D01*
X0033594Y0105420D01*
X0033060Y0104887D01*
X0033060Y0104353D01*
X0033594Y0103285D01*
X0031992Y0103285D01*
X0031992Y0105420D01*
X0031992Y0106600D02*
X0034128Y0106600D01*
X0035195Y0107668D01*
X0034128Y0108735D01*
X0031992Y0108735D01*
X0031093Y0113469D02*
X0030093Y0114470D01*
X0033095Y0114470D01*
X0033095Y0113469D02*
X0033095Y0115471D01*
X0032595Y0116600D02*
X0033095Y0117100D01*
X0033095Y0118101D01*
X0032595Y0118602D01*
X0032094Y0118602D01*
X0031594Y0118101D01*
X0031594Y0117601D01*
X0031594Y0118101D02*
X0031093Y0118602D01*
X0030593Y0118602D01*
X0030093Y0118101D01*
X0030093Y0117100D01*
X0030593Y0116600D01*
X0031093Y0123469D02*
X0030093Y0124470D01*
X0033095Y0124470D01*
X0033095Y0123469D02*
X0033095Y0125471D01*
X0033095Y0126600D02*
X0031093Y0128602D01*
X0030593Y0128602D01*
X0030093Y0128101D01*
X0030093Y0127100D01*
X0030593Y0126600D01*
X0033095Y0126600D02*
X0033095Y0128602D01*
X0033095Y0133469D02*
X0033095Y0135471D01*
X0033095Y0134470D02*
X0030093Y0134470D01*
X0031093Y0133469D01*
X0031594Y0136600D02*
X0031594Y0138602D01*
X0033095Y0138101D02*
X0030093Y0138101D01*
X0031594Y0136600D01*
X0030593Y0143469D02*
X0030093Y0143970D01*
X0030093Y0144971D01*
X0030593Y0145471D01*
X0031093Y0145471D01*
X0033095Y0143469D01*
X0033095Y0145471D01*
X0033095Y0146600D02*
X0032595Y0146600D01*
X0030593Y0148602D01*
X0030093Y0148602D01*
X0030093Y0146600D01*
X0030593Y0153469D02*
X0030093Y0153970D01*
X0030093Y0154971D01*
X0030593Y0155471D01*
X0031093Y0155471D01*
X0031594Y0154971D01*
X0032094Y0155471D01*
X0032595Y0155471D01*
X0033095Y0154971D01*
X0033095Y0153970D01*
X0032595Y0153469D01*
X0031594Y0154470D02*
X0031594Y0154971D01*
X0032595Y0156600D02*
X0033095Y0157100D01*
X0033095Y0158101D01*
X0032595Y0158602D01*
X0032094Y0158602D01*
X0031594Y0158101D01*
X0031594Y0157601D01*
X0031594Y0158101D02*
X0031093Y0158602D01*
X0030593Y0158602D01*
X0030093Y0158101D01*
X0030093Y0157100D01*
X0030593Y0156600D01*
X0030593Y0163469D02*
X0030093Y0163970D01*
X0030093Y0164971D01*
X0030593Y0165471D01*
X0031093Y0165471D01*
X0031594Y0164971D01*
X0032094Y0165471D01*
X0032595Y0165471D01*
X0033095Y0164971D01*
X0033095Y0163970D01*
X0032595Y0163469D01*
X0031594Y0164470D02*
X0031594Y0164971D01*
X0030593Y0166600D02*
X0030093Y0167100D01*
X0030093Y0168101D01*
X0030593Y0168602D01*
X0031093Y0168602D01*
X0033095Y0166600D01*
X0033095Y0168602D01*
X0033095Y0173469D02*
X0031093Y0173469D01*
X0030093Y0174470D01*
X0031093Y0175471D01*
X0033095Y0175471D01*
X0032595Y0176600D02*
X0030593Y0178602D01*
X0032595Y0178602D01*
X0033095Y0178101D01*
X0033095Y0177100D01*
X0032595Y0176600D01*
X0030593Y0176600D01*
X0030093Y0177100D01*
X0030093Y0178101D01*
X0030593Y0178602D01*
X0031594Y0175471D02*
X0031594Y0173469D01*
X0031594Y0183469D02*
X0031594Y0185471D01*
X0031093Y0185471D02*
X0033095Y0185471D01*
X0033095Y0186600D02*
X0033095Y0188602D01*
X0033095Y0187601D02*
X0030093Y0187601D01*
X0031093Y0186600D01*
X0031093Y0185471D02*
X0030093Y0184470D01*
X0031093Y0183469D01*
X0033095Y0183469D01*
X0033095Y0193469D02*
X0031093Y0193469D01*
X0030093Y0194470D01*
X0031093Y0195471D01*
X0033095Y0195471D01*
X0033095Y0196600D02*
X0031093Y0198602D01*
X0030593Y0198602D01*
X0030093Y0198101D01*
X0030093Y0197100D01*
X0030593Y0196600D01*
X0031594Y0195471D02*
X0031594Y0193469D01*
X0033095Y0196600D02*
X0033095Y0198602D01*
X0033095Y0203469D02*
X0031093Y0203469D01*
X0030093Y0204470D01*
X0031093Y0205471D01*
X0033095Y0205471D01*
X0032595Y0206600D02*
X0033095Y0207100D01*
X0033095Y0208101D01*
X0032595Y0208602D01*
X0032094Y0208602D01*
X0031594Y0208101D01*
X0031594Y0207601D01*
X0031594Y0208101D02*
X0031093Y0208602D01*
X0030593Y0208602D01*
X0030093Y0208101D01*
X0030093Y0207100D01*
X0030593Y0206600D01*
X0031594Y0205471D02*
X0031594Y0203469D01*
X0031594Y0213469D02*
X0031594Y0215471D01*
X0031093Y0215471D02*
X0033095Y0215471D01*
X0031594Y0216600D02*
X0031594Y0218602D01*
X0033095Y0218101D02*
X0030093Y0218101D01*
X0031594Y0216600D01*
X0031093Y0215471D02*
X0030093Y0214470D01*
X0031093Y0213469D01*
X0033095Y0213469D01*
X0033395Y0221904D02*
X0030393Y0221904D01*
X0030393Y0223405D01*
X0030893Y0223906D01*
X0031894Y0223906D01*
X0032394Y0223405D01*
X0032394Y0221904D01*
X0032394Y0222905D02*
X0033395Y0223906D01*
X0032895Y0225035D02*
X0033395Y0225535D01*
X0033395Y0226536D01*
X0032895Y0227036D01*
X0032394Y0227036D01*
X0031894Y0226536D01*
X0031894Y0225535D01*
X0031393Y0225035D01*
X0030893Y0225035D01*
X0030393Y0225535D01*
X0030393Y0226536D01*
X0030893Y0227036D01*
X0030393Y0228165D02*
X0030393Y0230167D01*
X0030593Y0231121D02*
X0030093Y0231622D01*
X0030093Y0232623D01*
X0030593Y0233123D01*
X0031093Y0233123D01*
X0031594Y0232623D01*
X0032094Y0233123D01*
X0032595Y0233123D01*
X0033095Y0232623D01*
X0033095Y0231622D01*
X0032595Y0231121D01*
X0031594Y0232122D02*
X0031594Y0232623D01*
X0032595Y0234252D02*
X0032595Y0234752D01*
X0033095Y0234752D01*
X0033095Y0234252D01*
X0032595Y0234252D01*
X0032595Y0235817D02*
X0033095Y0236318D01*
X0033095Y0237319D01*
X0032595Y0237819D01*
X0032094Y0237819D01*
X0031594Y0237319D01*
X0031594Y0236818D01*
X0031594Y0237319D02*
X0031093Y0237819D01*
X0030593Y0237819D01*
X0030093Y0237319D01*
X0030093Y0236318D01*
X0030593Y0235817D01*
X0030093Y0238948D02*
X0032094Y0238948D01*
X0033095Y0239949D01*
X0032094Y0240950D01*
X0030093Y0240950D01*
X0029595Y0231096D02*
X0029595Y0221704D01*
X0030393Y0229166D02*
X0033395Y0229166D01*
X0103100Y0127903D02*
X0102599Y0127402D01*
X0102599Y0125400D01*
X0103100Y0124900D01*
X0104100Y0124900D01*
X0104601Y0125400D01*
X0104601Y0126401D01*
X0103600Y0126401D01*
X0104601Y0127402D02*
X0104100Y0127903D01*
X0103100Y0127903D01*
X0105730Y0127903D02*
X0105730Y0124900D01*
X0107732Y0124900D02*
X0105730Y0127903D01*
X0107732Y0127903D02*
X0107732Y0124900D01*
X0108860Y0124900D02*
X0108860Y0127903D01*
X0110362Y0127903D01*
X0110862Y0127402D01*
X0110862Y0125400D01*
X0110362Y0124900D01*
X0108860Y0124900D01*
X0109093Y0120950D02*
X0111094Y0120950D01*
X0112095Y0119949D01*
X0111094Y0118948D01*
X0109093Y0118948D01*
X0109593Y0117819D02*
X0109093Y0117319D01*
X0109093Y0116318D01*
X0109593Y0115817D01*
X0110594Y0116818D02*
X0110594Y0117319D01*
X0111094Y0117819D01*
X0111595Y0117819D01*
X0112095Y0117319D01*
X0112095Y0116318D01*
X0111595Y0115817D01*
X0111595Y0114752D02*
X0112095Y0114752D01*
X0112095Y0114252D01*
X0111595Y0114252D01*
X0111595Y0114752D01*
X0111595Y0113123D02*
X0112095Y0112623D01*
X0112095Y0111622D01*
X0111595Y0111121D01*
X0110594Y0112122D02*
X0110594Y0112623D01*
X0111094Y0113123D01*
X0111595Y0113123D01*
X0110594Y0112623D02*
X0110093Y0113123D01*
X0109593Y0113123D01*
X0109093Y0112623D01*
X0109093Y0111622D01*
X0109593Y0111121D01*
X0109093Y0108602D02*
X0112095Y0106600D01*
X0112095Y0108602D02*
X0109093Y0106600D01*
X0109093Y0105471D02*
X0109093Y0103469D01*
X0109093Y0104470D02*
X0112095Y0104470D01*
X0112095Y0098602D02*
X0109093Y0096600D01*
X0109593Y0095471D02*
X0109093Y0094971D01*
X0109093Y0093469D01*
X0112095Y0093469D01*
X0111094Y0093469D02*
X0111094Y0094971D01*
X0110594Y0095471D01*
X0109593Y0095471D01*
X0111094Y0094470D02*
X0112095Y0095471D01*
X0112095Y0096600D02*
X0109093Y0098602D01*
X0110594Y0117319D02*
X0110093Y0117819D01*
X0109593Y0117819D01*
X0110093Y0133469D02*
X0109093Y0134470D01*
X0112095Y0134470D01*
X0112095Y0133469D02*
X0112095Y0135471D01*
X0111595Y0136600D02*
X0112095Y0137100D01*
X0112095Y0138101D01*
X0111595Y0138602D01*
X0110594Y0138602D01*
X0110093Y0138101D01*
X0110093Y0137601D01*
X0110594Y0136600D01*
X0109093Y0136600D01*
X0109093Y0138602D01*
X0109593Y0145035D02*
X0109093Y0145535D01*
X0109093Y0146536D01*
X0109593Y0147036D01*
X0110093Y0147036D01*
X0112095Y0145035D01*
X0112095Y0147036D01*
X0112095Y0153469D02*
X0110093Y0153469D01*
X0109093Y0154470D01*
X0110093Y0155471D01*
X0112095Y0155471D01*
X0111595Y0156600D02*
X0112095Y0157100D01*
X0112095Y0158101D01*
X0111595Y0158602D01*
X0110594Y0158602D01*
X0110093Y0158101D01*
X0110093Y0157601D01*
X0110594Y0156600D01*
X0109093Y0156600D01*
X0109093Y0158602D01*
X0110594Y0155471D02*
X0110594Y0153469D01*
X0110093Y0163469D02*
X0109093Y0164470D01*
X0112095Y0164470D01*
X0112095Y0163469D02*
X0112095Y0165471D01*
X0111595Y0166600D02*
X0112095Y0167100D01*
X0112095Y0168101D01*
X0111595Y0168602D01*
X0111094Y0168602D01*
X0110594Y0168101D01*
X0110594Y0166600D01*
X0111595Y0166600D01*
X0110594Y0166600D02*
X0109593Y0167601D01*
X0109093Y0168602D01*
X0110093Y0173469D02*
X0109093Y0174470D01*
X0112095Y0174470D01*
X0112095Y0173469D02*
X0112095Y0175471D01*
X0112095Y0176600D02*
X0111595Y0176600D01*
X0109593Y0178602D01*
X0109093Y0178602D01*
X0109093Y0176600D01*
X0109593Y0181904D02*
X0109093Y0182404D01*
X0109093Y0183405D01*
X0109593Y0183906D01*
X0110594Y0183405D02*
X0111094Y0183906D01*
X0111595Y0183906D01*
X0112095Y0183405D01*
X0112095Y0182404D01*
X0111595Y0181904D01*
X0110594Y0182404D02*
X0110594Y0183405D01*
X0110594Y0182404D02*
X0110093Y0181904D01*
X0109593Y0181904D01*
X0109593Y0185035D02*
X0109093Y0185535D01*
X0109093Y0186536D01*
X0109593Y0187036D01*
X0109093Y0188165D02*
X0112095Y0188165D01*
X0111094Y0188165D02*
X0109093Y0190167D01*
X0110594Y0188666D02*
X0112095Y0190167D01*
X0111595Y0187036D02*
X0112095Y0186536D01*
X0112095Y0185535D01*
X0111595Y0185035D01*
X0109593Y0185035D01*
X0109093Y0193469D02*
X0110093Y0194470D01*
X0109093Y0195471D01*
X0112095Y0195471D01*
X0111595Y0196600D02*
X0112095Y0197100D01*
X0112095Y0198101D01*
X0111595Y0198602D01*
X0109593Y0198602D01*
X0109093Y0198101D01*
X0109093Y0197100D01*
X0109593Y0196600D01*
X0111595Y0196600D01*
X0112095Y0193469D02*
X0109093Y0193469D01*
X0109093Y0203991D02*
X0110093Y0204992D01*
X0109093Y0205993D01*
X0112095Y0205993D01*
X0112095Y0207122D02*
X0112095Y0208123D01*
X0112095Y0207622D02*
X0109093Y0207622D01*
X0109093Y0207122D02*
X0109093Y0208123D01*
X0109093Y0203991D02*
X0112095Y0203991D01*
X0112095Y0213469D02*
X0110093Y0215471D01*
X0109593Y0215471D01*
X0109093Y0214971D01*
X0109093Y0213970D01*
X0109593Y0213469D01*
X0110093Y0216600D02*
X0109093Y0217601D01*
X0112095Y0217601D01*
X0112095Y0216600D02*
X0112095Y0218602D01*
X0112095Y0215471D02*
X0112095Y0213469D01*
X0111595Y0221904D02*
X0112095Y0222404D01*
X0112095Y0223405D01*
X0111595Y0223906D01*
X0111094Y0223906D01*
X0110594Y0223405D01*
X0110594Y0222404D01*
X0110093Y0221904D01*
X0109593Y0221904D01*
X0109093Y0222404D01*
X0109093Y0223405D01*
X0109593Y0223906D01*
X0109593Y0225035D02*
X0109093Y0225535D01*
X0109093Y0226536D01*
X0109593Y0227036D01*
X0109093Y0228165D02*
X0112095Y0228165D01*
X0112095Y0230167D01*
X0111595Y0231904D02*
X0112095Y0232404D01*
X0112095Y0233405D01*
X0111595Y0233906D01*
X0111094Y0233906D01*
X0110594Y0233405D01*
X0110594Y0232404D01*
X0110093Y0231904D01*
X0109593Y0231904D01*
X0109093Y0232404D01*
X0109093Y0233405D01*
X0109593Y0233906D01*
X0109093Y0235035D02*
X0109093Y0236536D01*
X0109593Y0237036D01*
X0111595Y0237036D01*
X0112095Y0236536D01*
X0112095Y0235035D01*
X0109093Y0235035D01*
X0110093Y0238165D02*
X0109093Y0239166D01*
X0110093Y0240167D01*
X0112095Y0240167D01*
X0112095Y0238165D02*
X0110093Y0238165D01*
X0110594Y0238165D02*
X0110594Y0240167D01*
X0111595Y0227036D02*
X0112095Y0226536D01*
X0112095Y0225535D01*
X0111595Y0225035D01*
X0109593Y0225035D01*
X0104493Y0031704D02*
X0102958Y0031704D01*
X0102191Y0030937D01*
X0102191Y0027867D01*
X0102958Y0027100D01*
X0104493Y0027100D01*
X0105260Y0027867D01*
X0105260Y0030937D02*
X0104493Y0031704D01*
X0100657Y0030937D02*
X0100657Y0027867D01*
X0099889Y0027100D01*
X0098355Y0027100D01*
X0097587Y0027867D01*
X0100657Y0030937D01*
X0099889Y0031704D01*
X0098355Y0031704D01*
X0097587Y0030937D01*
X0097587Y0027867D01*
X0096053Y0029402D02*
X0092983Y0029402D01*
X0095285Y0031704D01*
X0095285Y0027100D01*
X0091449Y0027867D02*
X0090681Y0027100D01*
X0089147Y0027100D01*
X0088379Y0027867D01*
X0086845Y0027100D02*
X0086845Y0031704D01*
X0088379Y0030937D02*
X0089147Y0031704D01*
X0090681Y0031704D01*
X0091449Y0030937D01*
X0091449Y0030169D01*
X0090681Y0029402D01*
X0091449Y0028635D01*
X0091449Y0027867D01*
X0090681Y0029402D02*
X0089914Y0029402D01*
X0086845Y0029402D02*
X0083775Y0029402D01*
X0082241Y0030937D02*
X0081473Y0031704D01*
X0079939Y0031704D01*
X0079172Y0030937D01*
X0079172Y0027867D01*
X0079939Y0027100D01*
X0081473Y0027100D01*
X0082241Y0027867D01*
X0083775Y0027100D02*
X0083775Y0031704D01*
D11*
X0083867Y0045150D02*
X0085168Y0045150D01*
X0085601Y0045584D01*
X0085601Y0046017D01*
X0085168Y0046451D01*
X0083867Y0046451D01*
X0085168Y0046451D02*
X0085601Y0046885D01*
X0085601Y0047319D01*
X0085168Y0047752D01*
X0083867Y0047752D01*
X0083867Y0045150D01*
X0081788Y0046451D02*
X0080920Y0046451D01*
X0080920Y0045150D02*
X0080920Y0047752D01*
X0082655Y0047752D01*
X0083995Y0058775D02*
X0081995Y0060275D01*
X0083995Y0061775D01*
X0083995Y0058775D01*
X0083995Y0059175D02*
X0083462Y0059175D01*
X0083995Y0059773D02*
X0082664Y0059773D01*
X0082124Y0060372D02*
X0083995Y0060372D01*
X0083995Y0060970D02*
X0082922Y0060970D01*
X0083720Y0061569D02*
X0083995Y0061569D01*
X0090520Y0061627D02*
X0090520Y0059025D01*
X0091821Y0059025D01*
X0092255Y0059459D01*
X0092255Y0061194D01*
X0091821Y0061627D01*
X0090520Y0061627D01*
X0093467Y0060326D02*
X0095201Y0060326D01*
X0094768Y0059025D02*
X0094768Y0061627D01*
X0093467Y0060326D01*
X0108818Y0055756D02*
X0108818Y0054022D01*
X0110119Y0054022D01*
X0109685Y0054889D01*
X0109685Y0055323D01*
X0110119Y0055756D01*
X0110986Y0055756D01*
X0111420Y0055323D01*
X0111420Y0054455D01*
X0110986Y0054022D01*
X0111420Y0052810D02*
X0110553Y0051942D01*
X0110553Y0052376D02*
X0110553Y0051075D01*
X0111420Y0051075D02*
X0108818Y0051075D01*
X0108818Y0052376D01*
X0109252Y0052810D01*
X0110119Y0052810D01*
X0110553Y0052376D01*
X0110303Y0073825D02*
X0110303Y0075126D01*
X0109869Y0075560D01*
X0109002Y0075560D01*
X0108568Y0075126D01*
X0108568Y0073825D01*
X0111170Y0073825D01*
X0110303Y0074692D02*
X0111170Y0075560D01*
X0109869Y0076772D02*
X0109869Y0078506D01*
X0108568Y0078073D02*
X0109869Y0076772D01*
X0111170Y0078073D02*
X0108568Y0078073D01*
X0099561Y0102753D02*
X0097827Y0102753D01*
X0097393Y0103187D01*
X0097393Y0104055D01*
X0097827Y0104488D01*
X0099561Y0104488D01*
X0099995Y0104055D01*
X0099995Y0103187D01*
X0099561Y0102753D01*
X0099128Y0103621D02*
X0099995Y0104488D01*
X0099995Y0105700D02*
X0098260Y0107435D01*
X0097827Y0107435D01*
X0097393Y0107001D01*
X0097393Y0106134D01*
X0097827Y0105700D01*
X0099995Y0105700D02*
X0099995Y0107435D01*
X0091250Y0115500D02*
X0091250Y0118102D01*
X0089949Y0116801D01*
X0091683Y0116801D01*
X0088737Y0115500D02*
X0087002Y0115500D01*
X0087870Y0115500D02*
X0087870Y0118102D01*
X0087002Y0117235D01*
X0085790Y0117669D02*
X0085790Y0116801D01*
X0085357Y0116367D01*
X0084056Y0116367D01*
X0084923Y0116367D02*
X0085790Y0115500D01*
X0084056Y0115500D02*
X0084056Y0118102D01*
X0085357Y0118102D01*
X0085790Y0117669D01*
X0080402Y0112388D02*
X0082136Y0110653D01*
X0082570Y0110653D01*
X0082570Y0109442D02*
X0081703Y0108574D01*
X0081703Y0109008D02*
X0081703Y0107707D01*
X0082570Y0107707D02*
X0079968Y0107707D01*
X0079968Y0109008D01*
X0080402Y0109442D01*
X0081269Y0109442D01*
X0081703Y0109008D01*
X0079968Y0110653D02*
X0079968Y0112388D01*
X0080402Y0112388D01*
X0075030Y0103902D02*
X0074163Y0103902D01*
X0073729Y0103469D01*
X0072517Y0103902D02*
X0072517Y0101734D01*
X0072084Y0101300D01*
X0071216Y0101300D01*
X0070783Y0101734D01*
X0070783Y0103902D01*
X0073729Y0101300D02*
X0075464Y0103035D01*
X0075464Y0103469D01*
X0075030Y0103902D01*
X0075464Y0101300D02*
X0073729Y0101300D01*
X0064570Y0095738D02*
X0064570Y0094003D01*
X0062835Y0095738D01*
X0062402Y0095738D01*
X0061968Y0095305D01*
X0061968Y0094437D01*
X0062402Y0094003D01*
X0061968Y0091924D02*
X0064570Y0091924D01*
X0064570Y0091057D02*
X0064570Y0092792D01*
X0064570Y0089845D02*
X0063703Y0088978D01*
X0063703Y0089412D02*
X0063703Y0088110D01*
X0064570Y0088110D02*
X0061968Y0088110D01*
X0061968Y0089412D01*
X0062402Y0089845D01*
X0063269Y0089845D01*
X0063703Y0089412D01*
X0062835Y0091057D02*
X0061968Y0091924D01*
X0061702Y0098457D02*
X0061268Y0098891D01*
X0061268Y0099758D01*
X0061702Y0100192D01*
X0061702Y0101403D02*
X0061268Y0101837D01*
X0061268Y0102705D01*
X0061702Y0103138D01*
X0063436Y0103138D01*
X0063870Y0102705D01*
X0063870Y0101837D01*
X0063436Y0101403D01*
X0062569Y0101837D02*
X0062569Y0103138D01*
X0062569Y0101837D02*
X0062135Y0101403D01*
X0061702Y0101403D01*
X0063436Y0100192D02*
X0063870Y0099758D01*
X0063870Y0098891D01*
X0063436Y0098457D01*
X0061702Y0098457D01*
X0061852Y0105310D02*
X0061418Y0105744D01*
X0061418Y0106612D01*
X0061852Y0107045D01*
X0062285Y0108257D02*
X0061418Y0109124D01*
X0064020Y0109124D01*
X0064020Y0108257D02*
X0064020Y0109992D01*
X0064020Y0111203D02*
X0064020Y0112938D01*
X0064020Y0112071D02*
X0061418Y0112071D01*
X0062285Y0111203D01*
X0063586Y0107045D02*
X0064020Y0106612D01*
X0064020Y0105744D01*
X0063586Y0105310D01*
X0061852Y0105310D01*
X0070893Y0085636D02*
X0070459Y0085202D01*
X0070459Y0083467D01*
X0070893Y0083033D01*
X0071760Y0083033D01*
X0072194Y0083467D01*
X0073406Y0083467D02*
X0073839Y0083033D01*
X0074707Y0083033D01*
X0075141Y0083467D01*
X0075141Y0083901D01*
X0074707Y0084335D01*
X0073839Y0084335D01*
X0073406Y0084768D01*
X0073406Y0085202D01*
X0073839Y0085636D01*
X0074707Y0085636D01*
X0075141Y0085202D01*
X0075141Y0084768D01*
X0074707Y0084335D01*
X0073839Y0084335D02*
X0073406Y0083901D01*
X0073406Y0083467D01*
X0072194Y0085202D02*
X0071760Y0085636D01*
X0070893Y0085636D01*
X0070684Y0077567D02*
X0070251Y0077134D01*
X0070251Y0075399D01*
X0070684Y0074965D01*
X0071552Y0074965D01*
X0071985Y0075399D01*
X0073197Y0075399D02*
X0073197Y0074965D01*
X0073197Y0075399D02*
X0074932Y0077134D01*
X0074932Y0077567D01*
X0073197Y0077567D01*
X0071985Y0077134D02*
X0071552Y0077567D01*
X0070684Y0077567D01*
X0070602Y0069802D02*
X0071903Y0069802D01*
X0072337Y0069369D01*
X0072337Y0068501D01*
X0071903Y0068067D01*
X0070602Y0068067D01*
X0070602Y0067200D02*
X0070602Y0069802D01*
X0071470Y0068067D02*
X0072337Y0067200D01*
X0073549Y0067634D02*
X0073982Y0067200D01*
X0074850Y0067200D01*
X0075283Y0067634D01*
X0075283Y0069369D01*
X0074850Y0069802D01*
X0073982Y0069802D01*
X0073549Y0069369D01*
X0073549Y0068935D01*
X0073982Y0068501D01*
X0075283Y0068501D01*
X0066711Y0053056D02*
X0067145Y0052623D01*
X0067145Y0051755D01*
X0066711Y0051322D01*
X0066711Y0050110D02*
X0067145Y0049676D01*
X0067145Y0048809D01*
X0066711Y0048375D01*
X0064977Y0048375D01*
X0064543Y0048809D01*
X0064543Y0049676D01*
X0064977Y0050110D01*
X0064977Y0051322D02*
X0064543Y0051755D01*
X0064543Y0052623D01*
X0064977Y0053056D01*
X0065410Y0053056D01*
X0065844Y0052623D01*
X0066278Y0053056D01*
X0066711Y0053056D01*
X0065844Y0052623D02*
X0065844Y0052189D01*
X0061400Y0062000D02*
X0061833Y0062434D01*
X0061833Y0063301D01*
X0061400Y0063735D01*
X0060966Y0063735D01*
X0060099Y0063301D01*
X0060099Y0064602D01*
X0061833Y0064602D01*
X0061400Y0062000D02*
X0060532Y0062000D01*
X0060099Y0062434D01*
X0058887Y0062434D02*
X0058887Y0064169D01*
X0058453Y0064602D01*
X0057152Y0064602D01*
X0057152Y0062000D01*
X0058453Y0062000D01*
X0058887Y0062434D01*
X0053158Y0062334D02*
X0053158Y0062767D01*
X0052725Y0063201D01*
X0051424Y0063201D01*
X0051424Y0062334D01*
X0051857Y0061900D01*
X0052725Y0061900D01*
X0053158Y0062334D01*
X0051424Y0063201D02*
X0052291Y0064069D01*
X0053158Y0064502D01*
X0050212Y0064069D02*
X0050212Y0062334D01*
X0049778Y0061900D01*
X0048477Y0061900D01*
X0048477Y0064502D01*
X0049778Y0064502D01*
X0050212Y0064069D01*
X0064752Y0030006D02*
X0064318Y0029573D01*
X0064318Y0028705D01*
X0064752Y0028272D01*
X0064752Y0027060D02*
X0064318Y0026626D01*
X0064318Y0025759D01*
X0064752Y0025325D01*
X0066486Y0025325D01*
X0066920Y0025759D01*
X0066920Y0026626D01*
X0066486Y0027060D01*
X0066920Y0028272D02*
X0065185Y0030006D01*
X0064752Y0030006D01*
X0066920Y0030006D02*
X0066920Y0028272D01*
X0083756Y0095500D02*
X0083756Y0098102D01*
X0085057Y0098102D01*
X0085490Y0097669D01*
X0085490Y0096801D01*
X0085057Y0096367D01*
X0083756Y0096367D01*
X0084623Y0096367D02*
X0085490Y0095500D01*
X0086702Y0095500D02*
X0088437Y0095500D01*
X0087570Y0095500D02*
X0087570Y0098102D01*
X0086702Y0097235D01*
X0089649Y0097669D02*
X0090082Y0098102D01*
X0090950Y0098102D01*
X0091383Y0097669D01*
X0091383Y0097235D01*
X0090950Y0096801D01*
X0091383Y0096367D01*
X0091383Y0095934D01*
X0090950Y0095500D01*
X0090082Y0095500D01*
X0089649Y0095934D01*
X0090516Y0096801D02*
X0090950Y0096801D01*
X0075920Y0133210D02*
X0073318Y0133210D01*
X0073318Y0134512D01*
X0073752Y0134945D01*
X0074619Y0134945D01*
X0075053Y0134512D01*
X0075053Y0133210D01*
X0075053Y0134078D02*
X0075920Y0134945D01*
X0075920Y0136157D02*
X0075920Y0137892D01*
X0075920Y0137024D02*
X0073318Y0137024D01*
X0074185Y0136157D01*
X0074185Y0139103D02*
X0073318Y0139971D01*
X0075920Y0139971D01*
X0075920Y0140838D02*
X0075920Y0139103D01*
X0075542Y0151099D02*
X0075542Y0155302D01*
X0077644Y0155302D01*
X0078345Y0154602D01*
X0078345Y0153201D01*
X0077644Y0152500D01*
X0075542Y0152500D01*
X0079962Y0152500D02*
X0081363Y0152500D01*
X0080663Y0152500D02*
X0080663Y0155302D01*
X0079962Y0155302D01*
X0080663Y0156704D02*
X0080663Y0157404D01*
X0082909Y0155302D02*
X0082909Y0152500D01*
X0082909Y0155302D02*
X0085010Y0155302D01*
X0085711Y0154602D01*
X0085711Y0152500D01*
X0087328Y0153201D02*
X0087328Y0156003D01*
X0088029Y0156704D01*
X0089430Y0156704D01*
X0090131Y0156003D01*
X0087328Y0153201D01*
X0088029Y0152500D01*
X0089430Y0152500D01*
X0090131Y0153201D01*
X0090131Y0156003D01*
X0098643Y0140613D02*
X0099077Y0139746D01*
X0099944Y0138878D01*
X0099944Y0140180D01*
X0100378Y0140613D01*
X0100811Y0140613D01*
X0101245Y0140180D01*
X0101245Y0139312D01*
X0100811Y0138878D01*
X0099944Y0138878D01*
X0099944Y0137667D02*
X0099077Y0137667D01*
X0098643Y0137233D01*
X0098643Y0135932D01*
X0101245Y0135932D01*
X0100378Y0135932D02*
X0100378Y0137233D01*
X0099944Y0137667D01*
X0100378Y0136799D02*
X0101245Y0137667D01*
X0066744Y0152500D02*
X0066044Y0153201D01*
X0066044Y0156003D01*
X0066744Y0155302D02*
X0065343Y0155302D01*
X0063726Y0154602D02*
X0063726Y0153901D01*
X0060923Y0153901D01*
X0060923Y0153201D02*
X0060923Y0154602D01*
X0061624Y0155302D01*
X0063025Y0155302D01*
X0063726Y0154602D01*
X0063025Y0152500D02*
X0061624Y0152500D01*
X0060923Y0153201D01*
X0059306Y0153201D02*
X0058605Y0153901D01*
X0057204Y0153901D01*
X0056504Y0154602D01*
X0057204Y0155302D01*
X0059306Y0155302D01*
X0059306Y0153201D02*
X0058605Y0152500D01*
X0056504Y0152500D01*
X0054886Y0153901D02*
X0052084Y0153901D01*
X0052084Y0153201D02*
X0052084Y0154602D01*
X0052784Y0155302D01*
X0054186Y0155302D01*
X0054886Y0154602D01*
X0054886Y0153901D01*
X0054186Y0152500D02*
X0052784Y0152500D01*
X0052084Y0153201D01*
X0050502Y0155302D02*
X0049802Y0155302D01*
X0048401Y0153901D01*
X0048401Y0152500D02*
X0048401Y0155302D01*
X0040951Y0147944D02*
X0040951Y0147510D01*
X0040518Y0147076D01*
X0040951Y0146642D01*
X0040951Y0146209D01*
X0040518Y0145775D01*
X0039650Y0145775D01*
X0039217Y0146209D01*
X0038005Y0146209D02*
X0038005Y0147944D01*
X0037571Y0148377D01*
X0036270Y0148377D01*
X0036270Y0145775D01*
X0037571Y0145775D01*
X0038005Y0146209D01*
X0039217Y0147944D02*
X0039650Y0148377D01*
X0040518Y0148377D01*
X0040951Y0147944D01*
X0040518Y0147076D02*
X0040084Y0147076D01*
X0038795Y0138750D02*
X0040295Y0136750D01*
X0037295Y0136750D01*
X0038795Y0138750D01*
X0038366Y0138178D02*
X0039224Y0138178D01*
X0039673Y0137580D02*
X0037918Y0137580D01*
X0037469Y0136981D02*
X0040122Y0136981D01*
X0039796Y0130727D02*
X0038495Y0130727D01*
X0038495Y0128125D01*
X0038495Y0128992D02*
X0039796Y0128992D01*
X0040230Y0129426D01*
X0040230Y0130294D01*
X0039796Y0130727D01*
X0039363Y0128992D02*
X0040230Y0128125D01*
X0041442Y0128125D02*
X0043176Y0128125D01*
X0042309Y0128125D02*
X0042309Y0130727D01*
X0041442Y0129860D01*
X0044388Y0130294D02*
X0044388Y0128559D01*
X0046123Y0130294D01*
X0046123Y0128559D01*
X0045689Y0128125D01*
X0044822Y0128125D01*
X0044388Y0128559D01*
X0045152Y0127594D02*
X0045152Y0125859D01*
X0045586Y0125425D01*
X0046453Y0125425D01*
X0046887Y0125859D01*
X0048099Y0126726D02*
X0049833Y0126726D01*
X0049400Y0125425D02*
X0049400Y0128027D01*
X0048099Y0126726D01*
X0046887Y0127594D02*
X0046453Y0128027D01*
X0045586Y0128027D01*
X0045152Y0127594D01*
X0044388Y0130294D02*
X0044822Y0130727D01*
X0045689Y0130727D01*
X0046123Y0130294D01*
X0042795Y0116888D02*
X0042795Y0115153D01*
X0041060Y0116888D01*
X0040627Y0116888D01*
X0040193Y0116455D01*
X0040193Y0115587D01*
X0040627Y0115153D01*
X0040627Y0113942D02*
X0040193Y0113508D01*
X0040193Y0112641D01*
X0040627Y0112207D01*
X0042361Y0112207D01*
X0042795Y0112641D01*
X0042795Y0113508D01*
X0042361Y0113942D01*
X0042795Y0110128D02*
X0040193Y0110128D01*
X0040193Y0110995D02*
X0040193Y0109260D01*
X0040627Y0108049D02*
X0040193Y0107615D01*
X0040193Y0106314D01*
X0042795Y0106314D01*
X0041928Y0106314D02*
X0041928Y0107615D01*
X0041494Y0108049D01*
X0040627Y0108049D01*
X0030769Y0259075D02*
X0028901Y0259075D01*
X0029835Y0259075D02*
X0029835Y0261877D01*
X0028901Y0260943D01*
X0027638Y0261410D02*
X0027171Y0261877D01*
X0026237Y0261877D01*
X0025770Y0261410D01*
X0025770Y0259542D01*
X0026237Y0259075D01*
X0027171Y0259075D01*
X0027638Y0259542D01*
D12*
X0019268Y0051117D02*
X0019268Y0015683D01*
X0042497Y0015683D01*
X0051946Y0015683D02*
X0062575Y0015683D01*
X0062575Y0029857D01*
X0062575Y0036943D02*
X0062575Y0051117D01*
X0019268Y0051117D01*
X0026095Y0091275D02*
X0031095Y0091275D01*
X0031095Y0111525D01*
X0026095Y0111525D01*
X0037458Y0102351D02*
X0037458Y0121249D01*
X0045332Y0121249D01*
X0045332Y0102351D01*
X0037458Y0102351D01*
X0048814Y0079337D02*
X0048814Y0072463D01*
X0049995Y0074719D02*
X0051570Y0077081D01*
X0053145Y0074719D01*
X0049995Y0074719D01*
X0050783Y0075113D02*
X0051570Y0076294D01*
X0052358Y0075113D01*
X0050783Y0075113D01*
X0050825Y0075176D02*
X0052315Y0075176D01*
X0051783Y0075975D02*
X0051358Y0075975D01*
X0054326Y0079337D02*
X0054326Y0072463D01*
X0057689Y0072463D02*
X0057689Y0079337D01*
X0060445Y0077081D02*
X0058870Y0074719D01*
X0062020Y0074719D01*
X0060445Y0077081D01*
X0060445Y0076294D02*
X0059658Y0075113D01*
X0061233Y0075113D01*
X0060445Y0076294D01*
X0060233Y0075975D02*
X0060658Y0075975D01*
X0061190Y0075176D02*
X0059700Y0075176D01*
X0063201Y0072463D02*
X0063201Y0079337D01*
X0066199Y0093850D02*
X0066199Y0100150D01*
X0071120Y0092866D02*
X0074270Y0092866D01*
X0079191Y0093850D02*
X0079191Y0100150D01*
X0095645Y0101000D02*
X0095645Y0101550D01*
X0095645Y0101000D02*
X0101045Y0101000D01*
X0101545Y0101550D01*
X0101545Y0109250D02*
X0101545Y0109800D01*
X0095645Y0109800D01*
X0095645Y0109250D01*
X0090370Y0055450D02*
X0075370Y0055450D01*
X0075370Y0048450D01*
X0090370Y0048450D01*
X0090370Y0055450D01*
X0076368Y0024983D02*
X0076370Y0025054D01*
X0076376Y0025125D01*
X0076386Y0025196D01*
X0076400Y0025266D01*
X0076417Y0025335D01*
X0076439Y0025403D01*
X0076464Y0025469D01*
X0076493Y0025535D01*
X0076525Y0025598D01*
X0076561Y0025660D01*
X0076600Y0025719D01*
X0076643Y0025776D01*
X0076689Y0025831D01*
X0076737Y0025883D01*
X0076789Y0025933D01*
X0076843Y0025979D01*
X0076899Y0026022D01*
X0076958Y0026062D01*
X0077019Y0026099D01*
X0077082Y0026132D01*
X0077147Y0026162D01*
X0077213Y0026188D01*
X0077281Y0026211D01*
X0077350Y0026229D01*
X0077420Y0026244D01*
X0077490Y0026255D01*
X0077561Y0026262D01*
X0077632Y0026265D01*
X0077703Y0026264D01*
X0077775Y0026259D01*
X0077845Y0026250D01*
X0077915Y0026237D01*
X0077985Y0026221D01*
X0078053Y0026200D01*
X0078120Y0026176D01*
X0078186Y0026148D01*
X0078249Y0026116D01*
X0078311Y0026081D01*
X0078371Y0026043D01*
X0078429Y0026001D01*
X0078485Y0025956D01*
X0078537Y0025908D01*
X0078587Y0025857D01*
X0078635Y0025804D01*
X0078679Y0025748D01*
X0078720Y0025690D01*
X0078757Y0025629D01*
X0078791Y0025567D01*
X0078822Y0025502D01*
X0078849Y0025436D01*
X0078873Y0025369D01*
X0078892Y0025300D01*
X0078908Y0025231D01*
X0078920Y0025161D01*
X0078928Y0025090D01*
X0078932Y0025019D01*
X0078932Y0024947D01*
X0078928Y0024876D01*
X0078920Y0024805D01*
X0078908Y0024735D01*
X0078892Y0024666D01*
X0078873Y0024597D01*
X0078849Y0024530D01*
X0078822Y0024464D01*
X0078791Y0024399D01*
X0078757Y0024337D01*
X0078720Y0024276D01*
X0078679Y0024218D01*
X0078635Y0024162D01*
X0078587Y0024109D01*
X0078537Y0024058D01*
X0078485Y0024010D01*
X0078429Y0023965D01*
X0078371Y0023923D01*
X0078311Y0023885D01*
X0078249Y0023850D01*
X0078186Y0023818D01*
X0078120Y0023790D01*
X0078053Y0023766D01*
X0077985Y0023745D01*
X0077915Y0023729D01*
X0077845Y0023716D01*
X0077775Y0023707D01*
X0077703Y0023702D01*
X0077632Y0023701D01*
X0077561Y0023704D01*
X0077490Y0023711D01*
X0077420Y0023722D01*
X0077350Y0023737D01*
X0077281Y0023755D01*
X0077213Y0023778D01*
X0077147Y0023804D01*
X0077082Y0023834D01*
X0077019Y0023867D01*
X0076958Y0023904D01*
X0076899Y0023944D01*
X0076843Y0023987D01*
X0076789Y0024033D01*
X0076737Y0024083D01*
X0076689Y0024135D01*
X0076643Y0024190D01*
X0076600Y0024247D01*
X0076561Y0024306D01*
X0076525Y0024368D01*
X0076493Y0024431D01*
X0076464Y0024497D01*
X0076439Y0024563D01*
X0076417Y0024631D01*
X0076400Y0024700D01*
X0076386Y0024770D01*
X0076376Y0024841D01*
X0076370Y0024912D01*
X0076368Y0024983D01*
D13*
X0077833Y0132632D02*
X0088857Y0132632D01*
X0088857Y0149168D01*
X0077833Y0149168D01*
X0077833Y0132632D01*
X0080196Y0138931D02*
X0080196Y0142869D01*
X0080198Y0142964D01*
X0080204Y0143059D01*
X0080213Y0143154D01*
X0080227Y0143248D01*
X0080244Y0143341D01*
X0080265Y0143434D01*
X0080289Y0143526D01*
X0080318Y0143617D01*
X0080349Y0143707D01*
X0080385Y0143795D01*
X0080424Y0143882D01*
X0080467Y0143967D01*
X0080512Y0144050D01*
X0080562Y0144131D01*
X0080614Y0144211D01*
X0080670Y0144288D01*
X0080728Y0144363D01*
X0080790Y0144435D01*
X0080855Y0144505D01*
X0080922Y0144572D01*
X0080992Y0144637D01*
X0081064Y0144699D01*
X0081139Y0144757D01*
X0081216Y0144813D01*
X0081296Y0144865D01*
X0081377Y0144915D01*
X0081460Y0144960D01*
X0081545Y0145003D01*
X0081632Y0145042D01*
X0081720Y0145078D01*
X0081810Y0145109D01*
X0081901Y0145138D01*
X0081993Y0145162D01*
X0082086Y0145183D01*
X0082179Y0145200D01*
X0082273Y0145214D01*
X0082368Y0145223D01*
X0082463Y0145229D01*
X0082558Y0145231D01*
X0084133Y0145231D01*
X0084228Y0145229D01*
X0084323Y0145223D01*
X0084418Y0145214D01*
X0084512Y0145200D01*
X0084605Y0145183D01*
X0084698Y0145162D01*
X0084790Y0145138D01*
X0084881Y0145109D01*
X0084971Y0145078D01*
X0085059Y0145042D01*
X0085146Y0145003D01*
X0085231Y0144960D01*
X0085314Y0144915D01*
X0085395Y0144865D01*
X0085475Y0144813D01*
X0085552Y0144757D01*
X0085627Y0144699D01*
X0085699Y0144637D01*
X0085769Y0144572D01*
X0085836Y0144505D01*
X0085901Y0144435D01*
X0085963Y0144363D01*
X0086021Y0144288D01*
X0086077Y0144211D01*
X0086129Y0144131D01*
X0086179Y0144050D01*
X0086224Y0143967D01*
X0086267Y0143882D01*
X0086306Y0143795D01*
X0086342Y0143707D01*
X0086373Y0143617D01*
X0086402Y0143526D01*
X0086426Y0143434D01*
X0086447Y0143341D01*
X0086464Y0143248D01*
X0086478Y0143154D01*
X0086487Y0143059D01*
X0086493Y0142964D01*
X0086495Y0142869D01*
X0086495Y0138931D01*
X0086493Y0138836D01*
X0086487Y0138741D01*
X0086478Y0138646D01*
X0086464Y0138552D01*
X0086447Y0138459D01*
X0086426Y0138366D01*
X0086402Y0138274D01*
X0086373Y0138183D01*
X0086342Y0138093D01*
X0086306Y0138005D01*
X0086267Y0137918D01*
X0086224Y0137833D01*
X0086179Y0137750D01*
X0086129Y0137669D01*
X0086077Y0137589D01*
X0086021Y0137512D01*
X0085963Y0137437D01*
X0085901Y0137365D01*
X0085836Y0137295D01*
X0085769Y0137228D01*
X0085699Y0137163D01*
X0085627Y0137101D01*
X0085552Y0137043D01*
X0085475Y0136987D01*
X0085395Y0136935D01*
X0085314Y0136885D01*
X0085231Y0136840D01*
X0085146Y0136797D01*
X0085059Y0136758D01*
X0084971Y0136722D01*
X0084881Y0136691D01*
X0084790Y0136662D01*
X0084698Y0136638D01*
X0084605Y0136617D01*
X0084512Y0136600D01*
X0084418Y0136586D01*
X0084323Y0136577D01*
X0084228Y0136571D01*
X0084133Y0136569D01*
X0082558Y0136569D01*
X0082463Y0136571D01*
X0082368Y0136577D01*
X0082273Y0136586D01*
X0082179Y0136600D01*
X0082086Y0136617D01*
X0081993Y0136638D01*
X0081901Y0136662D01*
X0081810Y0136691D01*
X0081720Y0136722D01*
X0081632Y0136758D01*
X0081545Y0136797D01*
X0081460Y0136840D01*
X0081377Y0136885D01*
X0081296Y0136935D01*
X0081216Y0136987D01*
X0081139Y0137043D01*
X0081064Y0137101D01*
X0080992Y0137163D01*
X0080922Y0137228D01*
X0080855Y0137295D01*
X0080790Y0137365D01*
X0080728Y0137437D01*
X0080670Y0137512D01*
X0080614Y0137589D01*
X0080562Y0137669D01*
X0080512Y0137750D01*
X0080467Y0137833D01*
X0080424Y0137918D01*
X0080385Y0138005D01*
X0080349Y0138093D01*
X0080318Y0138183D01*
X0080289Y0138274D01*
X0080265Y0138366D01*
X0080244Y0138459D01*
X0080227Y0138552D01*
X0080213Y0138646D01*
X0080204Y0138741D01*
X0080198Y0138836D01*
X0080196Y0138931D01*
X0063557Y0132882D02*
X0052533Y0132882D01*
X0052533Y0149418D01*
X0063557Y0149418D01*
X0063557Y0132882D01*
X0061195Y0139181D02*
X0061195Y0143119D01*
X0061193Y0143214D01*
X0061187Y0143309D01*
X0061178Y0143404D01*
X0061164Y0143498D01*
X0061147Y0143591D01*
X0061126Y0143684D01*
X0061102Y0143776D01*
X0061073Y0143867D01*
X0061042Y0143957D01*
X0061006Y0144045D01*
X0060967Y0144132D01*
X0060924Y0144217D01*
X0060879Y0144300D01*
X0060829Y0144381D01*
X0060777Y0144461D01*
X0060721Y0144538D01*
X0060663Y0144613D01*
X0060601Y0144685D01*
X0060536Y0144755D01*
X0060469Y0144822D01*
X0060399Y0144887D01*
X0060327Y0144949D01*
X0060252Y0145007D01*
X0060175Y0145063D01*
X0060095Y0145115D01*
X0060014Y0145165D01*
X0059931Y0145210D01*
X0059846Y0145253D01*
X0059759Y0145292D01*
X0059671Y0145328D01*
X0059581Y0145359D01*
X0059490Y0145388D01*
X0059398Y0145412D01*
X0059305Y0145433D01*
X0059212Y0145450D01*
X0059118Y0145464D01*
X0059023Y0145473D01*
X0058928Y0145479D01*
X0058833Y0145481D01*
X0057258Y0145481D01*
X0057163Y0145479D01*
X0057068Y0145473D01*
X0056973Y0145464D01*
X0056879Y0145450D01*
X0056786Y0145433D01*
X0056693Y0145412D01*
X0056601Y0145388D01*
X0056510Y0145359D01*
X0056420Y0145328D01*
X0056332Y0145292D01*
X0056245Y0145253D01*
X0056160Y0145210D01*
X0056077Y0145165D01*
X0055996Y0145115D01*
X0055916Y0145063D01*
X0055839Y0145007D01*
X0055764Y0144949D01*
X0055692Y0144887D01*
X0055622Y0144822D01*
X0055555Y0144755D01*
X0055490Y0144685D01*
X0055428Y0144613D01*
X0055370Y0144538D01*
X0055314Y0144461D01*
X0055262Y0144381D01*
X0055212Y0144300D01*
X0055167Y0144217D01*
X0055124Y0144132D01*
X0055085Y0144045D01*
X0055049Y0143957D01*
X0055018Y0143867D01*
X0054989Y0143776D01*
X0054965Y0143684D01*
X0054944Y0143591D01*
X0054927Y0143498D01*
X0054913Y0143404D01*
X0054904Y0143309D01*
X0054898Y0143214D01*
X0054896Y0143119D01*
X0054896Y0139181D01*
X0054898Y0139086D01*
X0054904Y0138991D01*
X0054913Y0138896D01*
X0054927Y0138802D01*
X0054944Y0138709D01*
X0054965Y0138616D01*
X0054989Y0138524D01*
X0055018Y0138433D01*
X0055049Y0138343D01*
X0055085Y0138255D01*
X0055124Y0138168D01*
X0055167Y0138083D01*
X0055212Y0138000D01*
X0055262Y0137919D01*
X0055314Y0137839D01*
X0055370Y0137762D01*
X0055428Y0137687D01*
X0055490Y0137615D01*
X0055555Y0137545D01*
X0055622Y0137478D01*
X0055692Y0137413D01*
X0055764Y0137351D01*
X0055839Y0137293D01*
X0055916Y0137237D01*
X0055996Y0137185D01*
X0056077Y0137135D01*
X0056160Y0137090D01*
X0056245Y0137047D01*
X0056332Y0137008D01*
X0056420Y0136972D01*
X0056510Y0136941D01*
X0056601Y0136912D01*
X0056693Y0136888D01*
X0056786Y0136867D01*
X0056879Y0136850D01*
X0056973Y0136836D01*
X0057068Y0136827D01*
X0057163Y0136821D01*
X0057258Y0136819D01*
X0058833Y0136819D01*
X0058928Y0136821D01*
X0059023Y0136827D01*
X0059118Y0136836D01*
X0059212Y0136850D01*
X0059305Y0136867D01*
X0059398Y0136888D01*
X0059490Y0136912D01*
X0059581Y0136941D01*
X0059671Y0136972D01*
X0059759Y0137008D01*
X0059846Y0137047D01*
X0059931Y0137090D01*
X0060014Y0137135D01*
X0060095Y0137185D01*
X0060175Y0137237D01*
X0060252Y0137293D01*
X0060327Y0137351D01*
X0060399Y0137413D01*
X0060469Y0137478D01*
X0060536Y0137545D01*
X0060601Y0137615D01*
X0060663Y0137687D01*
X0060721Y0137762D01*
X0060777Y0137839D01*
X0060829Y0137919D01*
X0060879Y0138000D01*
X0060924Y0138083D01*
X0060967Y0138168D01*
X0061006Y0138255D01*
X0061042Y0138343D01*
X0061073Y0138433D01*
X0061102Y0138524D01*
X0061126Y0138616D01*
X0061147Y0138709D01*
X0061164Y0138802D01*
X0061178Y0138896D01*
X0061187Y0138991D01*
X0061193Y0139086D01*
X0061195Y0139181D01*
X0048058Y0145575D02*
X0046907Y0146726D01*
X0046523Y0146342D02*
X0048058Y0147877D01*
X0046523Y0147877D02*
X0046523Y0145575D01*
X0045480Y0145575D02*
X0043945Y0145575D01*
X0044712Y0145575D02*
X0044712Y0147877D01*
X0043945Y0147110D01*
X0054314Y0238416D02*
X0054314Y0242119D01*
X0056166Y0242119D01*
X0056783Y0241502D01*
X0056783Y0240267D01*
X0056166Y0239650D01*
X0054314Y0239650D01*
X0052916Y0239650D02*
X0050447Y0242119D01*
X0049049Y0241502D02*
X0049049Y0240884D01*
X0046580Y0240884D01*
X0046580Y0240267D02*
X0046580Y0241502D01*
X0047197Y0242119D01*
X0048431Y0242119D01*
X0049049Y0241502D01*
X0048431Y0239650D02*
X0047197Y0239650D01*
X0046580Y0240267D01*
X0045181Y0239650D02*
X0045181Y0241502D01*
X0044564Y0242119D01*
X0042712Y0242119D01*
X0042712Y0239650D01*
X0041314Y0239650D02*
X0041314Y0242119D01*
X0041314Y0239650D02*
X0039462Y0239650D01*
X0038845Y0240267D01*
X0038845Y0242119D01*
X0038845Y0245950D02*
X0038845Y0248419D01*
X0038845Y0247184D02*
X0040080Y0248419D01*
X0040697Y0248419D01*
X0042068Y0247802D02*
X0042068Y0246567D01*
X0042685Y0245950D01*
X0043919Y0245950D01*
X0044537Y0247184D02*
X0042068Y0247184D01*
X0042068Y0247802D02*
X0042685Y0248419D01*
X0043919Y0248419D01*
X0044537Y0247802D01*
X0044537Y0247184D01*
X0045935Y0248419D02*
X0047170Y0245950D01*
X0048404Y0248419D01*
X0046580Y0252250D02*
X0046580Y0255953D01*
X0048431Y0255953D01*
X0049049Y0255336D01*
X0049049Y0254102D01*
X0048431Y0253484D01*
X0046580Y0253484D01*
X0045181Y0253484D02*
X0045181Y0252867D01*
X0044564Y0252250D01*
X0043330Y0252250D01*
X0042712Y0252867D01*
X0043330Y0254102D02*
X0044564Y0254102D01*
X0045181Y0253484D01*
X0045181Y0255336D02*
X0044564Y0255953D01*
X0043330Y0255953D01*
X0042712Y0255336D01*
X0042712Y0254719D01*
X0043330Y0254102D01*
X0041314Y0255953D02*
X0038845Y0255953D01*
X0038845Y0252250D01*
X0041314Y0252250D01*
X0040080Y0254102D02*
X0038845Y0254102D01*
X0050447Y0255336D02*
X0051064Y0255953D01*
X0052299Y0255953D01*
X0052916Y0255336D01*
X0052916Y0254719D01*
X0052299Y0254102D01*
X0052916Y0253484D01*
X0052916Y0252867D01*
X0052299Y0252250D01*
X0051064Y0252250D01*
X0050447Y0252867D01*
X0051681Y0254102D02*
X0052299Y0254102D01*
X0054314Y0255336D02*
X0054932Y0255953D01*
X0056166Y0255953D01*
X0056783Y0255336D01*
X0056783Y0254719D01*
X0054314Y0252250D01*
X0056783Y0252250D01*
X0055521Y0249653D02*
X0054287Y0249653D01*
X0053670Y0249036D01*
X0055521Y0249653D02*
X0056139Y0249036D01*
X0056139Y0248419D01*
X0053670Y0245950D01*
X0056139Y0245950D01*
X0057537Y0246567D02*
X0057537Y0249036D01*
X0058154Y0249653D01*
X0059389Y0249653D01*
X0060006Y0249036D01*
X0057537Y0246567D01*
X0058154Y0245950D01*
X0059389Y0245950D01*
X0060006Y0246567D01*
X0060006Y0249036D01*
X0061404Y0248419D02*
X0062639Y0249653D01*
X0062639Y0245950D01*
X0063873Y0245950D02*
X0061404Y0245950D01*
X0062666Y0242119D02*
X0062049Y0241502D01*
X0062049Y0240267D01*
X0062666Y0239650D01*
X0064518Y0239650D01*
X0066533Y0240267D02*
X0066533Y0242736D01*
X0065916Y0242119D02*
X0067151Y0242119D01*
X0068494Y0241502D02*
X0068494Y0240267D01*
X0069112Y0239650D01*
X0070346Y0239650D01*
X0070963Y0240884D02*
X0068494Y0240884D01*
X0068494Y0241502D02*
X0069112Y0242119D01*
X0070346Y0242119D01*
X0070963Y0241502D01*
X0070963Y0240884D01*
X0072362Y0240267D02*
X0072362Y0241502D01*
X0072979Y0242119D01*
X0074830Y0242119D01*
X0074830Y0243353D02*
X0074830Y0239650D01*
X0072979Y0239650D01*
X0072362Y0240267D01*
X0074858Y0245950D02*
X0074858Y0249653D01*
X0073006Y0247802D01*
X0075475Y0247802D01*
X0071608Y0247802D02*
X0069139Y0247802D01*
X0067740Y0248419D02*
X0067123Y0247802D01*
X0065889Y0247802D01*
X0065272Y0248419D01*
X0065272Y0249036D01*
X0065889Y0249653D01*
X0067123Y0249653D01*
X0067740Y0249036D01*
X0067740Y0248419D01*
X0067123Y0247802D02*
X0067740Y0247184D01*
X0067740Y0246567D01*
X0067123Y0245950D01*
X0065889Y0245950D01*
X0065272Y0246567D01*
X0065272Y0247184D01*
X0065889Y0247802D01*
X0066533Y0252250D02*
X0065916Y0252867D01*
X0065916Y0254102D01*
X0066533Y0254719D01*
X0067768Y0254719D01*
X0068385Y0254102D01*
X0068385Y0253484D01*
X0065916Y0253484D01*
X0066533Y0252250D02*
X0067768Y0252250D01*
X0069784Y0254719D02*
X0071018Y0252250D01*
X0072252Y0254719D01*
X0077518Y0254102D02*
X0079370Y0254102D01*
X0079987Y0253484D01*
X0079987Y0252867D01*
X0079370Y0252250D01*
X0077518Y0252250D01*
X0077518Y0255953D01*
X0079370Y0255953D01*
X0079987Y0255336D01*
X0079987Y0254719D01*
X0079370Y0254102D01*
X0081385Y0254102D02*
X0081385Y0252867D01*
X0082003Y0252250D01*
X0083237Y0252250D01*
X0083854Y0252867D01*
X0083854Y0254102D01*
X0083237Y0254719D01*
X0082003Y0254719D01*
X0081385Y0254102D01*
X0085253Y0252867D02*
X0085870Y0253484D01*
X0087721Y0253484D01*
X0087721Y0254102D02*
X0087721Y0252250D01*
X0085870Y0252250D01*
X0085253Y0252867D01*
X0085870Y0254719D02*
X0087104Y0254719D01*
X0087721Y0254102D01*
X0089120Y0254719D02*
X0089120Y0252250D01*
X0089120Y0253484D02*
X0090354Y0254719D01*
X0090972Y0254719D01*
X0092343Y0254102D02*
X0092960Y0254719D01*
X0094812Y0254719D01*
X0094812Y0255953D02*
X0094812Y0252250D01*
X0092960Y0252250D01*
X0092343Y0252867D01*
X0092343Y0254102D01*
X0092288Y0242119D02*
X0092905Y0242119D01*
X0092288Y0242119D02*
X0091054Y0240884D01*
X0091054Y0239650D02*
X0091054Y0242119D01*
X0089655Y0241502D02*
X0089655Y0240884D01*
X0087186Y0240884D01*
X0087186Y0240267D02*
X0087186Y0241502D01*
X0087804Y0242119D01*
X0089038Y0242119D01*
X0089655Y0241502D01*
X0089038Y0239650D02*
X0087804Y0239650D01*
X0087186Y0240267D01*
X0085815Y0239650D02*
X0083964Y0240884D01*
X0085815Y0242119D01*
X0083964Y0243353D02*
X0083964Y0239650D01*
X0082565Y0239650D02*
X0082565Y0241502D01*
X0081948Y0242119D01*
X0080714Y0242119D01*
X0080714Y0240884D02*
X0082565Y0240884D01*
X0082565Y0239650D02*
X0080714Y0239650D01*
X0080096Y0240267D01*
X0080714Y0240884D01*
X0078698Y0241502D02*
X0078698Y0239650D01*
X0077463Y0239650D02*
X0077463Y0241502D01*
X0078081Y0242119D01*
X0078698Y0241502D01*
X0077463Y0241502D02*
X0076846Y0242119D01*
X0076229Y0242119D01*
X0076229Y0239650D01*
X0067151Y0239650D02*
X0066533Y0240267D01*
X0064518Y0242119D02*
X0062666Y0242119D01*
X0060650Y0241502D02*
X0060650Y0240884D01*
X0058182Y0240884D01*
X0058182Y0240267D02*
X0058182Y0241502D01*
X0058799Y0242119D01*
X0060033Y0242119D01*
X0060650Y0241502D01*
X0060033Y0239650D02*
X0058799Y0239650D01*
X0058182Y0240267D01*
X0052916Y0242119D02*
X0050447Y0239650D01*
X0062049Y0252250D02*
X0063901Y0252250D01*
X0064518Y0252867D01*
X0064518Y0255336D01*
X0063901Y0255953D01*
X0062049Y0255953D01*
X0062049Y0252250D01*
X0094276Y0240267D02*
X0094894Y0240267D01*
X0094894Y0239650D01*
X0094276Y0239650D01*
X0094276Y0240267D01*
X0096210Y0240267D02*
X0096210Y0241502D01*
X0096827Y0242119D01*
X0098679Y0242119D01*
X0100077Y0241502D02*
X0100077Y0240267D01*
X0100695Y0239650D01*
X0101929Y0239650D01*
X0102546Y0240267D01*
X0102546Y0241502D01*
X0101929Y0242119D01*
X0100695Y0242119D01*
X0100077Y0241502D01*
X0098679Y0239650D02*
X0096827Y0239650D01*
X0096210Y0240267D01*
X0103945Y0239650D02*
X0103945Y0242119D01*
X0104562Y0242119D01*
X0105179Y0241502D01*
X0105796Y0242119D01*
X0106413Y0241502D01*
X0106413Y0239650D01*
X0105179Y0239650D02*
X0105179Y0241502D01*
D14*
X0058338Y0047932D02*
X0055736Y0047932D01*
X0054435Y0046631D01*
X0054435Y0041426D01*
X0055736Y0040125D01*
X0058338Y0040125D01*
X0059640Y0041426D01*
X0059640Y0046631D02*
X0058338Y0047932D01*
X0051813Y0046631D02*
X0051813Y0041426D01*
X0050512Y0040125D01*
X0046608Y0040125D01*
X0046608Y0047932D01*
X0050512Y0047932D01*
X0051813Y0046631D01*
X0036160Y0047932D02*
X0036160Y0042727D01*
X0033557Y0040125D01*
X0030955Y0042727D01*
X0030955Y0047932D01*
X0028333Y0047932D02*
X0023128Y0047932D01*
X0023128Y0044028D01*
X0025731Y0045329D01*
X0027032Y0045329D01*
X0028333Y0044028D01*
X0028333Y0041426D01*
X0027032Y0040125D01*
X0024430Y0040125D01*
X0023128Y0041426D01*
D15*
X0022645Y0026253D02*
X0022645Y0024701D01*
X0023679Y0025218D01*
X0024196Y0025218D01*
X0024713Y0024701D01*
X0024713Y0023667D01*
X0024196Y0023150D01*
X0023162Y0023150D01*
X0022645Y0023667D01*
X0023162Y0021153D02*
X0022645Y0020636D01*
X0023162Y0021153D02*
X0024196Y0021153D01*
X0024713Y0020636D01*
X0024713Y0020118D01*
X0022645Y0018050D01*
X0024713Y0018050D01*
X0025776Y0018050D02*
X0026293Y0018050D01*
X0026293Y0018567D01*
X0025776Y0018567D01*
X0025776Y0018050D01*
X0027341Y0018050D02*
X0029409Y0018050D01*
X0028375Y0018050D02*
X0028375Y0021153D01*
X0027341Y0020118D01*
X0026810Y0023150D02*
X0025776Y0024184D01*
X0025776Y0026253D01*
X0024713Y0026253D02*
X0022645Y0026253D01*
X0026810Y0023150D02*
X0027844Y0024184D01*
X0027844Y0026253D01*
X0030472Y0020118D02*
X0030989Y0020118D01*
X0031506Y0019601D01*
X0032023Y0020118D01*
X0032540Y0019601D01*
X0032540Y0018050D01*
X0031506Y0018050D02*
X0031506Y0019601D01*
X0030472Y0020118D02*
X0030472Y0018050D01*
X0032037Y0023150D02*
X0033588Y0023150D01*
X0034105Y0023667D01*
X0034105Y0025736D01*
X0033588Y0026253D01*
X0032037Y0026253D01*
X0032037Y0023150D01*
X0033602Y0020118D02*
X0033602Y0018050D01*
X0034636Y0018050D02*
X0034636Y0019601D01*
X0035153Y0020118D01*
X0035671Y0019601D01*
X0035671Y0018050D01*
X0034636Y0019601D02*
X0034119Y0020118D01*
X0033602Y0020118D01*
X0035685Y0023150D02*
X0036719Y0023150D01*
X0037236Y0023667D01*
X0035685Y0023150D02*
X0035168Y0023667D01*
X0035168Y0025736D01*
X0035685Y0026253D01*
X0036719Y0026253D01*
X0037236Y0025736D01*
X0039864Y0021153D02*
X0039864Y0018050D01*
X0039864Y0019084D02*
X0041415Y0019084D01*
X0041932Y0019601D01*
X0041932Y0020636D01*
X0041415Y0021153D01*
X0039864Y0021153D01*
X0042994Y0019601D02*
X0042994Y0018567D01*
X0043511Y0018050D01*
X0044546Y0018050D01*
X0045063Y0018567D01*
X0045063Y0019601D01*
X0044546Y0020118D01*
X0043511Y0020118D01*
X0042994Y0019601D01*
X0046125Y0020118D02*
X0046125Y0018567D01*
X0046642Y0018050D01*
X0047159Y0018567D01*
X0047676Y0018050D01*
X0048193Y0018567D01*
X0048193Y0020118D01*
X0049256Y0019601D02*
X0049773Y0020118D01*
X0050807Y0020118D01*
X0051324Y0019601D01*
X0051324Y0019084D01*
X0049256Y0019084D01*
X0049256Y0018567D02*
X0049256Y0019601D01*
X0049256Y0018567D02*
X0049773Y0018050D01*
X0050807Y0018050D01*
X0052386Y0018050D02*
X0052386Y0020118D01*
X0052386Y0019084D02*
X0053420Y0020118D01*
X0053938Y0020118D01*
X0071089Y0063850D02*
X0072757Y0063850D01*
X0071923Y0063850D02*
X0071923Y0066352D01*
X0071089Y0065518D01*
X0073667Y0064684D02*
X0075335Y0066352D01*
X0073667Y0066352D02*
X0073667Y0063850D01*
X0074084Y0065101D02*
X0075335Y0063850D01*
X0073387Y0071603D02*
X0073387Y0074105D01*
X0075055Y0074105D01*
X0074221Y0072854D02*
X0073387Y0072854D01*
X0072477Y0073271D02*
X0072477Y0071603D01*
X0071226Y0071603D01*
X0070809Y0072020D01*
X0070809Y0073271D01*
X0069899Y0071603D02*
X0068231Y0071603D01*
X0069065Y0071603D02*
X0069065Y0074105D01*
X0068231Y0073271D01*
X0071289Y0078813D02*
X0071706Y0079230D01*
X0071706Y0080064D01*
X0072123Y0079647D01*
X0072540Y0079647D01*
X0072957Y0080064D01*
X0072957Y0080898D01*
X0073867Y0080898D02*
X0074701Y0080898D01*
X0073867Y0079647D02*
X0073867Y0082149D01*
X0075535Y0082149D01*
X0071706Y0080898D02*
X0071706Y0080064D01*
X0070379Y0080064D02*
X0070379Y0081732D01*
X0068711Y0080064D01*
X0069128Y0079647D01*
X0069962Y0079647D01*
X0070379Y0080064D01*
X0070379Y0081732D02*
X0069962Y0082149D01*
X0069128Y0082149D01*
X0068711Y0081732D01*
X0068711Y0080064D01*
X0067800Y0079647D02*
X0066132Y0079647D01*
X0066966Y0079647D02*
X0066966Y0082149D01*
X0066132Y0081315D01*
X0068295Y0114825D02*
X0069963Y0114825D01*
X0069129Y0114825D02*
X0069129Y0117327D01*
X0068295Y0116493D01*
X0070873Y0116910D02*
X0071290Y0117327D01*
X0072124Y0117327D01*
X0072541Y0116910D01*
X0070873Y0115242D01*
X0071290Y0114825D01*
X0072124Y0114825D01*
X0072541Y0115242D01*
X0072541Y0116910D01*
X0073452Y0116910D02*
X0073869Y0117327D01*
X0074703Y0117327D01*
X0075120Y0116910D01*
X0073452Y0115242D01*
X0073869Y0114825D01*
X0074703Y0114825D01*
X0075120Y0115242D01*
X0075120Y0116910D01*
X0076030Y0117327D02*
X0076030Y0114825D01*
X0076030Y0115659D02*
X0077698Y0117327D01*
X0076447Y0116076D02*
X0077698Y0114825D01*
X0073452Y0115242D02*
X0073452Y0116910D01*
X0070873Y0116910D02*
X0070873Y0115242D01*
X0061562Y0117527D02*
X0059894Y0117527D01*
X0059894Y0115025D01*
X0058984Y0115025D02*
X0058984Y0116693D01*
X0059894Y0116276D02*
X0060728Y0116276D01*
X0058984Y0115025D02*
X0057733Y0115025D01*
X0057316Y0115442D01*
X0057316Y0116693D01*
X0056406Y0115025D02*
X0054737Y0115025D01*
X0055571Y0115025D02*
X0055571Y0117527D01*
X0054737Y0116693D01*
X0053865Y0115442D02*
X0053865Y0115025D01*
X0053448Y0115025D01*
X0053448Y0115442D01*
X0053865Y0115442D01*
X0052538Y0115442D02*
X0052121Y0115025D01*
X0051287Y0115025D01*
X0050870Y0115442D01*
X0052538Y0117110D01*
X0052538Y0115442D01*
X0050870Y0115442D02*
X0050870Y0117110D01*
X0051287Y0117527D01*
X0052121Y0117527D01*
X0052538Y0117110D01*
X0049326Y0123226D02*
X0048492Y0123226D01*
X0047582Y0123643D02*
X0047582Y0121975D01*
X0046331Y0121975D01*
X0045914Y0122392D01*
X0045914Y0123643D01*
X0045004Y0121975D02*
X0043336Y0121975D01*
X0044170Y0121975D02*
X0044170Y0124477D01*
X0043336Y0123643D01*
X0048492Y0124477D02*
X0048492Y0121975D01*
X0048492Y0124477D02*
X0050160Y0124477D01*
X0046560Y0100527D02*
X0044892Y0100527D01*
X0044892Y0098025D01*
X0043982Y0098025D02*
X0043982Y0099693D01*
X0044892Y0099276D02*
X0045726Y0099276D01*
X0043982Y0098025D02*
X0042731Y0098025D01*
X0042314Y0098442D01*
X0042314Y0099693D01*
X0041404Y0100110D02*
X0040987Y0100527D01*
X0040153Y0100527D01*
X0039736Y0100110D01*
X0039736Y0098442D01*
X0041404Y0100110D01*
X0041404Y0098442D01*
X0040987Y0098025D01*
X0040153Y0098025D01*
X0039736Y0098442D01*
X0038825Y0098025D02*
X0037157Y0098025D01*
X0037991Y0098025D02*
X0037991Y0100527D01*
X0037157Y0099693D01*
X0038383Y0094027D02*
X0037132Y0092776D01*
X0038800Y0092776D01*
X0039711Y0091942D02*
X0039711Y0091525D01*
X0039711Y0091942D02*
X0041379Y0093610D01*
X0041379Y0094027D01*
X0039711Y0094027D01*
X0038383Y0094027D02*
X0038383Y0091525D01*
X0042289Y0091942D02*
X0042706Y0091525D01*
X0043540Y0091525D01*
X0043957Y0091942D01*
X0043957Y0093610D01*
X0042289Y0091942D01*
X0042289Y0093610D01*
X0042706Y0094027D01*
X0043540Y0094027D01*
X0043957Y0093610D01*
X0044867Y0094027D02*
X0044867Y0091525D01*
X0044867Y0092359D02*
X0046535Y0094027D01*
X0045284Y0092776D02*
X0046535Y0091525D01*
X0074052Y0141540D02*
X0073218Y0142374D01*
X0075720Y0142374D01*
X0075720Y0141540D02*
X0075720Y0143208D01*
X0075303Y0144119D02*
X0073635Y0145787D01*
X0075303Y0145787D01*
X0075720Y0145370D01*
X0075720Y0144536D01*
X0075303Y0144119D01*
X0073635Y0144119D01*
X0073218Y0144536D01*
X0073218Y0145370D01*
X0073635Y0145787D01*
X0073218Y0146697D02*
X0075720Y0146697D01*
X0074886Y0146697D02*
X0073218Y0148365D01*
X0074469Y0147114D02*
X0075720Y0148365D01*
X0085845Y0114752D02*
X0085011Y0113918D01*
X0085845Y0114752D02*
X0085845Y0112250D01*
X0085011Y0112250D02*
X0086679Y0112250D01*
X0087589Y0112667D02*
X0089257Y0114335D01*
X0089257Y0112667D01*
X0088840Y0112250D01*
X0088006Y0112250D01*
X0087589Y0112667D01*
X0087589Y0114335D01*
X0088006Y0114752D01*
X0088840Y0114752D01*
X0089257Y0114335D01*
X0090167Y0114752D02*
X0090167Y0112250D01*
X0090167Y0113084D02*
X0091835Y0114752D01*
X0090584Y0113501D02*
X0091835Y0112250D01*
X0091535Y0094652D02*
X0089867Y0092984D01*
X0090284Y0093401D02*
X0091535Y0092150D01*
X0089867Y0092150D02*
X0089867Y0094652D01*
X0088957Y0094235D02*
X0087289Y0092567D01*
X0087706Y0092150D01*
X0088540Y0092150D01*
X0088957Y0092567D01*
X0088957Y0094235D01*
X0088540Y0094652D01*
X0087706Y0094652D01*
X0087289Y0094235D01*
X0087289Y0092567D01*
X0086379Y0092150D02*
X0084711Y0092150D01*
X0085545Y0092150D02*
X0085545Y0094652D01*
X0084711Y0093818D01*
X0109068Y0062671D02*
X0110736Y0061003D01*
X0110319Y0061420D02*
X0111570Y0062671D01*
X0111570Y0061003D02*
X0109068Y0061003D01*
X0109068Y0059259D02*
X0111570Y0059259D01*
X0111570Y0058425D02*
X0111570Y0060093D01*
X0109902Y0058425D02*
X0109068Y0059259D01*
X0113370Y0085550D02*
X0115038Y0085550D01*
X0114204Y0085550D02*
X0114204Y0088052D01*
X0113370Y0087218D01*
X0115948Y0086384D02*
X0117616Y0088052D01*
X0116365Y0086801D02*
X0117616Y0085550D01*
X0115948Y0085550D02*
X0115948Y0088052D01*
X0101245Y0142190D02*
X0101245Y0143858D01*
X0101245Y0143024D02*
X0098743Y0143024D01*
X0099577Y0142190D01*
X0099160Y0144769D02*
X0098743Y0145186D01*
X0098743Y0146020D01*
X0099160Y0146437D01*
X0100828Y0144769D01*
X0101245Y0145186D01*
X0101245Y0146020D01*
X0100828Y0146437D01*
X0099160Y0146437D01*
X0098743Y0147347D02*
X0101245Y0147347D01*
X0100411Y0147347D02*
X0098743Y0149015D01*
X0099994Y0147764D02*
X0101245Y0149015D01*
X0100828Y0144769D02*
X0099160Y0144769D01*
X0102535Y0243644D02*
X0105009Y0245661D01*
X0106005Y0245148D01*
X0107418Y0248558D01*
X0106886Y0248842D01*
X0106420Y0249225D01*
X0106037Y0249691D01*
X0105753Y0250223D01*
X0105578Y0250800D01*
X0105519Y0251400D01*
X0105584Y0252028D01*
X0105776Y0252630D01*
X0106086Y0253180D01*
X0106503Y0253655D01*
X0107008Y0254035D01*
X0107579Y0254303D01*
X0108194Y0254450D01*
X0108825Y0254467D01*
X0109447Y0254356D01*
X0110032Y0254120D01*
X0110557Y0253769D01*
X0111000Y0253318D01*
X0111341Y0252786D01*
X0111566Y0252196D01*
X0111666Y0251573D01*
X0111637Y0250942D01*
X0111479Y0250330D01*
X0111200Y0249764D01*
X0110810Y0249266D01*
X0110328Y0248859D01*
X0109772Y0248558D01*
X0111185Y0245148D01*
X0112181Y0245661D01*
X0114655Y0243644D01*
X0116351Y0245340D01*
X0114334Y0247814D01*
X0114847Y0248811D01*
X0115188Y0249878D01*
X0118364Y0250200D01*
X0118364Y0252600D01*
X0115188Y0252922D01*
X0114847Y0253989D01*
X0114334Y0254986D01*
X0116351Y0257460D01*
X0114655Y0259156D01*
X0112181Y0257139D01*
X0111185Y0257652D01*
X0110117Y0257993D01*
X0109795Y0261169D01*
X0107396Y0261169D01*
X0107073Y0257993D01*
X0106006Y0257652D01*
X0105009Y0257139D01*
X0102535Y0259156D01*
X0100839Y0257460D01*
X0102857Y0254986D01*
X0102343Y0253989D01*
X0102002Y0252922D01*
X0098826Y0252600D01*
X0098826Y0250200D01*
X0102002Y0249878D01*
X0102343Y0248811D01*
X0102857Y0247814D01*
X0100839Y0245340D01*
X0102535Y0243644D01*
X0102351Y0243828D02*
X0102761Y0243828D01*
X0103127Y0244127D02*
X0102052Y0244127D01*
X0101754Y0244425D02*
X0103494Y0244425D01*
X0103860Y0244724D02*
X0101455Y0244724D01*
X0101157Y0245022D02*
X0104226Y0245022D01*
X0104592Y0245321D02*
X0100858Y0245321D01*
X0101067Y0245619D02*
X0104958Y0245619D01*
X0105091Y0245619D02*
X0106201Y0245619D01*
X0106077Y0245321D02*
X0105670Y0245321D01*
X0106324Y0245918D02*
X0101310Y0245918D01*
X0101554Y0246216D02*
X0106448Y0246216D01*
X0106572Y0246515D02*
X0101797Y0246515D01*
X0102041Y0246814D02*
X0106695Y0246814D01*
X0106819Y0247112D02*
X0102284Y0247112D01*
X0102527Y0247411D02*
X0106943Y0247411D01*
X0107066Y0247709D02*
X0102771Y0247709D01*
X0102757Y0248008D02*
X0107190Y0248008D01*
X0107314Y0248306D02*
X0102603Y0248306D01*
X0102449Y0248605D02*
X0107331Y0248605D01*
X0106812Y0248903D02*
X0102314Y0248903D01*
X0102218Y0249202D02*
X0106449Y0249202D01*
X0106194Y0249500D02*
X0102123Y0249500D01*
X0102027Y0249799D02*
X0105980Y0249799D01*
X0105820Y0250097D02*
X0099843Y0250097D01*
X0098826Y0250396D02*
X0105701Y0250396D01*
X0105610Y0250694D02*
X0098826Y0250694D01*
X0098826Y0250993D02*
X0105559Y0250993D01*
X0105530Y0251291D02*
X0098826Y0251291D01*
X0098826Y0251590D02*
X0105539Y0251590D01*
X0105570Y0251888D02*
X0098826Y0251888D01*
X0098826Y0252187D02*
X0105635Y0252187D01*
X0105730Y0252485D02*
X0098826Y0252485D01*
X0100640Y0252784D02*
X0105863Y0252784D01*
X0106031Y0253082D02*
X0102053Y0253082D01*
X0102149Y0253381D02*
X0106263Y0253381D01*
X0106535Y0253679D02*
X0102244Y0253679D01*
X0102340Y0253978D02*
X0106932Y0253978D01*
X0107522Y0254276D02*
X0102491Y0254276D01*
X0102645Y0254575D02*
X0114545Y0254575D01*
X0114392Y0254873D02*
X0102799Y0254873D01*
X0102705Y0255172D02*
X0114485Y0255172D01*
X0114729Y0255470D02*
X0102461Y0255470D01*
X0102218Y0255769D02*
X0114972Y0255769D01*
X0115216Y0256067D02*
X0101975Y0256067D01*
X0101731Y0256366D02*
X0115459Y0256366D01*
X0115702Y0256664D02*
X0101488Y0256664D01*
X0101244Y0256963D02*
X0115946Y0256963D01*
X0116189Y0257261D02*
X0112332Y0257261D01*
X0111942Y0257261D02*
X0105248Y0257261D01*
X0104859Y0257261D02*
X0101001Y0257261D01*
X0100939Y0257560D02*
X0104493Y0257560D01*
X0104127Y0257858D02*
X0101238Y0257858D01*
X0101536Y0258157D02*
X0103760Y0258157D01*
X0103394Y0258455D02*
X0101835Y0258455D01*
X0102133Y0258754D02*
X0103028Y0258754D01*
X0102662Y0259052D02*
X0102432Y0259052D01*
X0105827Y0257560D02*
X0111363Y0257560D01*
X0110539Y0257858D02*
X0106652Y0257858D01*
X0107090Y0258157D02*
X0110101Y0258157D01*
X0110070Y0258455D02*
X0107120Y0258455D01*
X0107150Y0258754D02*
X0110040Y0258754D01*
X0110010Y0259052D02*
X0107181Y0259052D01*
X0107211Y0259351D02*
X0109979Y0259351D01*
X0109949Y0259650D02*
X0107241Y0259650D01*
X0107272Y0259948D02*
X0109919Y0259948D01*
X0109888Y0260247D02*
X0107302Y0260247D01*
X0107332Y0260545D02*
X0109858Y0260545D01*
X0109828Y0260844D02*
X0107362Y0260844D01*
X0107393Y0261142D02*
X0109798Y0261142D01*
X0112698Y0257560D02*
X0116251Y0257560D01*
X0115952Y0257858D02*
X0113064Y0257858D01*
X0113430Y0258157D02*
X0115654Y0258157D01*
X0115355Y0258455D02*
X0113796Y0258455D01*
X0114162Y0258754D02*
X0115057Y0258754D01*
X0114758Y0259052D02*
X0114528Y0259052D01*
X0114699Y0254276D02*
X0109643Y0254276D01*
X0110244Y0253978D02*
X0114851Y0253978D01*
X0114946Y0253679D02*
X0110645Y0253679D01*
X0110938Y0253381D02*
X0115042Y0253381D01*
X0115137Y0253082D02*
X0111151Y0253082D01*
X0111342Y0252784D02*
X0116551Y0252784D01*
X0118364Y0252485D02*
X0111456Y0252485D01*
X0111568Y0252187D02*
X0118364Y0252187D01*
X0118364Y0251888D02*
X0111616Y0251888D01*
X0111663Y0251590D02*
X0118364Y0251590D01*
X0118364Y0251291D02*
X0111653Y0251291D01*
X0111639Y0250993D02*
X0118364Y0250993D01*
X0118364Y0250694D02*
X0111573Y0250694D01*
X0111496Y0250396D02*
X0118364Y0250396D01*
X0117347Y0250097D02*
X0111364Y0250097D01*
X0111217Y0249799D02*
X0115163Y0249799D01*
X0115068Y0249500D02*
X0110994Y0249500D01*
X0110734Y0249202D02*
X0114972Y0249202D01*
X0114876Y0248903D02*
X0110381Y0248903D01*
X0109858Y0248605D02*
X0114741Y0248605D01*
X0114587Y0248306D02*
X0109877Y0248306D01*
X0110000Y0248008D02*
X0114433Y0248008D01*
X0114419Y0247709D02*
X0110124Y0247709D01*
X0110248Y0247411D02*
X0114663Y0247411D01*
X0114906Y0247112D02*
X0110371Y0247112D01*
X0110495Y0246814D02*
X0115150Y0246814D01*
X0115393Y0246515D02*
X0110619Y0246515D01*
X0110742Y0246216D02*
X0115636Y0246216D01*
X0115880Y0245918D02*
X0110866Y0245918D01*
X0110990Y0245619D02*
X0112100Y0245619D01*
X0112232Y0245619D02*
X0116123Y0245619D01*
X0116332Y0245321D02*
X0112598Y0245321D01*
X0112965Y0245022D02*
X0116033Y0245022D01*
X0115735Y0244724D02*
X0113331Y0244724D01*
X0113697Y0244425D02*
X0115436Y0244425D01*
X0115138Y0244127D02*
X0114063Y0244127D01*
X0114429Y0243828D02*
X0114839Y0243828D01*
X0111520Y0245321D02*
X0111113Y0245321D01*
X0035368Y0258202D02*
X0033433Y0258202D01*
X0033433Y0255300D01*
X0032421Y0255300D02*
X0032421Y0257235D01*
X0033433Y0256751D02*
X0034400Y0256751D01*
X0032421Y0255300D02*
X0030970Y0255300D01*
X0030486Y0255784D01*
X0030486Y0257235D01*
X0029475Y0255300D02*
X0027540Y0255300D01*
X0028507Y0255300D02*
X0028507Y0258202D01*
X0027540Y0257235D01*
X0026550Y0255784D02*
X0026550Y0255300D01*
X0026067Y0255300D01*
X0026067Y0255784D01*
X0026550Y0255784D01*
X0025055Y0255784D02*
X0024571Y0255300D01*
X0023604Y0255300D01*
X0023120Y0255784D01*
X0025055Y0257719D01*
X0025055Y0255784D01*
X0025055Y0257719D02*
X0024571Y0258202D01*
X0023604Y0258202D01*
X0023120Y0257719D01*
X0023120Y0255784D01*
D16*
X0026595Y0247400D02*
X0030595Y0247400D01*
X0067045Y0142400D02*
X0071045Y0142400D01*
X0057845Y0127650D02*
X0057845Y0123650D01*
X0054970Y0112400D02*
X0054970Y0108400D01*
X0054970Y0103400D02*
X0054970Y0099400D01*
X0054970Y0094900D02*
X0054970Y0090900D01*
X0041506Y0086648D02*
X0041506Y0082711D01*
X0041435Y0086620D02*
X0037569Y0086620D01*
X0037569Y0086648D01*
X0025758Y0086648D02*
X0021821Y0086648D01*
X0021821Y0055152D02*
X0025758Y0055152D01*
X0037569Y0055152D02*
X0041506Y0055152D01*
X0041506Y0059089D01*
X0066795Y0040150D02*
X0070795Y0040150D01*
X0070595Y0017650D02*
X0066595Y0017650D01*
X0082995Y0065400D02*
X0082995Y0069400D01*
X0082995Y0073192D02*
X0082995Y0077192D01*
X0082995Y0081209D02*
X0082995Y0085209D01*
X0072695Y0108400D02*
X0072695Y0112400D01*
X0092345Y0142400D02*
X0096345Y0142400D01*
X0098595Y0117400D02*
X0098595Y0113400D01*
X0098595Y0097400D02*
X0098595Y0093400D01*
X0113345Y0078650D02*
X0117345Y0078650D01*
X0117595Y0057150D02*
X0113595Y0057150D01*
X0047895Y0137800D02*
X0043895Y0137800D01*
D17*
X0038795Y0138678D03*
D18*
X0069293Y0057377D02*
X0069293Y0055910D01*
X0071495Y0055910D01*
X0071495Y0055168D02*
X0070027Y0055168D01*
X0070394Y0055910D02*
X0070394Y0056644D01*
X0071495Y0055168D02*
X0071495Y0054067D01*
X0071128Y0053700D01*
X0070027Y0053700D01*
X0071495Y0052958D02*
X0071495Y0051490D01*
X0071495Y0052224D02*
X0069293Y0052224D01*
X0070027Y0051490D01*
X0071128Y0050752D02*
X0071495Y0050752D01*
X0071495Y0050385D01*
X0071128Y0050385D01*
X0071128Y0050752D01*
X0071128Y0049643D02*
X0071495Y0049276D01*
X0071495Y0048542D01*
X0071128Y0048175D01*
X0069660Y0049643D01*
X0071128Y0049643D01*
X0069660Y0049643D02*
X0069293Y0049276D01*
X0069293Y0048542D01*
X0069660Y0048175D01*
X0071128Y0048175D01*
X0068043Y0033223D02*
X0068043Y0031755D01*
X0070245Y0031755D01*
X0070245Y0031013D02*
X0069144Y0031013D01*
X0068777Y0030646D01*
X0068777Y0029545D01*
X0070245Y0029545D01*
X0069878Y0028803D02*
X0070245Y0028436D01*
X0070245Y0027702D01*
X0069878Y0027335D01*
X0068410Y0028803D01*
X0069878Y0028803D01*
X0068410Y0028803D02*
X0068043Y0028436D01*
X0068043Y0027702D01*
X0068410Y0027335D01*
X0069878Y0027335D01*
X0070245Y0026593D02*
X0070245Y0025125D01*
X0070245Y0025859D02*
X0068043Y0025859D01*
X0068777Y0025125D01*
X0069144Y0031755D02*
X0069144Y0032489D01*
D19*
X0082067Y0060275D03*
D20*
X0060445Y0077475D03*
X0051570Y0077475D03*
D21*
X0102595Y0100150D03*
M02*
