%
M48
M72
T01C0.02165
T02C0.02362
T03C0.02559
T04C0.03346
T05C0.03937
T06C0.05118
%
T01
X55545Y141400
X92595Y29900
X110595Y22900
T02
X102595Y23400
X102595Y43400
X103252Y59057
X109661Y65900
X115095Y68400
X107595Y80900
X104696Y87400
X95095Y77400
X93995Y50400
X90095Y108400
X82745Y124775
X69845Y121400
X68595Y127650
X72820Y153550
X72595Y170900
X82595Y180900
X98595Y210900
X95095Y215900
X95595Y232400
X73095Y222900
X52595Y223400
X48095Y232400
X45095Y221585
X44095Y196400
X44095Y191238
X44095Y176400
X42595Y158900
X60095Y180900
X102595Y156062
X104114Y161224
X105995Y145900
X103595Y134900
X106595Y107900
X64620Y88525
T03
X82845Y30650
T04
X38357Y63420
X38357Y78380
T05
X26095Y96400
X26095Y106400
X26095Y116400
X26095Y126400
X26095Y136400
X26095Y146400
X26095Y156400
X26095Y166400
X26095Y176400
X26095Y186400
X26095Y196400
X26095Y206400
X26095Y216400
X26095Y226400
X26095Y236400
X116095Y236400
X116095Y226400
X116095Y216400
X116095Y206400
X116095Y196400
X116095Y186400
X116095Y176400
X116095Y166400
X116095Y156400
X116095Y146400
X116095Y136400
X116095Y126400
X116095Y116400
X116095Y106400
X116095Y96400
T06
X36198Y33400
X47221Y14502
X59032Y33400
M30
