G75*
%MOIN*%
%OFA0B0*%
%FSLAX25Y25*%
%IPPOS*%
%LPD*%
%AMOC8*
5,1,8,0,0,1.08239X$1,22.5*
%
%ADD10C,0.00300*%
%ADD11C,0.00800*%
%ADD12C,0.00500*%
%ADD13C,0.00787*%
%ADD14C,0.00700*%
D10*
X0028253Y0020118D02*
X0028770Y0020118D01*
X0029804Y0019084D01*
X0029804Y0018050D02*
X0029804Y0020118D01*
X0030866Y0019601D02*
X0030866Y0019084D01*
X0032935Y0019084D01*
X0032935Y0018567D02*
X0032935Y0019601D01*
X0032418Y0020118D01*
X0031383Y0020118D01*
X0030866Y0019601D01*
X0031383Y0018050D02*
X0032418Y0018050D01*
X0032935Y0018567D01*
X0033997Y0018567D02*
X0033997Y0020118D01*
X0033997Y0018567D02*
X0034514Y0018050D01*
X0035031Y0018567D01*
X0035548Y0018050D01*
X0036065Y0018567D01*
X0036065Y0020118D01*
X0037128Y0019601D02*
X0037645Y0020118D01*
X0038679Y0020118D01*
X0039196Y0019601D01*
X0039196Y0018567D01*
X0038679Y0018050D01*
X0037645Y0018050D01*
X0037128Y0018567D01*
X0037128Y0019601D01*
X0040258Y0019601D02*
X0040775Y0019084D01*
X0042327Y0019084D01*
X0042327Y0018050D02*
X0042327Y0021153D01*
X0040775Y0021153D01*
X0040258Y0020636D01*
X0040258Y0019601D01*
X0044954Y0023667D02*
X0045471Y0023150D01*
X0046506Y0023150D01*
X0047023Y0023667D01*
X0047023Y0025736D01*
X0046506Y0026253D01*
X0045471Y0026253D01*
X0044954Y0025736D01*
X0047037Y0020118D02*
X0046520Y0019601D01*
X0046520Y0018050D01*
X0047554Y0018050D02*
X0047554Y0019601D01*
X0047037Y0020118D01*
X0047554Y0019601D02*
X0048071Y0020118D01*
X0048588Y0020118D01*
X0048588Y0018050D01*
X0049650Y0018050D02*
X0049650Y0019601D01*
X0050167Y0020118D01*
X0050685Y0019601D01*
X0050685Y0018050D01*
X0051719Y0018050D02*
X0051719Y0020118D01*
X0051202Y0020118D01*
X0050685Y0019601D01*
X0052781Y0018050D02*
X0054849Y0018050D01*
X0053815Y0018050D02*
X0053815Y0021153D01*
X0054849Y0020118D01*
X0055898Y0018567D02*
X0055898Y0018050D01*
X0056415Y0018050D01*
X0056415Y0018567D01*
X0055898Y0018567D01*
X0057477Y0018050D02*
X0059545Y0018050D01*
X0057477Y0020118D01*
X0057477Y0020636D01*
X0057994Y0021153D01*
X0059028Y0021153D01*
X0059545Y0020636D01*
X0059028Y0023150D02*
X0057994Y0023150D01*
X0057477Y0023667D01*
X0057477Y0024701D01*
X0057994Y0025218D01*
X0058511Y0025218D01*
X0059545Y0024701D01*
X0059545Y0026253D01*
X0057477Y0026253D01*
X0056415Y0026253D02*
X0056415Y0024184D01*
X0055381Y0023150D01*
X0054346Y0024184D01*
X0054346Y0026253D01*
X0050153Y0026253D02*
X0050153Y0023150D01*
X0048602Y0023150D01*
X0048085Y0023667D01*
X0048085Y0025736D01*
X0048602Y0026253D01*
X0050153Y0026253D01*
X0059028Y0023150D02*
X0059545Y0023667D01*
X0034756Y0091854D02*
X0032687Y0091854D01*
X0032170Y0092371D01*
X0032170Y0093405D01*
X0032687Y0093922D01*
X0033721Y0093922D01*
X0033721Y0092888D01*
X0034756Y0091854D02*
X0035273Y0092371D01*
X0035273Y0093405D01*
X0034756Y0093922D01*
X0035273Y0094985D02*
X0032170Y0097053D01*
X0035273Y0097053D01*
X0035273Y0098115D02*
X0035273Y0099667D01*
X0034756Y0100184D01*
X0032687Y0100184D01*
X0032170Y0099667D01*
X0032170Y0098115D01*
X0035273Y0098115D01*
X0035273Y0094985D02*
X0032170Y0094985D01*
X0032687Y0103419D02*
X0032170Y0103936D01*
X0032170Y0104971D01*
X0032687Y0105488D01*
X0033721Y0105488D01*
X0034239Y0104971D01*
X0034239Y0104454D01*
X0033721Y0103419D01*
X0035273Y0103419D01*
X0035273Y0105488D01*
X0035273Y0106550D02*
X0033204Y0106550D01*
X0032170Y0107584D01*
X0033204Y0108618D01*
X0035273Y0108618D01*
X0032114Y0113419D02*
X0033148Y0114454D01*
X0030045Y0114454D01*
X0030045Y0115488D02*
X0030045Y0113419D01*
X0030562Y0116550D02*
X0030045Y0117067D01*
X0030045Y0118101D01*
X0030562Y0118618D01*
X0031079Y0118618D01*
X0031596Y0118101D01*
X0031596Y0117584D01*
X0031596Y0118101D02*
X0032114Y0118618D01*
X0032631Y0118618D01*
X0033148Y0118101D01*
X0033148Y0117067D01*
X0032631Y0116550D01*
X0032114Y0123419D02*
X0033148Y0124454D01*
X0030045Y0124454D01*
X0030045Y0125488D02*
X0030045Y0123419D01*
X0030045Y0126550D02*
X0032114Y0128618D01*
X0032631Y0128618D01*
X0033148Y0128101D01*
X0033148Y0127067D01*
X0032631Y0126550D01*
X0030045Y0126550D02*
X0030045Y0128618D01*
X0030045Y0133419D02*
X0030045Y0135488D01*
X0030045Y0134454D02*
X0033148Y0134454D01*
X0032114Y0133419D01*
X0031596Y0136550D02*
X0031596Y0138618D01*
X0030045Y0138101D02*
X0033148Y0138101D01*
X0031596Y0136550D01*
X0032631Y0143419D02*
X0033148Y0143936D01*
X0033148Y0144971D01*
X0032631Y0145488D01*
X0032114Y0145488D01*
X0030045Y0143419D01*
X0030045Y0145488D01*
X0030045Y0146550D02*
X0030562Y0146550D01*
X0032631Y0148618D01*
X0033148Y0148618D01*
X0033148Y0146550D01*
X0032631Y0153419D02*
X0033148Y0153936D01*
X0033148Y0154971D01*
X0032631Y0155488D01*
X0032114Y0155488D01*
X0031596Y0154971D01*
X0031079Y0155488D01*
X0030562Y0155488D01*
X0030045Y0154971D01*
X0030045Y0153936D01*
X0030562Y0153419D01*
X0031596Y0154454D02*
X0031596Y0154971D01*
X0030562Y0156550D02*
X0030045Y0157067D01*
X0030045Y0158101D01*
X0030562Y0158618D01*
X0031079Y0158618D01*
X0031596Y0158101D01*
X0031596Y0157584D01*
X0031596Y0158101D02*
X0032114Y0158618D01*
X0032631Y0158618D01*
X0033148Y0158101D01*
X0033148Y0157067D01*
X0032631Y0156550D01*
X0032631Y0163419D02*
X0033148Y0163936D01*
X0033148Y0164971D01*
X0032631Y0165488D01*
X0032114Y0165488D01*
X0031596Y0164971D01*
X0031079Y0165488D01*
X0030562Y0165488D01*
X0030045Y0164971D01*
X0030045Y0163936D01*
X0030562Y0163419D01*
X0031596Y0164454D02*
X0031596Y0164971D01*
X0032631Y0166550D02*
X0033148Y0167067D01*
X0033148Y0168101D01*
X0032631Y0168618D01*
X0032114Y0168618D01*
X0030045Y0166550D01*
X0030045Y0168618D01*
X0030045Y0173419D02*
X0032114Y0173419D01*
X0033148Y0174454D01*
X0032114Y0175488D01*
X0030045Y0175488D01*
X0030562Y0176550D02*
X0032631Y0178618D01*
X0030562Y0178618D01*
X0030045Y0178101D01*
X0030045Y0177067D01*
X0030562Y0176550D01*
X0032631Y0176550D01*
X0033148Y0177067D01*
X0033148Y0178101D01*
X0032631Y0178618D01*
X0031596Y0175488D02*
X0031596Y0173419D01*
X0031596Y0183419D02*
X0031596Y0185488D01*
X0032114Y0185488D02*
X0030045Y0185488D01*
X0030045Y0186550D02*
X0030045Y0188618D01*
X0030045Y0187584D02*
X0033148Y0187584D01*
X0032114Y0186550D01*
X0032114Y0185488D02*
X0033148Y0184454D01*
X0032114Y0183419D01*
X0030045Y0183419D01*
X0030045Y0193419D02*
X0032114Y0193419D01*
X0033148Y0194454D01*
X0032114Y0195488D01*
X0030045Y0195488D01*
X0030045Y0196550D02*
X0032114Y0198618D01*
X0032631Y0198618D01*
X0033148Y0198101D01*
X0033148Y0197067D01*
X0032631Y0196550D01*
X0031596Y0195488D02*
X0031596Y0193419D01*
X0030045Y0196550D02*
X0030045Y0198618D01*
X0030045Y0203419D02*
X0032114Y0203419D01*
X0033148Y0204454D01*
X0032114Y0205488D01*
X0030045Y0205488D01*
X0030562Y0206550D02*
X0030045Y0207067D01*
X0030045Y0208101D01*
X0030562Y0208618D01*
X0031079Y0208618D01*
X0031596Y0208101D01*
X0031596Y0207584D01*
X0031596Y0208101D02*
X0032114Y0208618D01*
X0032631Y0208618D01*
X0033148Y0208101D01*
X0033148Y0207067D01*
X0032631Y0206550D01*
X0031596Y0205488D02*
X0031596Y0203419D01*
X0031596Y0213419D02*
X0031596Y0215488D01*
X0032114Y0215488D02*
X0030045Y0215488D01*
X0031596Y0216550D02*
X0031596Y0218618D01*
X0030045Y0218101D02*
X0033148Y0218101D01*
X0031596Y0216550D01*
X0032114Y0215488D02*
X0033148Y0214454D01*
X0032114Y0213419D01*
X0030045Y0213419D01*
X0030045Y0221854D02*
X0033148Y0221854D01*
X0033148Y0223405D01*
X0032631Y0223922D01*
X0031596Y0223922D01*
X0031079Y0223405D01*
X0031079Y0221854D01*
X0031079Y0222888D02*
X0030045Y0223922D01*
X0030562Y0224985D02*
X0030045Y0225502D01*
X0030045Y0226536D01*
X0030562Y0227053D01*
X0031079Y0227053D01*
X0031596Y0226536D01*
X0031596Y0225502D01*
X0032114Y0224985D01*
X0032631Y0224985D01*
X0033148Y0225502D01*
X0033148Y0226536D01*
X0032631Y0227053D01*
X0033148Y0228115D02*
X0033148Y0230184D01*
X0032631Y0231071D02*
X0033148Y0231588D01*
X0033148Y0232623D01*
X0032631Y0233140D01*
X0032114Y0233140D01*
X0031596Y0232623D01*
X0031079Y0233140D01*
X0030562Y0233140D01*
X0030045Y0232623D01*
X0030045Y0231588D01*
X0030562Y0231071D01*
X0031596Y0232106D02*
X0031596Y0232623D01*
X0030562Y0234202D02*
X0030562Y0234719D01*
X0030045Y0234719D01*
X0030045Y0234202D01*
X0030562Y0234202D01*
X0030562Y0235767D02*
X0030045Y0236284D01*
X0030045Y0237319D01*
X0030562Y0237836D01*
X0031079Y0237836D01*
X0031596Y0237319D01*
X0031596Y0236802D01*
X0031596Y0237319D02*
X0032114Y0237836D01*
X0032631Y0237836D01*
X0033148Y0237319D01*
X0033148Y0236284D01*
X0032631Y0235767D01*
X0033148Y0238898D02*
X0031079Y0238898D01*
X0030045Y0239932D01*
X0031079Y0240966D01*
X0033148Y0240966D01*
X0033886Y0249475D02*
X0033236Y0250126D01*
X0033236Y0251427D01*
X0033886Y0252077D01*
X0035187Y0252077D01*
X0035838Y0251427D01*
X0035838Y0250126D01*
X0035187Y0249475D01*
X0033886Y0249475D01*
X0031971Y0249475D02*
X0031971Y0252077D01*
X0031320Y0252077D01*
X0030670Y0251427D01*
X0030019Y0252077D01*
X0029368Y0251427D01*
X0029368Y0249475D01*
X0030670Y0249475D02*
X0030670Y0251427D01*
X0037103Y0252077D02*
X0039055Y0252077D01*
X0039705Y0251427D01*
X0039705Y0250126D01*
X0039055Y0249475D01*
X0037103Y0249475D01*
X0040988Y0249475D02*
X0041639Y0249475D01*
X0041639Y0250126D01*
X0040988Y0250126D01*
X0040988Y0249475D01*
X0042910Y0252077D02*
X0043561Y0252077D01*
X0044862Y0250776D01*
X0046127Y0250776D02*
X0048729Y0250776D01*
X0048729Y0250126D02*
X0048729Y0251427D01*
X0048078Y0252077D01*
X0046777Y0252077D01*
X0046127Y0251427D01*
X0046127Y0250776D01*
X0046777Y0249475D02*
X0048078Y0249475D01*
X0048729Y0250126D01*
X0050000Y0249475D02*
X0051952Y0250776D01*
X0050000Y0252077D01*
X0051952Y0253378D02*
X0051952Y0249475D01*
X0053217Y0249475D02*
X0053217Y0251427D01*
X0053867Y0252077D01*
X0055168Y0252077D01*
X0055168Y0250776D02*
X0053217Y0250776D01*
X0053217Y0249475D02*
X0055168Y0249475D01*
X0055819Y0250126D01*
X0055168Y0250776D01*
X0057084Y0251427D02*
X0057084Y0249475D01*
X0058385Y0249475D02*
X0058385Y0251427D01*
X0057735Y0252077D01*
X0057084Y0251427D01*
X0058385Y0251427D02*
X0059036Y0252077D01*
X0059686Y0252077D01*
X0059686Y0249475D01*
X0060951Y0249475D02*
X0062903Y0249475D01*
X0063554Y0250126D01*
X0063554Y0251427D01*
X0062903Y0252077D01*
X0060951Y0252077D01*
X0060951Y0253378D02*
X0060951Y0249475D01*
X0060957Y0247078D02*
X0062258Y0247078D01*
X0062909Y0246428D01*
X0064174Y0245127D02*
X0066776Y0245127D01*
X0068041Y0245777D02*
X0068692Y0245127D01*
X0069993Y0245127D01*
X0070644Y0245777D01*
X0070644Y0246428D01*
X0069993Y0247078D01*
X0068692Y0247078D01*
X0068041Y0246428D01*
X0068041Y0245777D01*
X0068692Y0245127D02*
X0068041Y0244476D01*
X0068041Y0243826D01*
X0068692Y0243175D01*
X0069993Y0243175D01*
X0070644Y0243826D01*
X0070644Y0244476D01*
X0069993Y0245127D01*
X0071264Y0249475D02*
X0073216Y0249475D01*
X0073866Y0250126D01*
X0073866Y0251427D01*
X0073216Y0252077D01*
X0071264Y0252077D01*
X0069999Y0252077D02*
X0068698Y0252077D01*
X0069348Y0252728D02*
X0069348Y0250126D01*
X0068698Y0249475D01*
X0067421Y0250126D02*
X0067421Y0251427D01*
X0066770Y0252077D01*
X0065469Y0252077D01*
X0064819Y0251427D01*
X0064819Y0250776D01*
X0067421Y0250776D01*
X0067421Y0250126D02*
X0066770Y0249475D01*
X0065469Y0249475D01*
X0060307Y0245777D02*
X0062909Y0243175D01*
X0060307Y0243175D01*
X0060307Y0245777D02*
X0060307Y0246428D01*
X0060957Y0247078D01*
X0058397Y0255775D02*
X0056445Y0255775D01*
X0055795Y0256426D01*
X0055795Y0257076D01*
X0056445Y0257727D01*
X0058397Y0257727D01*
X0058397Y0259678D02*
X0058397Y0255775D01*
X0056445Y0257727D02*
X0055795Y0258377D01*
X0055795Y0259028D01*
X0056445Y0259678D01*
X0058397Y0259678D01*
X0054530Y0257727D02*
X0054530Y0256426D01*
X0053879Y0255775D01*
X0052578Y0255775D01*
X0051928Y0256426D01*
X0051928Y0257727D01*
X0052578Y0258377D01*
X0053879Y0258377D01*
X0054530Y0257727D01*
X0050663Y0256426D02*
X0050012Y0257076D01*
X0048060Y0257076D01*
X0048060Y0257727D02*
X0048060Y0255775D01*
X0050012Y0255775D01*
X0050663Y0256426D01*
X0050012Y0258377D02*
X0048711Y0258377D01*
X0048060Y0257727D01*
X0046795Y0258377D02*
X0046795Y0255775D01*
X0046795Y0257076D02*
X0045494Y0258377D01*
X0044844Y0258377D01*
X0043573Y0257727D02*
X0042922Y0258377D01*
X0040970Y0258377D01*
X0040970Y0259678D02*
X0040970Y0255775D01*
X0042922Y0255775D01*
X0043573Y0256426D01*
X0043573Y0257727D01*
X0044862Y0252077D02*
X0044862Y0249475D01*
X0033745Y0231096D02*
X0033745Y0221704D01*
X0033148Y0229150D02*
X0030045Y0229150D01*
X0064831Y0255775D02*
X0063530Y0258377D01*
X0066132Y0258377D02*
X0064831Y0255775D01*
X0067397Y0257076D02*
X0069999Y0257076D01*
X0069999Y0256426D02*
X0069999Y0257727D01*
X0069348Y0258377D01*
X0068047Y0258377D01*
X0067397Y0257727D01*
X0067397Y0257076D01*
X0068047Y0255775D02*
X0069348Y0255775D01*
X0069999Y0256426D01*
X0071264Y0256426D02*
X0071264Y0259028D01*
X0071915Y0259678D01*
X0073866Y0259678D01*
X0073866Y0255775D01*
X0071915Y0255775D01*
X0071264Y0256426D01*
X0075782Y0252077D02*
X0075131Y0251427D01*
X0075131Y0250776D01*
X0077734Y0250776D01*
X0077734Y0250126D02*
X0077734Y0251427D01*
X0077083Y0252077D01*
X0075782Y0252077D01*
X0075782Y0249475D02*
X0077083Y0249475D01*
X0077734Y0250126D01*
X0078999Y0250126D02*
X0079649Y0249475D01*
X0081601Y0249475D01*
X0082866Y0249475D02*
X0085468Y0252077D01*
X0086733Y0251427D02*
X0086733Y0250776D01*
X0089336Y0250776D01*
X0089336Y0250126D02*
X0089336Y0251427D01*
X0088685Y0252077D01*
X0087384Y0252077D01*
X0086733Y0251427D01*
X0087384Y0249475D02*
X0088685Y0249475D01*
X0089336Y0250126D01*
X0090601Y0249475D02*
X0090601Y0251427D01*
X0091251Y0252077D01*
X0093203Y0252077D01*
X0093203Y0249475D01*
X0094468Y0249475D02*
X0094468Y0252077D01*
X0094468Y0249475D02*
X0096420Y0249475D01*
X0097070Y0250126D01*
X0097070Y0252077D01*
X0098826Y0252187D02*
X0105623Y0252187D01*
X0105624Y0252196D02*
X0105524Y0251573D01*
X0105554Y0250942D01*
X0105711Y0250330D01*
X0105991Y0249764D01*
X0106380Y0249266D01*
X0106862Y0248859D01*
X0107418Y0248558D01*
X0106005Y0245148D01*
X0105009Y0245661D01*
X0102535Y0243644D01*
X0100839Y0245340D01*
X0102857Y0247814D01*
X0102343Y0248811D01*
X0102002Y0249878D01*
X0098826Y0250200D01*
X0098826Y0252600D01*
X0102002Y0252922D01*
X0102343Y0253989D01*
X0102857Y0254986D01*
X0100839Y0257460D01*
X0102535Y0259156D01*
X0105009Y0257139D01*
X0106006Y0257652D01*
X0107073Y0257993D01*
X0107396Y0261169D01*
X0109795Y0261169D01*
X0110117Y0257993D01*
X0111185Y0257652D01*
X0112181Y0257139D01*
X0114655Y0259156D01*
X0116351Y0257460D01*
X0114334Y0254986D01*
X0114847Y0253989D01*
X0115188Y0252922D01*
X0118364Y0252600D01*
X0118364Y0250200D01*
X0115188Y0249878D01*
X0114847Y0248811D01*
X0114334Y0247814D01*
X0116351Y0245340D01*
X0114655Y0243644D01*
X0112181Y0245661D01*
X0111185Y0245148D01*
X0109772Y0248558D01*
X0110304Y0248842D01*
X0110770Y0249225D01*
X0111153Y0249691D01*
X0111437Y0250223D01*
X0111612Y0250800D01*
X0111671Y0251400D01*
X0111606Y0252028D01*
X0111414Y0252630D01*
X0111104Y0253180D01*
X0110687Y0253655D01*
X0110183Y0254035D01*
X0109611Y0254303D01*
X0108997Y0254450D01*
X0108365Y0254467D01*
X0107744Y0254356D01*
X0107158Y0254120D01*
X0106633Y0253769D01*
X0106190Y0253318D01*
X0105849Y0252786D01*
X0105624Y0252196D01*
X0105734Y0252485D02*
X0098826Y0252485D01*
X0098826Y0251888D02*
X0105575Y0251888D01*
X0105527Y0251590D02*
X0098826Y0251590D01*
X0098826Y0251291D02*
X0105537Y0251291D01*
X0105551Y0250993D02*
X0098826Y0250993D01*
X0098826Y0250694D02*
X0105617Y0250694D01*
X0105694Y0250396D02*
X0098826Y0250396D01*
X0099843Y0250097D02*
X0105826Y0250097D01*
X0105973Y0249799D02*
X0102027Y0249799D01*
X0102123Y0249500D02*
X0106197Y0249500D01*
X0106456Y0249202D02*
X0102218Y0249202D01*
X0102314Y0248903D02*
X0106810Y0248903D01*
X0107332Y0248605D02*
X0102450Y0248605D01*
X0102603Y0248306D02*
X0107314Y0248306D01*
X0107190Y0248008D02*
X0102757Y0248008D01*
X0102771Y0247709D02*
X0107066Y0247709D01*
X0106943Y0247411D02*
X0102527Y0247411D01*
X0102284Y0247112D02*
X0106819Y0247112D01*
X0106695Y0246814D02*
X0102041Y0246814D01*
X0101797Y0246515D02*
X0106572Y0246515D01*
X0106448Y0246216D02*
X0101554Y0246216D01*
X0101310Y0245918D02*
X0106324Y0245918D01*
X0106201Y0245619D02*
X0105091Y0245619D01*
X0104958Y0245619D02*
X0101067Y0245619D01*
X0100858Y0245321D02*
X0104592Y0245321D01*
X0104226Y0245022D02*
X0101157Y0245022D01*
X0101455Y0244724D02*
X0103860Y0244724D01*
X0103494Y0244425D02*
X0101754Y0244425D01*
X0102052Y0244127D02*
X0103127Y0244127D01*
X0102761Y0243828D02*
X0102351Y0243828D01*
X0105670Y0245321D02*
X0106077Y0245321D01*
X0110371Y0247112D02*
X0114906Y0247112D01*
X0114663Y0247411D02*
X0110248Y0247411D01*
X0110124Y0247709D02*
X0114419Y0247709D01*
X0114433Y0248008D02*
X0110000Y0248008D01*
X0109877Y0248306D02*
X0114587Y0248306D01*
X0114741Y0248605D02*
X0109859Y0248605D01*
X0110378Y0248903D02*
X0114876Y0248903D01*
X0114972Y0249202D02*
X0110742Y0249202D01*
X0110996Y0249500D02*
X0115068Y0249500D01*
X0115163Y0249799D02*
X0111210Y0249799D01*
X0111370Y0250097D02*
X0117347Y0250097D01*
X0118364Y0250396D02*
X0111489Y0250396D01*
X0111580Y0250694D02*
X0118364Y0250694D01*
X0118364Y0250993D02*
X0111631Y0250993D01*
X0111660Y0251291D02*
X0118364Y0251291D01*
X0118364Y0251590D02*
X0111652Y0251590D01*
X0111621Y0251888D02*
X0118364Y0251888D01*
X0118364Y0252187D02*
X0111556Y0252187D01*
X0111461Y0252485D02*
X0118364Y0252485D01*
X0116551Y0252784D02*
X0111328Y0252784D01*
X0111159Y0253082D02*
X0115137Y0253082D01*
X0115042Y0253381D02*
X0110928Y0253381D01*
X0110655Y0253679D02*
X0114946Y0253679D01*
X0114851Y0253978D02*
X0110258Y0253978D01*
X0109669Y0254276D02*
X0114699Y0254276D01*
X0114545Y0254575D02*
X0102645Y0254575D01*
X0102799Y0254873D02*
X0114392Y0254873D01*
X0114485Y0255172D02*
X0102705Y0255172D01*
X0102461Y0255470D02*
X0114729Y0255470D01*
X0114972Y0255769D02*
X0102218Y0255769D01*
X0101975Y0256067D02*
X0115216Y0256067D01*
X0115459Y0256366D02*
X0101731Y0256366D01*
X0101488Y0256664D02*
X0115702Y0256664D01*
X0115946Y0256963D02*
X0101244Y0256963D01*
X0101001Y0257261D02*
X0104859Y0257261D01*
X0105248Y0257261D02*
X0111942Y0257261D01*
X0112332Y0257261D02*
X0116189Y0257261D01*
X0116251Y0257560D02*
X0112698Y0257560D01*
X0113064Y0257858D02*
X0115952Y0257858D01*
X0115654Y0258157D02*
X0113430Y0258157D01*
X0113796Y0258455D02*
X0115355Y0258455D01*
X0115057Y0258754D02*
X0114162Y0258754D01*
X0114528Y0259052D02*
X0114758Y0259052D01*
X0111363Y0257560D02*
X0105827Y0257560D01*
X0106652Y0257858D02*
X0110539Y0257858D01*
X0110101Y0258157D02*
X0107090Y0258157D01*
X0107120Y0258455D02*
X0110070Y0258455D01*
X0110040Y0258754D02*
X0107150Y0258754D01*
X0107181Y0259052D02*
X0110010Y0259052D01*
X0109979Y0259351D02*
X0107211Y0259351D01*
X0107241Y0259650D02*
X0109949Y0259650D01*
X0109919Y0259948D02*
X0107272Y0259948D01*
X0107302Y0260247D02*
X0109888Y0260247D01*
X0109858Y0260545D02*
X0107332Y0260545D01*
X0107362Y0260844D02*
X0109828Y0260844D01*
X0109798Y0261142D02*
X0107393Y0261142D01*
X0104493Y0257560D02*
X0100939Y0257560D01*
X0101238Y0257858D02*
X0104126Y0257858D01*
X0103760Y0258157D02*
X0101536Y0258157D01*
X0101835Y0258455D02*
X0103394Y0258455D01*
X0103028Y0258754D02*
X0102133Y0258754D01*
X0102432Y0259052D02*
X0102662Y0259052D01*
X0102491Y0254276D02*
X0107547Y0254276D01*
X0106946Y0253978D02*
X0102340Y0253978D01*
X0102244Y0253679D02*
X0106545Y0253679D01*
X0106252Y0253381D02*
X0102149Y0253381D01*
X0102053Y0253082D02*
X0106039Y0253082D01*
X0105848Y0252784D02*
X0100640Y0252784D01*
X0097070Y0255775D02*
X0097070Y0259678D01*
X0094468Y0259678D01*
X0093203Y0259028D02*
X0093203Y0258377D01*
X0092552Y0257727D01*
X0091251Y0257727D01*
X0090601Y0257076D01*
X0090601Y0256426D01*
X0091251Y0255775D01*
X0092552Y0255775D01*
X0093203Y0256426D01*
X0094468Y0255775D02*
X0097070Y0255775D01*
X0097070Y0257727D02*
X0095769Y0257727D01*
X0093203Y0259028D02*
X0092552Y0259678D01*
X0091251Y0259678D01*
X0090601Y0259028D01*
X0089336Y0259678D02*
X0089336Y0255775D01*
X0089336Y0257076D02*
X0087384Y0257076D01*
X0086733Y0257727D01*
X0086733Y0259028D01*
X0087384Y0259678D01*
X0089336Y0259678D01*
X0085468Y0259028D02*
X0084818Y0259678D01*
X0083517Y0259678D01*
X0082866Y0259028D01*
X0082866Y0258377D01*
X0083517Y0257727D01*
X0082866Y0257076D01*
X0082866Y0256426D01*
X0083517Y0255775D01*
X0084818Y0255775D01*
X0085468Y0256426D01*
X0084167Y0257727D02*
X0083517Y0257727D01*
X0081601Y0259028D02*
X0080950Y0259678D01*
X0079649Y0259678D01*
X0078999Y0259028D01*
X0078999Y0258377D01*
X0081601Y0255775D01*
X0078999Y0255775D01*
X0079649Y0252077D02*
X0078999Y0251427D01*
X0078999Y0250126D01*
X0079649Y0252077D02*
X0081601Y0252077D01*
X0081601Y0248174D01*
X0081595Y0247078D02*
X0082245Y0246428D01*
X0081595Y0247078D02*
X0080294Y0247078D01*
X0079643Y0246428D01*
X0079643Y0245777D01*
X0082245Y0243175D01*
X0079643Y0243175D01*
X0078378Y0243826D02*
X0078378Y0246428D01*
X0077728Y0247078D01*
X0076427Y0247078D01*
X0075776Y0246428D01*
X0078378Y0243826D01*
X0077728Y0243175D01*
X0076427Y0243175D01*
X0075776Y0243826D01*
X0075776Y0246428D01*
X0074511Y0245777D02*
X0073210Y0247078D01*
X0073210Y0243175D01*
X0074511Y0243175D02*
X0071909Y0243175D01*
X0082866Y0252077D02*
X0085468Y0249475D01*
X0087378Y0245777D02*
X0088679Y0243175D01*
X0089980Y0245777D01*
X0091245Y0245127D02*
X0091245Y0244476D01*
X0093847Y0244476D01*
X0093847Y0243826D02*
X0093847Y0245127D01*
X0093197Y0245777D01*
X0091896Y0245777D01*
X0091245Y0245127D01*
X0091896Y0243175D02*
X0093197Y0243175D01*
X0093847Y0243826D01*
X0095118Y0245777D02*
X0095769Y0245777D01*
X0097070Y0244476D01*
X0097070Y0243175D02*
X0097070Y0245777D01*
X0096371Y0238078D02*
X0097922Y0238078D01*
X0097922Y0234975D01*
X0096371Y0234975D01*
X0095854Y0235492D01*
X0095854Y0237561D01*
X0096371Y0238078D01*
X0094792Y0237043D02*
X0094792Y0234975D01*
X0094792Y0236526D02*
X0092723Y0236526D01*
X0092723Y0237043D02*
X0092723Y0234975D01*
X0092723Y0237043D02*
X0093758Y0238078D01*
X0094792Y0237043D01*
X0098985Y0237561D02*
X0099502Y0238078D01*
X0100536Y0238078D01*
X0101053Y0237561D01*
X0101053Y0237043D01*
X0100536Y0236526D01*
X0099502Y0236526D01*
X0098985Y0236009D01*
X0098985Y0235492D01*
X0099502Y0234975D01*
X0100536Y0234975D01*
X0101053Y0235492D01*
X0105246Y0235492D02*
X0105763Y0234975D01*
X0106797Y0234975D01*
X0107314Y0235492D01*
X0108377Y0234975D02*
X0110445Y0234975D01*
X0108377Y0237043D01*
X0108377Y0237561D01*
X0108894Y0238078D01*
X0109928Y0238078D01*
X0110445Y0237561D01*
X0107314Y0237561D02*
X0106797Y0238078D01*
X0105763Y0238078D01*
X0105246Y0237561D01*
X0105246Y0237043D01*
X0105763Y0236526D01*
X0105246Y0236009D01*
X0105246Y0235492D01*
X0105763Y0236526D02*
X0106280Y0236526D01*
X0106672Y0228078D02*
X0105638Y0228078D01*
X0105121Y0227561D01*
X0105121Y0227043D01*
X0107189Y0224975D01*
X0105121Y0224975D01*
X0107189Y0227561D02*
X0106672Y0228078D01*
X0108252Y0227561D02*
X0108769Y0228078D01*
X0109803Y0228078D01*
X0110320Y0227561D01*
X0108252Y0227561D02*
X0108252Y0227043D01*
X0110320Y0224975D01*
X0108252Y0224975D01*
X0109045Y0218618D02*
X0109045Y0216550D01*
X0109045Y0217584D02*
X0112148Y0217584D01*
X0111114Y0216550D01*
X0111114Y0215488D02*
X0111631Y0215488D01*
X0112148Y0214971D01*
X0112148Y0213936D01*
X0111631Y0213419D01*
X0111114Y0215488D02*
X0109045Y0213419D01*
X0109045Y0215488D01*
X0109286Y0208078D02*
X0109286Y0204975D01*
X0110320Y0204975D02*
X0108252Y0204975D01*
X0107189Y0205492D02*
X0106672Y0204975D01*
X0105638Y0204975D01*
X0105121Y0205492D01*
X0105121Y0207561D01*
X0105638Y0208078D01*
X0106672Y0208078D01*
X0107189Y0207561D01*
X0107189Y0207043D01*
X0106672Y0206526D01*
X0105121Y0206526D01*
X0109286Y0208078D02*
X0110320Y0207043D01*
X0109286Y0198078D02*
X0109286Y0194975D01*
X0110320Y0194975D02*
X0108252Y0194975D01*
X0107189Y0195492D02*
X0107189Y0196009D01*
X0106672Y0196526D01*
X0105638Y0196526D01*
X0105121Y0196009D01*
X0105121Y0195492D01*
X0105638Y0194975D01*
X0106672Y0194975D01*
X0107189Y0195492D01*
X0106672Y0196526D02*
X0107189Y0197043D01*
X0107189Y0197561D01*
X0106672Y0198078D01*
X0105638Y0198078D01*
X0105121Y0197561D01*
X0105121Y0197043D01*
X0105638Y0196526D01*
X0109286Y0198078D02*
X0110320Y0197043D01*
X0110320Y0188078D02*
X0108252Y0188078D01*
X0108769Y0187043D02*
X0108252Y0186526D01*
X0108252Y0185492D01*
X0108769Y0184975D01*
X0109803Y0184975D01*
X0110320Y0185492D01*
X0110320Y0186526D02*
X0109286Y0187043D01*
X0108769Y0187043D01*
X0110320Y0186526D02*
X0110320Y0188078D01*
X0111631Y0178618D02*
X0109562Y0176550D01*
X0109045Y0176550D01*
X0109045Y0175488D02*
X0109045Y0173419D01*
X0109045Y0174454D02*
X0112148Y0174454D01*
X0111114Y0173419D01*
X0112148Y0176550D02*
X0112148Y0178618D01*
X0111631Y0178618D01*
X0112148Y0168618D02*
X0111631Y0167584D01*
X0110596Y0166550D01*
X0109562Y0166550D01*
X0109045Y0167067D01*
X0109045Y0168101D01*
X0109562Y0168618D01*
X0110079Y0168618D01*
X0110596Y0168101D01*
X0110596Y0166550D01*
X0109045Y0165488D02*
X0109045Y0163419D01*
X0109045Y0164454D02*
X0112148Y0164454D01*
X0111114Y0163419D01*
X0110596Y0158618D02*
X0109562Y0158618D01*
X0109045Y0158101D01*
X0109045Y0157067D01*
X0109562Y0156550D01*
X0110596Y0156550D02*
X0111114Y0157584D01*
X0111114Y0158101D01*
X0110596Y0158618D01*
X0110596Y0156550D02*
X0112148Y0156550D01*
X0112148Y0158618D01*
X0111114Y0155488D02*
X0109045Y0155488D01*
X0109045Y0153419D02*
X0111114Y0153419D01*
X0112148Y0154454D01*
X0111114Y0155488D01*
X0110596Y0155488D02*
X0110596Y0153419D01*
X0111114Y0147053D02*
X0111631Y0147053D01*
X0112148Y0146536D01*
X0112148Y0145502D01*
X0111631Y0144985D01*
X0111114Y0147053D02*
X0109045Y0144985D01*
X0109045Y0147053D01*
X0109562Y0138618D02*
X0109045Y0138101D01*
X0109045Y0137067D01*
X0109562Y0136550D01*
X0110596Y0136550D02*
X0111114Y0137584D01*
X0111114Y0138101D01*
X0110596Y0138618D01*
X0109562Y0138618D01*
X0110596Y0136550D02*
X0112148Y0136550D01*
X0112148Y0138618D01*
X0112148Y0134454D02*
X0111114Y0133419D01*
X0112148Y0134454D02*
X0109045Y0134454D01*
X0109045Y0135488D02*
X0109045Y0133419D01*
X0108510Y0127953D02*
X0106442Y0124850D01*
X0106442Y0127953D01*
X0105380Y0127953D02*
X0105380Y0124850D01*
X0103828Y0124850D01*
X0103311Y0125367D01*
X0103311Y0127436D01*
X0103828Y0127953D01*
X0105380Y0127953D01*
X0108510Y0127953D02*
X0108510Y0124850D01*
X0109573Y0125367D02*
X0109573Y0126401D01*
X0110607Y0126401D01*
X0111641Y0125367D02*
X0111641Y0127436D01*
X0111124Y0127953D01*
X0110090Y0127953D01*
X0109573Y0127436D01*
X0109573Y0125367D02*
X0110090Y0124850D01*
X0111124Y0124850D01*
X0111641Y0125367D01*
X0112148Y0120966D02*
X0110079Y0120966D01*
X0109045Y0119932D01*
X0110079Y0118898D01*
X0112148Y0118898D01*
X0111631Y0117836D02*
X0112148Y0117319D01*
X0112148Y0116284D01*
X0111631Y0115767D01*
X0110596Y0116802D02*
X0110596Y0117319D01*
X0110079Y0117836D01*
X0109562Y0117836D01*
X0109045Y0117319D01*
X0109045Y0116284D01*
X0109562Y0115767D01*
X0109562Y0114719D02*
X0109045Y0114719D01*
X0109045Y0114202D01*
X0109562Y0114202D01*
X0109562Y0114719D01*
X0109562Y0113140D02*
X0109045Y0112623D01*
X0109045Y0111588D01*
X0109562Y0111071D01*
X0110596Y0112106D02*
X0110596Y0112623D01*
X0110079Y0113140D01*
X0109562Y0113140D01*
X0110596Y0112623D02*
X0111114Y0113140D01*
X0111631Y0113140D01*
X0112148Y0112623D01*
X0112148Y0111588D01*
X0111631Y0111071D01*
X0112148Y0108618D02*
X0109045Y0106550D01*
X0109045Y0108618D02*
X0112148Y0106550D01*
X0112148Y0105488D02*
X0112148Y0103419D01*
X0112148Y0104454D02*
X0109045Y0104454D01*
X0109045Y0098618D02*
X0112148Y0096550D01*
X0111631Y0095488D02*
X0112148Y0094971D01*
X0112148Y0093419D01*
X0109045Y0093419D01*
X0110079Y0093419D02*
X0110079Y0094971D01*
X0110596Y0095488D01*
X0111631Y0095488D01*
X0110079Y0094454D02*
X0109045Y0095488D01*
X0109045Y0096550D02*
X0112148Y0098618D01*
X0110596Y0117319D02*
X0111114Y0117836D01*
X0111631Y0117836D01*
X0103542Y0184975D02*
X0104059Y0185492D01*
X0103542Y0184975D02*
X0102507Y0184975D01*
X0101990Y0185492D01*
X0101990Y0186009D01*
X0102507Y0186526D01*
X0103542Y0186526D01*
X0104059Y0187043D01*
X0104059Y0187561D01*
X0103542Y0188078D01*
X0102507Y0188078D01*
X0101990Y0187561D01*
X0100928Y0187561D02*
X0100928Y0185492D01*
X0100411Y0184975D01*
X0099377Y0184975D01*
X0098860Y0185492D01*
X0097797Y0184975D02*
X0097797Y0188078D01*
X0098860Y0187561D02*
X0099377Y0188078D01*
X0100411Y0188078D01*
X0100928Y0187561D01*
X0100928Y0194975D02*
X0100928Y0198078D01*
X0099894Y0197043D01*
X0098860Y0198078D01*
X0098860Y0194975D01*
X0097797Y0195492D02*
X0097280Y0194975D01*
X0096246Y0194975D01*
X0095729Y0195492D01*
X0095729Y0197561D01*
X0096246Y0198078D01*
X0097280Y0198078D01*
X0097797Y0197561D01*
X0097797Y0195492D01*
X0094667Y0195492D02*
X0094150Y0194975D01*
X0093115Y0194975D01*
X0092598Y0195492D01*
X0092598Y0196009D01*
X0093115Y0196526D01*
X0094150Y0196526D01*
X0094667Y0197043D01*
X0094667Y0197561D01*
X0094150Y0198078D01*
X0093115Y0198078D01*
X0092598Y0197561D01*
X0091536Y0198078D02*
X0090502Y0198078D01*
X0091019Y0198078D02*
X0091019Y0194975D01*
X0091536Y0194975D02*
X0090502Y0194975D01*
X0095729Y0188078D02*
X0097797Y0186009D01*
X0097280Y0186526D02*
X0095729Y0184975D01*
X0095193Y0204975D02*
X0095710Y0205492D01*
X0095193Y0204975D02*
X0094159Y0204975D01*
X0093642Y0205492D01*
X0093642Y0206009D01*
X0094159Y0206526D01*
X0095193Y0206526D01*
X0095710Y0207043D01*
X0095710Y0207561D01*
X0095193Y0208078D01*
X0094159Y0208078D01*
X0093642Y0207561D01*
X0092580Y0207561D02*
X0092580Y0205492D01*
X0092063Y0204975D01*
X0091028Y0204975D01*
X0090511Y0205492D01*
X0090511Y0207561D01*
X0091028Y0208078D01*
X0092063Y0208078D01*
X0092580Y0207561D01*
X0096763Y0208078D02*
X0097797Y0208078D01*
X0097280Y0208078D02*
X0097280Y0204975D01*
X0097797Y0204975D02*
X0096763Y0204975D01*
X0098860Y0204975D02*
X0098860Y0208078D01*
X0099894Y0207043D01*
X0100928Y0208078D01*
X0100928Y0204975D01*
X0100411Y0224975D02*
X0099377Y0224975D01*
X0098860Y0225492D01*
X0098860Y0226009D01*
X0099377Y0226526D01*
X0100411Y0226526D01*
X0100928Y0227043D01*
X0100928Y0227561D01*
X0100411Y0228078D01*
X0099377Y0228078D01*
X0098860Y0227561D01*
X0097797Y0227561D02*
X0097797Y0225492D01*
X0097280Y0224975D01*
X0096246Y0224975D01*
X0095729Y0225492D01*
X0094667Y0224975D02*
X0094667Y0228078D01*
X0095729Y0227561D02*
X0096246Y0228078D01*
X0097280Y0228078D01*
X0097797Y0227561D01*
X0100411Y0224975D02*
X0100928Y0225492D01*
X0094667Y0224975D02*
X0092598Y0224975D01*
X0110495Y0246814D02*
X0115150Y0246814D01*
X0115393Y0246515D02*
X0110619Y0246515D01*
X0110742Y0246216D02*
X0115636Y0246216D01*
X0115880Y0245918D02*
X0110866Y0245918D01*
X0110990Y0245619D02*
X0112100Y0245619D01*
X0112232Y0245619D02*
X0116123Y0245619D01*
X0116332Y0245321D02*
X0112598Y0245321D01*
X0112965Y0245022D02*
X0116033Y0245022D01*
X0115735Y0244724D02*
X0113331Y0244724D01*
X0113697Y0244425D02*
X0115436Y0244425D01*
X0115138Y0244127D02*
X0114063Y0244127D01*
X0114429Y0243828D02*
X0114839Y0243828D01*
X0111520Y0245321D02*
X0111113Y0245321D01*
D11*
X0031095Y0111525D02*
X0031095Y0091275D01*
X0026095Y0091275D01*
X0026095Y0111525D02*
X0031095Y0111525D01*
D12*
X0040576Y0098833D02*
X0037097Y0095354D01*
X0037097Y0093962D01*
X0037792Y0093266D01*
X0039880Y0093962D02*
X0037792Y0096050D01*
X0039880Y0093962D02*
X0041272Y0093962D01*
X0042664Y0095354D01*
X0042664Y0096746D01*
X0040576Y0098833D01*
X0044047Y0093970D02*
X0041959Y0091883D01*
X0043241Y0086914D02*
X0039066Y0082738D01*
X0041154Y0080651D01*
X0042545Y0080651D01*
X0043937Y0082043D01*
X0043937Y0083434D01*
X0041849Y0085522D01*
X0044743Y0089099D02*
X0047527Y0091883D01*
X0045439Y0093970D01*
X0044047Y0093970D01*
X0046129Y0087713D02*
X0047521Y0086321D01*
X0046825Y0087017D02*
X0049609Y0089801D01*
X0050305Y0089105D01*
X0050992Y0087025D02*
X0048904Y0084938D01*
X0046712Y0080659D02*
X0045321Y0080659D01*
X0044625Y0079963D01*
X0047408Y0077180D01*
X0046712Y0076484D02*
X0048104Y0077876D01*
X0048104Y0079267D01*
X0046712Y0080659D01*
X0043929Y0077876D02*
X0045321Y0076484D01*
X0046712Y0076484D01*
X0047403Y0074402D02*
X0048795Y0074402D01*
X0051578Y0077185D01*
X0051578Y0075793D02*
X0050186Y0077185D01*
X0052962Y0074410D02*
X0055049Y0072322D01*
X0055049Y0070931D01*
X0053657Y0069539D01*
X0052266Y0069539D01*
X0050178Y0071626D01*
X0055737Y0068851D02*
X0058520Y0066068D01*
X0057824Y0065372D02*
X0059216Y0066764D01*
X0059216Y0068155D01*
X0057824Y0069547D01*
X0056433Y0069547D01*
X0055737Y0068851D01*
X0055041Y0066764D02*
X0056433Y0065372D01*
X0057824Y0065372D01*
X0059208Y0063988D02*
X0059208Y0062597D01*
X0061296Y0060509D01*
X0062679Y0059125D02*
X0068246Y0059125D01*
X0068934Y0057046D02*
X0068238Y0056350D01*
X0071021Y0053567D01*
X0070325Y0052871D02*
X0071717Y0054263D01*
X0071717Y0055654D01*
X0070325Y0057046D01*
X0068934Y0057046D01*
X0067542Y0054263D02*
X0068934Y0052871D01*
X0070325Y0052871D01*
X0071013Y0050791D02*
X0073101Y0052879D01*
X0074492Y0052879D01*
X0076580Y0050791D01*
X0073797Y0048008D01*
X0075180Y0046624D02*
X0077964Y0049408D01*
X0080747Y0046624D02*
X0078659Y0044537D01*
X0077268Y0044537D01*
X0075180Y0046624D01*
X0078772Y0055070D02*
X0077380Y0056462D01*
X0078772Y0055070D02*
X0080164Y0055070D01*
X0081556Y0056462D01*
X0081556Y0057854D01*
X0080164Y0059245D01*
X0078772Y0059245D01*
X0078076Y0058549D01*
X0080860Y0055766D01*
X0080853Y0052989D02*
X0084332Y0052293D01*
X0083637Y0055773D01*
X0087116Y0055077D02*
X0082941Y0050901D01*
X0084324Y0049518D02*
X0086412Y0047430D01*
X0087804Y0047430D01*
X0087804Y0048822D01*
X0085716Y0050910D01*
X0086412Y0051606D02*
X0084324Y0049518D01*
X0086412Y0051606D02*
X0087804Y0051606D01*
X0089195Y0050214D01*
X0090579Y0047439D02*
X0088491Y0045351D01*
X0089883Y0043959D02*
X0091971Y0046047D01*
X0091971Y0047439D01*
X0090579Y0047439D01*
X0091971Y0046047D02*
X0093362Y0046047D01*
X0094058Y0045351D01*
X0091275Y0042567D01*
X0073222Y0064796D02*
X0073222Y0066188D01*
X0071134Y0068275D01*
X0069055Y0068963D02*
X0067663Y0067571D01*
X0066271Y0067571D01*
X0064879Y0068963D01*
X0064879Y0070355D01*
X0066271Y0071746D01*
X0067663Y0071746D01*
X0069055Y0070355D01*
X0069055Y0068963D01*
X0069046Y0066188D02*
X0070438Y0066188D01*
X0071830Y0064796D01*
X0073222Y0064796D01*
X0071134Y0062708D02*
X0069046Y0064796D01*
X0069046Y0066188D01*
X0065463Y0061909D02*
X0065463Y0056342D01*
X0059904Y0059117D02*
X0064079Y0063292D01*
X0061991Y0065380D01*
X0060600Y0065380D01*
X0059208Y0063988D01*
X0062800Y0071042D02*
X0065584Y0073826D01*
X0064888Y0074522D01*
X0063496Y0074522D01*
X0063496Y0075913D01*
X0062104Y0075913D01*
X0060016Y0073826D01*
X0061408Y0072434D02*
X0063496Y0074522D01*
X0060721Y0077297D02*
X0060721Y0078689D01*
X0059329Y0080080D01*
X0057937Y0080080D01*
X0057241Y0079384D01*
X0060025Y0076601D01*
X0059329Y0075905D02*
X0060721Y0077297D01*
X0059329Y0075905D02*
X0057937Y0075905D01*
X0056545Y0077297D01*
X0054466Y0080768D02*
X0053074Y0080768D01*
X0054466Y0080768D02*
X0057250Y0083551D01*
X0057250Y0082160D02*
X0055858Y0083551D01*
X0053776Y0084242D02*
X0053776Y0085634D01*
X0052384Y0087025D01*
X0050992Y0087025D01*
X0051001Y0091192D02*
X0051697Y0091888D01*
X0055864Y0086329D02*
X0051688Y0082154D01*
D13*
X0067624Y0182691D02*
X0071045Y0183706D01*
X0071709Y0185459D01*
X0071709Y0185490D01*
X0071747Y0185493D01*
X0071905Y0185512D01*
X0072047Y0185535D01*
X0072078Y0185539D01*
X0072915Y0184672D01*
X0072337Y0182746D01*
X0075394Y0184604D01*
X0075603Y0186468D01*
X0075597Y0186486D01*
X0075635Y0186502D01*
X0076009Y0186660D01*
X0076046Y0186677D01*
X0077067Y0186062D01*
X0077012Y0184050D01*
X0079473Y0186647D01*
X0079183Y0188504D01*
X0079177Y0188516D01*
X0079203Y0188535D01*
X0079458Y0188737D01*
X0079485Y0188756D01*
X0080611Y0188431D01*
X0081072Y0186468D01*
X0082782Y0189605D01*
X0082038Y0191303D01*
X0082065Y0191337D01*
X0082331Y0191686D01*
X0082357Y0191722D01*
X0083508Y0191703D01*
X0084467Y0189931D01*
X0085298Y0193413D01*
X0084141Y0194840D01*
X0084153Y0194868D01*
X0084266Y0195141D01*
X0084277Y0195167D01*
X0085359Y0195431D01*
X0086737Y0193961D01*
X0086663Y0197541D01*
X0085212Y0198617D01*
X0085219Y0198667D01*
X0085281Y0199153D01*
X0085286Y0199202D01*
X0086239Y0199731D01*
X0087949Y0198673D01*
X0086934Y0202105D01*
X0085273Y0202745D01*
X0085268Y0202787D01*
X0085213Y0203196D01*
X0085206Y0203237D01*
X0085968Y0203963D01*
X0087894Y0203385D01*
X0086036Y0206448D01*
X0084301Y0206651D01*
X0084281Y0206701D01*
X0084077Y0207197D01*
X0084055Y0207248D01*
X0084578Y0208122D01*
X0086590Y0208066D01*
X0083987Y0210533D01*
X0082284Y0210275D01*
X0082256Y0210312D01*
X0081974Y0210670D01*
X0081945Y0210705D01*
X0082222Y0211659D01*
X0084178Y0212126D01*
X0081041Y0213837D01*
X0079473Y0213160D01*
X0079428Y0213195D01*
X0078965Y0213544D01*
X0078919Y0213578D01*
X0078931Y0214550D01*
X0080696Y0215516D01*
X0077209Y0216346D01*
X0075898Y0215288D01*
X0075858Y0215305D01*
X0075464Y0215464D01*
X0075425Y0215479D01*
X0075203Y0216402D01*
X0076674Y0217780D01*
X0073093Y0217706D01*
X0072091Y0216359D01*
X0072030Y0216366D01*
X0071437Y0216445D01*
X0071377Y0216451D01*
X0070922Y0217281D01*
X0071974Y0218991D01*
X0068541Y0217976D01*
X0067926Y0216414D01*
X0067876Y0216408D01*
X0067384Y0216340D01*
X0067335Y0216334D01*
X0066683Y0217017D01*
X0067262Y0218942D01*
X0064198Y0217078D01*
X0064001Y0215411D01*
X0063946Y0215388D01*
X0063397Y0215155D01*
X0063343Y0215128D01*
X0062525Y0215621D01*
X0062580Y0217632D01*
X0060113Y0215030D01*
X0060372Y0213344D01*
X0060333Y0213315D01*
X0059960Y0213023D01*
X0059923Y0212994D01*
X0058988Y0213264D01*
X0058520Y0215227D01*
X0056804Y0212083D01*
X0057487Y0210502D01*
X0057453Y0210458D01*
X0057119Y0210013D01*
X0057087Y0209967D01*
X0056090Y0209979D01*
X0055118Y0211745D01*
X0054288Y0208257D01*
X0055383Y0206891D01*
X0055369Y0206858D01*
X0055235Y0206519D01*
X0055223Y0206485D01*
X0054226Y0206245D01*
X0052848Y0207716D01*
X0052922Y0204135D01*
X0054349Y0203071D01*
X0054342Y0203022D01*
X0054280Y0202524D01*
X0054275Y0202474D01*
X0053359Y0201958D01*
X0051649Y0203003D01*
X0052664Y0199565D01*
X0054349Y0198900D01*
X0054354Y0198864D01*
X0054405Y0198505D01*
X0054411Y0198470D01*
X0053623Y0197707D01*
X0051698Y0198291D01*
X0053556Y0195234D01*
X0055377Y0195031D01*
X0055395Y0194988D01*
X0055578Y0194562D01*
X0055598Y0194521D01*
X0055020Y0193561D01*
X0053002Y0193616D01*
X0055598Y0191155D01*
X0057443Y0191445D01*
X0057463Y0191419D01*
X0057674Y0191151D01*
X0057696Y0191125D01*
X0057376Y0190017D01*
X0055413Y0189556D01*
X0058551Y0187846D01*
X0060267Y0188603D01*
X0060273Y0188609D01*
X0060307Y0188584D01*
X0060639Y0188332D01*
X0060673Y0188308D01*
X0060655Y0187132D01*
X0058883Y0186173D01*
X0062365Y0185342D01*
X0063823Y0186530D01*
X0063835Y0186542D01*
X0063858Y0186533D01*
X0064083Y0186441D01*
X0064106Y0186431D01*
X0064389Y0185275D01*
X0062918Y0183897D01*
X0066499Y0183971D01*
X0067612Y0185484D01*
X0067624Y0185515D01*
X0067664Y0185509D01*
X0068064Y0185458D01*
X0068104Y0185453D01*
X0068683Y0184401D01*
X0067624Y0182691D01*
X0069580Y0196538D02*
X0068915Y0196628D01*
X0068089Y0196885D01*
X0067340Y0197291D01*
X0066688Y0197829D01*
X0066150Y0198481D01*
X0065744Y0199229D01*
X0065487Y0200056D01*
X0065398Y0200721D01*
X0065398Y0201165D01*
X0065487Y0201830D01*
X0065744Y0202656D01*
X0066150Y0203404D01*
X0066688Y0204056D01*
X0067340Y0204594D01*
X0068089Y0205001D01*
X0068915Y0205258D01*
X0069580Y0205347D01*
X0070024Y0205347D01*
X0070689Y0205258D01*
X0071515Y0205002D01*
X0072263Y0204596D01*
X0072915Y0204059D01*
X0073454Y0203407D01*
X0073860Y0202659D01*
X0074117Y0201831D01*
X0074206Y0201165D01*
X0074206Y0200721D01*
X0074117Y0200056D01*
X0073860Y0199229D01*
X0073454Y0198481D01*
X0072915Y0197829D01*
X0072263Y0197291D01*
X0071515Y0196885D01*
X0070689Y0196628D01*
X0070024Y0196538D01*
X0069580Y0196538D01*
D14*
X0023176Y0041426D02*
X0024477Y0040125D01*
X0027079Y0040125D01*
X0028380Y0041426D01*
X0028380Y0046631D01*
X0027079Y0047932D01*
X0024477Y0047932D01*
X0023176Y0046631D01*
X0031002Y0046631D02*
X0031002Y0041426D01*
X0032303Y0040125D01*
X0036207Y0040125D01*
X0036207Y0047932D01*
X0032303Y0047932D01*
X0031002Y0046631D01*
X0046656Y0047932D02*
X0046656Y0042727D01*
X0049258Y0040125D01*
X0051860Y0042727D01*
X0051860Y0047932D01*
X0054482Y0047932D02*
X0059687Y0047932D01*
X0059687Y0044028D01*
X0057085Y0045329D01*
X0055784Y0045329D01*
X0054482Y0044028D01*
X0054482Y0041426D01*
X0055784Y0040125D01*
X0058386Y0040125D01*
X0059687Y0041426D01*
M02*
