G75*
%MOIN*%
%OFA0B0*%
%FSLAX25Y25*%
%IPPOS*%
%LPD*%
%AMOC8*
5,1,8,0,0,1.08239X$1,22.5*
%
%ADD10R,0.04882X0.05906*%
%ADD11R,0.02165X0.04724*%
%ADD12R,0.04724X0.04724*%
%ADD13R,0.05906X0.04882*%
%ADD14R,0.05906X0.03543*%
%ADD15R,0.03543X0.05906*%
%ADD16R,0.23622X0.23622*%
%ADD17R,0.04724X0.05118*%
%ADD18R,0.03937X0.03937*%
%ADD19R,0.05512X0.05512*%
%ADD20R,0.01500X0.04500*%
%ADD21R,0.02598X0.01181*%
%ADD22R,0.07087X0.06299*%
%ADD23R,0.05709X0.01575*%
%ADD24R,0.05906X0.07087*%
%ADD25R,0.02756X0.05906*%
%ADD26R,0.04921X0.01181*%
D10*
X0051230Y0092900D03*
X0051230Y0101400D03*
X0051230Y0110400D03*
X0058710Y0110400D03*
X0058710Y0101400D03*
X0058710Y0092900D03*
X0068955Y0110400D03*
X0076435Y0110400D03*
X0079255Y0080709D03*
X0079255Y0072692D03*
X0079255Y0064900D03*
X0086735Y0064900D03*
X0086735Y0072692D03*
X0086735Y0080709D03*
X0094855Y0095400D03*
X0102335Y0095400D03*
X0102335Y0115400D03*
X0094855Y0115400D03*
X0061585Y0125650D03*
X0054105Y0125650D03*
X0068705Y0047100D03*
X0076185Y0047100D03*
X0076085Y0024900D03*
X0076075Y0017150D03*
X0068605Y0024900D03*
X0068595Y0017150D03*
D11*
X0068955Y0091881D03*
X0068955Y0102119D03*
X0072695Y0102119D03*
X0076435Y0102119D03*
X0076435Y0091881D03*
D12*
X0078861Y0057775D03*
X0087129Y0057775D03*
X0038795Y0133616D03*
X0038795Y0141884D03*
D13*
X0045895Y0141540D03*
X0045895Y0134060D03*
X0069045Y0138660D03*
X0069045Y0146140D03*
X0094345Y0146140D03*
X0094345Y0138660D03*
X0115345Y0082390D03*
X0115345Y0074910D03*
X0115595Y0060890D03*
X0115595Y0053410D03*
X0028595Y0243660D03*
X0028595Y0251140D03*
D14*
X0037237Y0231585D03*
X0037237Y0226585D03*
X0037237Y0221585D03*
X0037237Y0216585D03*
X0037237Y0211585D03*
X0037237Y0206585D03*
X0037237Y0201585D03*
X0037237Y0196585D03*
X0037237Y0191585D03*
X0037237Y0186585D03*
X0037237Y0181585D03*
X0037237Y0176585D03*
X0037237Y0171585D03*
X0037237Y0166585D03*
X0104953Y0166585D03*
X0104953Y0171585D03*
X0104953Y0176585D03*
X0104953Y0181585D03*
X0104953Y0186585D03*
X0104953Y0191585D03*
X0104953Y0196585D03*
X0104953Y0201585D03*
X0104953Y0206585D03*
X0104953Y0211585D03*
X0104953Y0216585D03*
X0104953Y0221585D03*
X0104953Y0226585D03*
X0104953Y0231585D03*
D15*
X0093654Y0161113D03*
X0088654Y0161113D03*
X0083654Y0161113D03*
X0078654Y0161113D03*
X0073654Y0161113D03*
X0068654Y0161113D03*
X0063654Y0161113D03*
X0058654Y0161113D03*
X0053654Y0161113D03*
X0048654Y0161113D03*
D16*
X0072434Y0201270D03*
D17*
X0076345Y0039100D03*
X0068345Y0039100D03*
D18*
X0061195Y0133276D03*
X0054896Y0133276D03*
X0054896Y0149024D03*
X0061195Y0149024D03*
X0080196Y0148774D03*
X0086495Y0148774D03*
X0086495Y0133026D03*
X0080196Y0133026D03*
D19*
X0059195Y0083183D03*
X0059195Y0068617D03*
X0051570Y0068617D03*
X0051570Y0083183D03*
D20*
X0088845Y0036450D03*
X0091345Y0036450D03*
X0093845Y0036450D03*
X0096345Y0036450D03*
X0098845Y0036450D03*
X0101345Y0036450D03*
X0103845Y0036450D03*
X0106345Y0036450D03*
X0108845Y0036450D03*
X0111345Y0036450D03*
X0111345Y0015350D03*
X0108845Y0015350D03*
X0106345Y0015350D03*
X0103845Y0015350D03*
X0101345Y0015350D03*
X0098845Y0015350D03*
X0096345Y0015350D03*
X0093845Y0015350D03*
X0091345Y0015350D03*
X0088845Y0015350D03*
D21*
X0094973Y0102841D03*
X0094973Y0105400D03*
X0094973Y0107959D03*
X0102217Y0107959D03*
X0102217Y0105400D03*
X0102217Y0102841D03*
D22*
X0041395Y0106288D03*
X0041395Y0117312D03*
D23*
X0040423Y0076018D03*
X0040423Y0065782D03*
D24*
X0029695Y0056396D03*
X0029695Y0085404D03*
D25*
X0029695Y0070900D03*
D26*
X0040423Y0070900D03*
X0040423Y0068341D03*
X0040423Y0073459D03*
M02*
